<svg width="15" height="15" viewBox="0 0 15 15" fill="none" xmlns="http://www.w3.org/2000/svg">
<path d="M7.49996 1.94541C4.43714 1.94541 1.94541 4.43714 1.94541 7.49996C1.94541 10.5628 4.43714 13.0545 7.49996 13.0545C10.5628 13.0545 13.0545 10.5628 13.0545 7.49996C13.0545 4.43714 10.5628 1.94541 7.49996 1.94541ZM7.49996 12.1727C4.92346 12.1727 2.82723 10.0765 2.82723 7.49996C2.82723 4.92346 4.92346 2.82723 7.49996 2.82723C10.0765 2.82723 12.1727 4.92346 12.1727 7.49996C12.1727 10.0765 10.0765 12.1727 7.49996 12.1727Z" fill="#828282" stroke="#828282" stroke-width="0.2"/>
<path d="M7.05894 7.64106V7.68248L7.08822 7.71177L8.99252 9.61606C9.16469 9.78824 9.44383 9.78824 9.61601 9.61606C9.78818 9.44389 9.78818 9.16475 9.61601 8.99258L7.94076 7.31732V4.43173C7.94076 4.18822 7.74335 3.99082 7.49985 3.99082C7.25634 3.99082 7.05894 4.18822 7.05894 4.43173V7.64106Z" fill="#828282" stroke="#828282" stroke-width="0.2"/>
</svg>
