<svg width="15" height="15" viewBox="0 0 15 15" fill="none" xmlns="http://www.w3.org/2000/svg">
<path d="M1.20365 9.84578C2.12201 9.84578 3.02373 9.70215 3.87822 9.41977C4.29693 9.27695 4.81166 9.40797 5.06721 9.67043L6.75381 10.9436C8.70979 9.89953 9.91463 8.69508 10.9445 6.75379L9.70873 5.11113C9.38768 4.79051 9.27252 4.32215 9.41049 3.8827C9.69408 3.02371 9.83815 2.12242 9.83815 1.20367C9.83811 0.539961 10.3781 0 11.0417 0H13.7964C14.4601 0 15.0001 0.539961 15.0001 1.20363C15.0001 8.81105 8.81108 15 1.20365 15C0.539981 15 1.90735e-05 14.46 1.90735e-05 13.7964V11.0494C5.81741e-05 10.3857 0.54002 9.84578 1.20365 9.84578Z" fill="#44C373"/>
</svg>
