<svg width="15" height="15" viewBox="0 0 15 15" fill="none" xmlns="http://www.w3.org/2000/svg">
<path d="M7.50001 0.431641C3.60246 0.431641 0.431824 3.60227 0.431824 7.49982C0.431824 11.3974 3.60246 14.568 7.50001 14.568C11.3976 14.568 14.5682 11.3974 14.5682 7.49982C14.5682 3.60227 11.3976 0.431641 7.50001 0.431641ZM7.50001 13.2157C4.34842 13.2157 1.7841 10.6514 1.7841 7.49982C1.7841 4.34823 4.34842 1.78392 7.50001 1.78392C10.6516 1.78392 13.2159 4.34823 13.2159 7.49982C13.2159 10.6514 10.6516 13.2157 7.50001 13.2157Z" fill="#44C373" stroke="#44C373" stroke-width="0.5"/>
<path d="M6.56818 7.65918V7.76868L6.64865 7.84293L9.14464 10.1458C9.40285 10.384 9.80071 10.384 10.0589 10.1458C10.3483 9.8788 10.3483 9.42175 10.0589 9.1548L7.95285 7.21173V3.85152C7.95285 3.46915 7.64288 3.15918 7.26051 3.15918C6.87815 3.15918 6.56818 3.46915 6.56818 3.85152V7.65918Z" fill="#44C373" stroke="#44C373" stroke-width="0.5"/>
</svg>
