<svg width="40" height="40" viewBox="0 0 40 40" fill="none" xmlns="http://www.w3.org/2000/svg">
<g clip-path="url(#clip0)">
<path d="M1.19053 38.7544C0.964042 38.5213 0.802167 38.2523 0.704354 37.9655C0.418182 37.1402 0.656854 36.1768 1.36506 35.5603L8.55709 29.3284L10.6022 31.3734L4.41662 38.6373C3.58974 39.6223 2.09045 39.6798 1.19053 38.7544Z" fill="#E7A561"/>
<path d="M1.19052 38.7544C0.964033 38.5213 0.802158 38.2523 0.704346 37.9655C1.52802 38.2544 2.48817 38.0291 3.09083 37.3115L9.27638 30.0477L10.6022 31.3735L4.41669 38.6373C3.58974 39.6223 2.09044 39.6798 1.19052 38.7544Z" fill="#D77D41"/>
<path d="M34.6732 28.2108C28.3518 34.53 18.1031 34.53 11.7823 28.2102C11.4867 27.9147 11.205 27.6109 10.937 27.2998C5.4746 20.9414 5.75632 11.3491 11.7823 5.32547C17.8108 -0.702034 27.412 -0.980471 33.7716 4.48851C34.0799 4.75367 34.3809 5.03265 34.6732 5.32484C40.994 11.6447 40.994 21.8911 34.6732 28.2108Z" fill="#44C373"/>
<path d="M34.6732 28.2108C28.3518 34.53 18.1031 34.53 11.7822 28.2102C11.4867 27.9147 11.205 27.6108 10.937 27.2998C17.296 32.7694 26.8972 32.491 32.9264 26.4641C38.9522 20.4393 39.234 10.8469 33.7716 4.48859C34.0799 4.75374 34.3809 5.03273 34.6732 5.32491C40.994 11.6447 40.994 21.8911 34.6732 28.2108Z" fill="#008F28"/>
<path d="M32.9264 26.4641C27.5701 31.8193 18.8854 31.8188 13.5284 26.4641C13.2489 26.1845 12.9843 25.8967 12.7346 25.5995C8.18704 20.2123 8.45164 12.1474 13.5284 7.07171C18.6063 1.99601 26.6745 1.7314 32.0629 6.27898C32.359 6.52867 32.6474 6.79273 32.9263 7.07171C38.2828 12.4269 38.2828 21.1088 32.9264 26.4641Z" fill="#EEF0F5"/>
<path d="M32.9264 26.4641C27.5701 31.8193 18.8854 31.8188 13.5284 26.4641C13.2489 26.1845 12.9843 25.8967 12.7346 25.5995C18.1241 30.1471 26.1917 29.8831 31.2691 24.8068C36.3459 19.7311 36.6105 11.6663 32.0629 6.27899C32.359 6.52868 32.6474 6.79274 32.9263 7.07173C38.2828 12.4269 38.2828 21.1088 32.9264 26.4641Z" fill="#DAE1EA"/>
<path d="M14.1964 30.1405L12.9086 31.427C12.2866 32.0491 11.2778 32.0491 10.6558 31.427L8.48861 29.2598C7.86603 28.6384 7.86603 27.6296 8.48806 27.0076L9.79291 25.7027L12.5456 28.4765L14.1964 30.1405Z" fill="#56788B"/>
<path d="M14.1964 30.1405L12.9086 31.427C12.2866 32.0491 11.2778 32.0491 10.6558 31.427L8.99854 29.7698C9.62057 30.3918 10.6293 30.3918 11.2513 29.7698L12.5456 28.4766L14.1964 30.1405Z" fill="#415E6F"/>
<path d="M20.0834 24.6746C19.4362 24.6746 18.9115 24.1499 18.9115 23.5027V18.8709C18.9115 18.2238 19.4362 17.6991 20.0834 17.6991C20.7306 17.6991 21.2552 18.2238 21.2552 18.8709V23.5027C21.2552 24.1499 20.7306 24.6746 20.0834 24.6746Z" fill="#FBDF63"/>
<path d="M27.1547 24.6746C26.5075 24.6746 25.9828 24.1499 25.9828 23.5027V20.4334C25.9828 19.7863 26.5075 19.2616 27.1547 19.2616C27.8019 19.2616 28.3265 19.7863 28.3265 20.4334V23.5027C28.3265 24.1499 27.8019 24.6746 27.1547 24.6746Z" fill="#FBDF63"/>
<path d="M28.7171 9.47235C26.9913 9.47235 25.5922 10.8715 25.5922 12.5974V17.1315H28.7171V9.47235Z" fill="white"/>
<path d="M35.0873 4.91099C34.8583 4.68216 34.4873 4.68224 34.2587 4.91107C34.0299 5.13998 34.03 5.51092 34.2588 5.73974C37.2054 8.68553 38.828 12.6021 38.828 16.7679C38.828 20.9338 37.2054 24.8504 34.2588 27.7961C28.1762 33.877 18.2789 33.877 12.1963 27.7961C9.24982 24.8504 7.62709 20.9338 7.62709 16.7679C7.62709 12.602 9.24982 8.68545 12.1963 5.73967C14.8265 3.11013 18.3147 1.50443 22.018 1.21833C25.6823 0.934975 29.3344 1.95146 32.3034 4.07951C32.5662 4.26787 32.9324 4.20787 33.121 3.94459C33.3095 3.68162 33.2492 3.31552 32.9861 3.12701C29.7933 0.838335 25.866 -0.254244 21.9276 0.0498183C17.9458 0.357475 14.1955 2.0838 11.3676 4.91091C8.19974 8.07803 6.45506 12.2889 6.45506 16.7678C6.45506 19.9637 7.34342 23.0231 9.0031 25.6642L8.07373 26.5933C7.66217 27.0048 7.43552 27.5519 7.43552 28.1338C7.43552 28.5356 7.54365 28.9209 7.74607 29.2563L0.980133 35.1185C0.390992 35.6309 0.0345858 36.3691 0.00224206 37.1439C-0.0294767 37.9044 0.24318 38.6216 0.769977 39.1632C1.29052 39.6983 2.00771 40 2.75107 40C2.78427 40 2.81763 39.9994 2.85091 39.9982C3.62998 39.9699 4.36435 39.6114 4.86326 39.0176L7.35115 36.0954C7.56099 35.849 7.53131 35.4791 7.28482 35.2694C7.03849 35.0598 6.66865 35.0892 6.45888 35.3357L3.96857 38.2608C3.6756 38.6095 3.26357 38.8105 2.80834 38.8271C2.35412 38.8441 1.92795 38.673 1.61013 38.3462C1.31021 38.038 1.15505 37.6283 1.17326 37.1929C1.19224 36.7386 1.40216 36.3049 1.74849 36.0036L8.52865 30.1291L9.80521 31.4054L8.14256 33.3584C7.93271 33.6048 7.96248 33.9746 8.20888 34.1844C8.3192 34.2782 8.45412 34.3241 8.58842 34.3241C8.7542 34.3241 8.91888 34.2541 9.03482 34.118L10.6829 32.1823C11.0212 32.3798 11.4018 32.4787 11.7824 32.4787C12.3404 32.4787 12.8983 32.2663 13.3231 31.8417L14.2355 30.9294C16.8985 32.6268 19.9931 33.536 23.2276 33.536C27.7076 33.536 31.9195 31.7919 35.0873 28.6248C38.2551 25.4576 39.9999 21.2469 39.9999 16.7679C39.9999 12.289 38.2552 8.0781 35.0873 4.91099ZM12.4945 31.0129C12.1019 31.4055 11.4629 31.4055 11.0702 31.013L8.9024 28.8457C8.71224 28.6555 8.60748 28.4028 8.60748 28.134C8.60748 27.8651 8.71224 27.6123 8.9024 27.4223L9.67365 26.6512C10.1822 27.3451 10.7477 28.005 11.3677 28.6248C11.9615 29.2184 12.5919 29.7621 13.254 30.2537L12.4945 31.0129Z" fill="black"/>
<path d="M12.129 8.68594C11.8597 8.50649 11.496 8.57914 11.3165 8.84844C9.50959 11.5587 8.68279 14.8473 8.98818 18.1085C9.29772 21.4131 10.7632 24.5277 13.1146 26.8784C15.4583 29.2216 18.5632 30.6858 21.8571 31.001C22.3107 31.0445 22.7648 31.0659 23.2181 31.0659C26.0118 31.0659 28.7666 30.2488 31.0975 28.7102C31.3675 28.532 31.4419 28.1684 31.2637 27.8984C31.0854 27.6283 30.722 27.554 30.4518 27.7321C27.9655 29.3734 24.9527 30.1201 21.9686 29.8343C18.9451 29.545 16.0948 28.2009 13.9431 26.0496C9.53225 21.6398 8.83764 14.679 12.2915 9.49828C12.471 9.2293 12.3983 8.86547 12.129 8.68594Z" fill="black"/>
<path d="M32.5121 26.8784C32.6265 26.9929 32.7765 27.0501 32.9265 27.0501C33.0764 27.0501 33.2263 26.9929 33.3407 26.8785C36.0421 24.1779 37.5297 20.5872 37.5297 16.7679C37.5297 12.9486 36.0421 9.35787 33.3407 6.65725C27.7644 1.08225 18.691 1.08225 13.1147 6.65725C12.8858 6.88608 12.8857 7.25701 13.1146 7.48592C13.3434 7.71475 13.7143 7.71483 13.9432 7.486C19.0627 2.36795 27.3928 2.3678 32.5122 7.486C34.9922 9.96537 36.3579 13.2617 36.3579 16.7679C36.3579 20.274 34.9922 23.5704 32.5122 26.0497C32.2833 26.2786 32.2832 26.6495 32.5121 26.8784Z" fill="black"/>
<path d="M17.7373 8.90022C17.4136 8.90022 17.1514 9.16249 17.1514 9.48616V13.2357C17.1514 14.6495 18.1598 15.8325 19.4957 16.1044V17.2198C18.8136 17.4616 18.3236 18.1133 18.3236 18.8773V23.5028C18.3236 24.472 19.1121 25.2606 20.0814 25.2606H20.0821C21.0513 25.2606 21.8399 24.472 21.8399 23.5028V18.8773C21.8399 18.1134 21.35 17.4617 20.6676 17.2198V16.1044C22.0036 15.8325 23.0121 14.6495 23.0121 13.2357V9.48616C23.0121 9.16249 22.7498 8.90022 22.4261 8.90022C22.1025 8.90022 21.8402 9.16249 21.8402 9.48616V13.2357C21.8402 13.9987 21.35 14.6497 20.6676 14.8912V9.48616C20.6676 9.16249 20.4054 8.90022 20.0817 8.90022C19.758 8.90022 19.4957 9.16249 19.4957 9.48616V14.8912C18.8133 14.6497 18.3232 13.9987 18.3232 13.2357V9.48616C18.3232 9.16249 18.0609 8.90022 17.7373 8.90022ZM20.6679 23.5029C20.6679 23.826 20.4051 24.0888 20.082 24.0888H20.0813C19.7582 24.0888 19.4954 23.826 19.4954 23.5029V18.8773C19.4954 18.5542 19.7582 18.2914 20.082 18.2914C20.4051 18.2914 20.6679 18.5542 20.6679 18.8773V23.5029Z" fill="black"/>
<path d="M28.7178 17.7243C29.0414 17.7243 29.3037 17.462 29.3037 17.1384V9.48608C29.3037 9.16241 29.0414 8.90015 28.7178 8.90015C26.6711 8.90015 25.006 10.5636 25.006 12.6083V17.1384C25.006 17.462 25.2682 17.7243 25.5919 17.7243H26.5689V18.7809C25.8867 19.0226 25.3967 19.6744 25.3967 20.4384V23.5028C25.3967 24.472 26.1853 25.2606 27.1545 25.2606H27.1551C28.1243 25.2606 28.9129 24.472 28.9129 23.5028V20.4384C28.9129 19.6744 28.4231 19.0228 27.7407 18.7809V17.7242H28.7178V17.7243ZM27.7411 23.5029C27.7411 23.826 27.4782 24.0888 27.1551 24.0888H27.1545C26.8314 24.0888 26.5686 23.826 26.5686 23.5029V20.4384C26.5686 20.1153 26.8314 19.8525 27.1551 19.8525C27.4782 19.8525 27.7411 20.1153 27.7411 20.4384V23.5029ZM26.1779 12.6084C26.1779 11.4112 27.0129 10.4051 28.1318 10.1402V16.5525H26.1779V12.6084Z" fill="black"/>
</g>
<defs>
<clipPath id="clip0">
<rect width="40" height="40" fill="white"/>
</clipPath>
</defs>
</svg>
