<svg width="40" height="40" viewBox="0 0 40 40" fill="none" xmlns="http://www.w3.org/2000/svg">
<path d="M34.4965 10.3975C33.0874 5.84373 29.383 2.13818 24.8292 0.728888C20.0095 -0.764081 14.8816 0.0656846 10.9674 2.94975C7.0821 5.81389 4.7628 10.402 4.7628 15.2226C4.7628 18.5482 5.81483 21.7076 7.80444 24.3589L20.0017 40L32.199 24.3577C35.1765 20.3877 36.0145 15.2994 34.4965 10.3975ZM20.0017 23.4281C15.4776 23.4281 11.7962 19.7466 11.7962 15.2226C11.7962 10.6985 15.4776 7.01701 20.0017 7.01701C24.5258 7.01701 28.2073 10.6985 28.2073 15.2226C28.2073 19.7466 24.5258 23.4281 20.0017 23.4281Z" fill="#202020"/>
<path d="M20.0016 9.37695C16.77 9.37695 14.1405 11.9908 14.1405 15.2224C14.1405 18.4541 16.77 21.0835 20.0016 21.0835C23.2332 21.0835 25.8627 18.4541 25.8627 15.2224C25.8627 11.9908 23.2332 9.37695 20.0016 9.37695Z" fill="#44C373"/>
</svg>
