<svg width="15" height="16" viewBox="0 0 15 16" fill="none" xmlns="http://www.w3.org/2000/svg">
<g clip-path="url(#clip0)">
<path d="M3.65749 13.149L2.40758 11.8991C2.28556 11.7771 2.08776 11.7771 1.96572 11.8991L0.0908626 13.774C-0.0307983 13.8964 -0.0302124 14.0942 0.0921808 14.2159C0.126924 14.2504 0.169284 14.2763 0.215863 14.2914L2.09072 14.9164C2.1216 14.9265 2.15382 14.932 2.18634 14.9326C2.26928 14.9328 2.34887 14.9 2.40758 14.8414L3.65749 13.5915C3.77968 13.4696 3.77991 13.2717 3.65805 13.1495C3.65787 13.1494 3.6577 13.1492 3.65749 13.149Z" fill="#44C373"/>
<path d="M8.03229 12.524L3.03268 7.52442C2.91081 7.40223 2.71296 7.40199 2.59077 7.52386C2.53186 7.58262 2.49881 7.66245 2.49896 7.74565V7.93314C2.49591 9.15686 2.07946 10.3437 1.31718 11.301C1.21825 11.4254 1.22845 11.6043 1.34094 11.7166L3.84074 14.2164C3.94623 14.322 4.11169 14.3382 4.23573 14.2552L4.67318 13.9621C5.55762 13.3714 6.59755 13.0566 7.6611 13.0578H7.81108C7.98366 13.0581 8.12381 12.9184 8.12413 12.7458C8.12424 12.6626 8.0912 12.5828 8.03229 12.524Z" fill="#CFD8DC"/>
<path d="M14.5379 1.99933L13.5568 1.01816C13.0127 0.466691 12.1455 0.40031 11.5238 0.862551L2.62384 7.49455C2.48537 7.59752 2.45657 7.79327 2.55954 7.93174C2.56865 7.94402 2.57867 7.95559 2.58948 7.96637L7.58912 12.966C7.64782 13.0246 7.72742 13.0574 7.81035 13.0573H7.83285C7.92343 13.0507 8.00671 13.0051 8.06097 12.9323L14.6917 4.03291C15.1554 3.41175 15.0897 2.54374 14.5379 1.99933Z" fill="#44C373"/>
</g>
<defs>
<clipPath id="clip0">
<rect width="15" height="15" fill="white" transform="translate(0 0.244141)"/>
</clipPath>
</defs>
</svg>
