<svg width="40" height="41" viewBox="0 0 40 41" fill="none" xmlns="http://www.w3.org/2000/svg">
<path d="M38.4373 31.6732H9.32539V29.5534H33.8688C34.7319 29.5534 35.4313 28.8537 35.4313 27.9909V14.938C35.4313 14.2135 34.9336 13.5842 34.2286 13.4173L9.32539 7.52555V5.63652C9.32539 5.04295 8.98878 4.50065 8.45717 4.23698L2.25691 1.16172C1.4836 0.777811 0.546098 1.09397 0.162797 1.86698C-0.220503 2.63999 0.0953535 3.5778 0.868364 3.9611L6.20039 6.60575V33.2357C6.20039 34.0987 6.89986 34.7982 7.76289 34.7982H11.1018C10.9331 35.2801 10.84 35.7973 10.84 36.336C10.84 38.9068 12.9317 40.9985 15.5025 40.9985C18.0736 40.9985 20.1652 38.9068 20.1652 36.336C20.1652 35.7973 20.0722 35.2801 19.9034 34.7982H27.9283C27.7595 35.2801 27.6665 35.7973 27.6665 36.336C27.6665 38.9068 29.7581 40.9985 32.3292 40.9985C34.9 40.9985 36.9917 38.9068 36.9917 36.336C36.9917 35.7973 36.8986 35.2801 36.7299 34.7982H38.4373C39.3004 34.7982 39.9998 34.0987 39.9998 33.2357C39.9998 32.373 39.3004 31.6732 38.4373 31.6732ZM9.32539 10.7369L32.3063 16.1739V26.4284H9.32539V10.7369ZM15.5025 37.8735C14.6547 37.8735 13.965 37.1838 13.965 36.336C13.965 35.4882 14.6547 34.7982 15.5025 34.7982C16.3505 34.7982 17.0402 35.4882 17.0402 36.336C17.0402 37.1838 16.3505 37.8735 15.5025 37.8735ZM32.3292 37.8735C31.4812 37.8735 30.7915 37.1838 30.7915 36.336C30.7915 35.4882 31.4812 34.7982 32.3292 34.7982C33.177 34.7982 33.8667 35.4882 33.8667 36.336C33.8667 37.1838 33.177 37.8735 32.3292 37.8735Z" fill="#C4C4C4"/>
</svg>
