<svg width="218" height="212" viewBox="0 0 218 212" fill="none" xmlns="http://www.w3.org/2000/svg">
<g clip-path="url(#clip0)">
<path d="M25.05 50.66L10.85 49.66L46.32 27.18C106.16 -22.74 198.53 10.69 212.32 87.31C217.271 113.977 211.426 141.52 196.071 163.878C180.715 186.236 157.107 201.578 130.44 206.53C74 217.07 19.37 178.53 10.59 121.66C6.93488 99.1081 11.0946 75.9842 22.38 56.12C23.26 54.58 23.95 52.95 25.05 50.66ZM28.47 52.32C28.47 52.32 25.31 56.32 24.69 57.52C14.69 76.52 10.46 96.62 13.03 118.2C19.42 172.02 70.6 214.92 130.81 203.57C185.17 193.32 219.63 141.37 209.48 86.66C195.82 13.02 104.98 -19.09 48.02 29.66C45.6164 31.8486 43.8447 34.6426 42.89 37.75L34.62 67.75L28.47 52.32Z" fill="black"/>
<path d="M111.58 211.79C86.3745 211.671 62.0325 202.594 42.9036 186.18C23.7748 169.766 11.1056 147.085 7.16003 122.19C3.39224 98.8746 7.68122 74.9711 19.32 54.42L19.66 53.78L-0.0299683 52.3501L44.25 24.3501C73.35 0.180052 112.08 -6.46996 147.92 6.56004C183.76 19.59 209.08 49.5601 215.77 86.7001C218.567 101.977 217.973 117.681 214.03 132.703C210.087 147.725 202.891 161.696 192.951 173.63C183.012 185.563 170.571 195.167 156.51 201.761C142.449 208.355 127.111 211.779 111.58 211.79ZM27.58 59.55C17.72 78.43 14.09 97.4801 16.5 117.79C18.1114 130.795 22.3683 143.332 29.0085 154.63C35.6487 165.927 44.5316 175.746 55.11 183.48C76.64 199.28 103.29 205.19 130.11 200.13C182.56 190.24 215.89 140.67 205.99 87.3C199.81 53.97 176.56 27.15 143.8 15.58C111.04 4.01005 76.04 10.2601 50.25 32.3501C48.3766 34.0981 46.9969 36.309 46.25 38.7601L35.25 78.7601L27.58 59.55ZM30.38 47.66L34.02 56.8L39.55 36.7301C39.6967 36.2501 39.8633 35.7767 40.05 35.31L21.7 46.8801L27.91 47.33L29.47 45.33L30.33 47.4901H30.44L30.38 47.66Z" fill="black"/>
<path d="M37.04 161.57L112.64 10.47L187.93 161.57H37.04ZM112.68 17.27L41.82 158.38H183.32L112.68 17.27Z" fill="black"/>
<path d="M193.59 165.07H31.37L112.64 2.64001L193.59 165.07ZM47.49 154.88H177.61L112.68 25.08L47.49 154.88Z" fill="black"/>
<path d="M109.22 99.45C97.32 89.1 95.42 76.17 98.32 61.93C98.7344 60.1722 99.373 58.475 100.22 56.88C102.85 51.58 106.99 47.94 113.08 48.21C119.41 48.49 123.42 52.59 125.28 58.41C130.01 73.22 127.14 86.26 114.59 97.83C115.67 98.3633 116.709 98.9749 117.7 99.66C129.92 109.56 132.23 122.56 128.85 137.01C126.64 146.43 119 152.43 111.2 151.69C102.79 150.9 96.67 144.09 95.42 134.35C93.76 121.44 96.64 110.23 107.14 101.71C107.878 100.999 108.573 100.245 109.22 99.45V99.45ZM111.04 101.02C99.6699 109.02 95.04 124.02 99.71 137.78C102 144.6 106.66 148.47 112.56 148.43C118.31 148.43 123.22 144.29 125.4 137.69C130.2 123.21 124.87 109.6 111.04 101.02ZM113.39 96.02C123.15 87.9 127.02 74.11 123.25 61.42C121.43 55.27 117.58 51.62 112.8 51.5C107.8 51.37 103.57 54.97 101.46 61.11C99.3394 67.4269 99.3589 74.2665 101.515 80.5713C103.672 86.8761 107.845 92.2949 113.39 95.99V96.02Z" fill="black"/>
<path d="M112.55 155.21C111.997 155.21 111.437 155.183 110.87 155.13C100.87 154.18 93.41 146.18 91.94 134.75C90.01 119.7 94.02 108.17 104.22 99.54C94.7 89.76 91.64 77.19 94.85 61.24C95.3237 59.1499 96.0737 57.1321 97.08 55.24C100.68 47.99 106.27 44.33 113.23 44.63C120.54 44.95 126.15 49.55 128.61 57.26C133.43 72.36 130.61 85.74 120.19 97.09C132.19 106.97 136.26 120.64 132.26 137.72C129.83 148.13 121.7 155.21 112.55 155.21ZM111.2 105.31C102.41 112.73 99.12 125.03 103.03 136.65C104.03 139.74 106.68 144.92 112.49 144.92H112.54C116.73 144.92 120.38 141.7 122.08 136.58C126.13 124.34 122.17 113.06 111.2 105.32V105.31ZM112.56 54.97C109.24 54.97 106.34 57.67 104.77 62.22C103.018 67.3638 102.883 72.921 104.385 78.1435C105.887 83.3659 108.953 88.0029 113.17 91.43C120.28 84.11 122.99 72.79 119.9 62.43C119.25 60.24 117.25 55.13 112.72 55.02H112.56V54.97Z" fill="black"/>
</g>
<defs>
<clipPath id="clip0">
<rect width="217.53" height="211.79" fill="white"/>
</clipPath>
</defs>
</svg>
