<?xml version="1.0" encoding="UTF-8"?>
<svg xmlns="http://www.w3.org/2000/svg" xmlns:xlink="http://www.w3.org/1999/xlink" width="20pt" height="20pt" viewBox="0 0 20 20" version="1.1">
<defs>
<clipPath id="clip1">
  <path d="M 0.832031 0 L 19.785156 0 L 19.785156 19.808594 L 0.832031 19.808594 Z M 0.832031 0 "/>
</clipPath>
<clipPath id="clip2">
  <path d="M 0 0 L 19.785156 0 L 19.785156 19.808594 L 0 19.808594 Z M 0 0 "/>
</clipPath>
</defs>
<g id="surface1">
<g clip-path="url(#clip1)" clip-rule="nonzero">
<path style=" stroke:none;fill-rule:nonzero;fill:rgb(0%,0%,0%);fill-opacity:1;" d="M 2.277344 4.738281 L 0.988281 4.644531 L 4.210938 2.542969 C 9.65625 -2.128906 18.058594 1 19.3125 8.167969 C 19.757812 10.660156 19.230469 13.238281 17.835938 15.324219 C 16.433594 17.414062 14.285156 18.855469 11.863281 19.316406 C 6.730469 20.300781 1.761719 16.695312 0.964844 11.378906 C 0.628906 9.269531 1.007812 7.105469 2.035156 5.25 C 2.117188 5.105469 2.175781 4.953125 2.277344 4.738281 Z M 2.589844 4.894531 C 2.589844 4.894531 2.304688 5.265625 2.246094 5.378906 C 1.339844 7.15625 0.953125 9.035156 1.183594 11.054688 C 1.769531 16.089844 6.421875 20.101562 11.898438 19.039062 C 16.839844 18.078125 19.976562 13.21875 19.050781 8.105469 C 17.808594 1.21875 9.546875 -1.785156 4.367188 2.773438 C 4.148438 2.980469 3.988281 3.238281 3.898438 3.527344 L 3.148438 6.339844 Z M 2.589844 4.894531 "/>
</g>
<g clip-path="url(#clip2)" clip-rule="nonzero">
<path style=" stroke:none;fill-rule:nonzero;fill:rgb(0%,0%,0%);fill-opacity:1;" d="M 10.148438 19.808594 C 7.855469 19.796875 5.640625 18.949219 3.902344 17.410156 C 2.160156 15.878906 1.007812 13.757812 0.652344 11.429688 C 0.308594 9.246094 0.695312 7.011719 1.757812 5.089844 L 1.785156 5.03125 L -0.00390625 4.894531 L 4.023438 2.277344 C 6.667969 0.015625 10.191406 -0.605469 13.453125 0.613281 C 16.710938 1.832031 19.015625 4.632812 19.625 8.109375 C 19.878906 9.539062 19.824219 11.003906 19.464844 12.410156 C 19.109375 13.816406 18.453125 15.125 17.550781 16.238281 C 16.644531 17.355469 15.515625 18.253906 14.234375 18.871094 C 12.957031 19.488281 11.558594 19.808594 10.148438 19.808594 Z M 2.511719 5.570312 C 1.613281 7.332031 1.28125 9.113281 1.5 11.015625 C 1.648438 12.234375 2.035156 13.40625 2.636719 14.464844 C 3.242188 15.519531 4.050781 16.433594 5.011719 17.160156 C 6.96875 18.640625 9.394531 19.191406 11.832031 18.71875 C 16.605469 17.792969 19.636719 13.15625 18.738281 8.167969 C 18.175781 5.050781 16.058594 2.539062 13.078125 1.457031 C 10.097656 0.375 6.917969 0.960938 4.570312 3.023438 C 4.402344 3.191406 4.273438 3.394531 4.207031 3.625 L 3.207031 7.363281 Z M 2.761719 4.460938 L 3.097656 5.3125 L 3.597656 3.433594 C 3.609375 3.390625 3.625 3.347656 3.644531 3.304688 L 1.972656 4.386719 L 2.539062 4.425781 L 2.679688 4.238281 L 2.757812 4.441406 L 2.765625 4.441406 Z M 2.761719 4.460938 "/>
</g>
<path style=" stroke:none;fill-rule:nonzero;fill:rgb(0%,0%,0%);fill-opacity:1;" d="M 3.367188 15.109375 L 10.246094 0.980469 L 17.09375 15.109375 Z M 10.246094 1.617188 L 3.804688 14.816406 L 16.671875 14.816406 Z M 10.246094 1.617188 "/>
<path style=" stroke:none;fill-rule:nonzero;fill:rgb(0%,0%,0%);fill-opacity:1;" d="M 17.605469 15.441406 L 2.851562 15.441406 L 10.246094 0.246094 Z M 4.320312 14.484375 L 16.152344 14.484375 L 10.246094 2.347656 Z M 4.320312 14.484375 "/>
<path style=" stroke:none;fill-rule:nonzero;fill:rgb(0%,0%,0%);fill-opacity:1;" d="M 9.933594 9.300781 C 8.855469 8.332031 8.679688 7.125 8.945312 5.792969 C 8.980469 5.628906 9.039062 5.46875 9.113281 5.320312 C 9.355469 4.824219 9.734375 4.480469 10.285156 4.507812 C 10.859375 4.535156 11.222656 4.917969 11.394531 5.460938 C 11.824219 6.847656 11.5625 8.070312 10.421875 9.152344 C 10.519531 9.199219 10.613281 9.257812 10.707031 9.320312 C 11.816406 10.246094 12.023438 11.460938 11.71875 12.8125 C 11.515625 13.695312 10.824219 14.257812 10.113281 14.1875 C 9.347656 14.113281 8.792969 13.476562 8.679688 12.566406 C 8.527344 11.355469 8.789062 10.308594 9.746094 9.511719 C 9.8125 9.445312 9.871094 9.375 9.933594 9.300781 Z M 10.097656 9.449219 C 9.066406 10.195312 8.644531 11.597656 9.070312 12.886719 C 9.277344 13.523438 9.699219 13.886719 10.238281 13.878906 C 10.757812 13.878906 11.207031 13.492188 11.40625 12.878906 C 11.84375 11.523438 11.355469 10.25 10.097656 9.449219 Z M 10.316406 8.980469 C 11.199219 8.21875 11.550781 6.929688 11.210938 5.746094 C 11.042969 5.167969 10.695312 4.828125 10.261719 4.816406 C 9.804688 4.804688 9.417969 5.144531 9.226562 5.714844 C 9.035156 6.308594 9.039062 6.945312 9.234375 7.535156 C 9.429688 8.125 9.808594 8.628906 10.316406 8.976562 Z M 10.316406 8.980469 "/>
<path style=" stroke:none;fill-rule:nonzero;fill:rgb(0%,0%,0%);fill-opacity:1;" d="M 10.238281 14.519531 C 10.183594 14.519531 10.136719 14.515625 10.085938 14.511719 C 9.171875 14.421875 8.496094 13.671875 8.363281 12.601562 C 8.1875 11.195312 8.550781 10.117188 9.480469 9.308594 C 8.613281 8.394531 8.332031 7.21875 8.625 5.730469 C 8.671875 5.535156 8.738281 5.34375 8.828125 5.167969 C 9.15625 4.488281 9.664062 4.144531 10.296875 4.175781 C 10.964844 4.203125 11.472656 4.632812 11.699219 5.355469 C 12.136719 6.769531 11.882812 8.019531 10.929688 9.082031 C 12.019531 10.003906 12.394531 11.285156 12.027344 12.878906 C 11.808594 13.855469 11.066406 14.519531 10.238281 14.519531 Z M 10.113281 9.851562 C 9.3125 10.542969 9.011719 11.695312 9.371094 12.78125 C 9.464844 13.070312 9.699219 13.554688 10.230469 13.554688 L 10.238281 13.554688 C 10.617188 13.554688 10.949219 13.253906 11.105469 12.773438 C 11.472656 11.628906 11.113281 10.574219 10.113281 9.851562 Z M 10.238281 5.144531 C 9.933594 5.144531 9.671875 5.394531 9.53125 5.820312 C 9.367188 6.300781 9.359375 6.820312 9.492188 7.308594 C 9.632812 7.796875 9.910156 8.230469 10.292969 8.550781 C 10.941406 7.867188 11.1875 6.808594 10.90625 5.839844 C 10.847656 5.636719 10.664062 5.15625 10.25 5.144531 Z M 10.238281 5.144531 "/>
</g>
</svg>
