<svg width="19" height="19" viewBox="0 0 19 19" fill="none" xmlns="http://www.w3.org/2000/svg">
<path d="M11.2409 9.50014L18.6393 2.10154C19.1208 1.6203 19.1208 0.842184 18.6393 0.360936C18.1581 -0.120312 17.38 -0.120312 16.8987 0.360936L9.5001 7.75953L2.10172 0.360936C1.62024 -0.120312 0.842354 -0.120312 0.361106 0.360936C-0.120369 0.842184 -0.120369 1.6203 0.361106 2.10154L7.75949 9.50014L0.361106 16.8987C-0.120369 17.38 -0.120369 18.1581 0.361106 18.6393C0.600941 18.8794 0.916289 19 1.23141 19C1.54653 19 1.86166 18.8794 2.10172 18.6393L9.5001 11.2407L16.8987 18.6393C17.1388 18.8794 17.4539 19 17.769 19C18.0841 19 18.3993 18.8794 18.6393 18.6393C19.1208 18.1581 19.1208 17.38 18.6393 16.8987L11.2409 9.50014Z" fill="#202020"/>
</svg>
