<svg width="21" height="19" viewBox="0 0 21 19" fill="none" xmlns="http://www.w3.org/2000/svg">
<path fill-rule="evenodd" clip-rule="evenodd" d="M21 1.5C21 2.32843 20.3284 3 19.5 3H1.5C0.671573 3 0 2.32843 0 1.5C0 0.671573 0.671573 0 1.5 0H19.5C20.3284 0 21 0.671573 21 1.5Z" fill="#202020"/>
<path fill-rule="evenodd" clip-rule="evenodd" d="M15.25 9.5C15.25 10.3284 14.5784 11 13.75 11H1.5C0.671573 11 0 10.3284 0 9.5C0 8.67157 0.671573 8 1.5 8H13.75C14.5784 8 15.25 8.67157 15.25 9.5Z" fill="#202020"/>
<path fill-rule="evenodd" clip-rule="evenodd" d="M21 17.5C21 18.3284 20.3284 19 19.5 19H1.5C0.671573 19 0 18.3284 0 17.5C0 16.6716 0.671573 16 1.5 16H19.5C20.3284 16 21 16.6716 21 17.5Z" fill="#202020"/>
</svg>
