<svg width="18" height="18" viewBox="0 0 18 18" fill="none" xmlns="http://www.w3.org/2000/svg">
<path d="M8.95165 5.20255C7.05153 5.20255 5.51803 6.73605 5.51803 8.63617C5.51803 10.5363 7.05153 12.0698 8.95165 12.0698C10.8518 12.0698 12.3853 10.5363 12.3853 8.63617C12.3853 6.73605 10.8518 5.20255 8.95165 5.20255ZM8.95165 10.8678C7.72285 10.8678 6.72005 9.86498 6.72005 8.63617C6.72005 7.40737 7.72285 6.40457 8.95165 6.40457C10.1805 6.40457 11.1833 7.40737 11.1833 8.63617C11.1833 9.86498 10.1805 10.8678 8.95165 10.8678ZM12.5259 4.2617C12.0823 4.2617 11.724 4.61996 11.724 5.0636C11.724 5.50724 12.0823 5.8655 12.5259 5.8655C12.9695 5.8655 13.3278 5.50892 13.3278 5.0636C13.3279 4.95826 13.3073 4.85392 13.267 4.75657C13.2268 4.65922 13.1677 4.57076 13.0932 4.49627C13.0187 4.42178 12.9303 4.36272 12.8329 4.32247C12.7356 4.28222 12.6312 4.26156 12.5259 4.2617ZM15.6448 8.63617C15.6448 7.71206 15.6532 6.79632 15.6013 5.87387C15.5494 4.80244 15.3049 3.85154 14.5215 3.06805C13.7363 2.28288 12.7871 2.04014 11.7156 1.98824C10.7915 1.93634 9.87577 1.94471 8.95333 1.94471C8.02921 1.94471 7.11347 1.93634 6.19103 1.98824C5.11959 2.04014 4.16869 2.28456 3.3852 3.06805C2.60004 3.85321 2.35729 4.80244 2.30539 5.87387C2.2535 6.79799 2.26187 7.71373 2.26187 8.63617C2.26187 9.55862 2.2535 10.476 2.30539 11.3985C2.35729 12.4699 2.60171 13.4208 3.3852 14.2043C4.17036 14.9895 5.11959 15.2322 6.19103 15.2841C7.11514 15.336 8.03089 15.3276 8.95333 15.3276C9.87744 15.3276 10.7932 15.336 11.7156 15.2841C12.7871 15.2322 13.738 14.9878 14.5215 14.2043C15.3066 13.4191 15.5494 12.4699 15.6013 11.3985C15.6548 10.476 15.6448 9.56029 15.6448 8.63617ZM14.1716 12.5838C14.0494 12.8884 13.902 13.1161 13.666 13.3505C13.4299 13.5866 13.2039 13.7339 12.8992 13.8561C12.0186 14.206 9.92766 14.1273 8.95165 14.1273C7.97564 14.1273 5.88299 14.206 5.0024 13.8578C4.69771 13.7355 4.47003 13.5882 4.23565 13.3522C3.9996 13.1161 3.85228 12.8901 3.73007 12.5854C3.38185 11.7032 3.46054 9.61219 3.46054 8.63617C3.46054 7.66016 3.38185 5.56751 3.73007 4.68692C3.85228 4.38223 3.9996 4.15455 4.23565 3.92017C4.47171 3.6858 4.69771 3.5368 5.0024 3.41459C5.88299 3.06637 7.97564 3.14506 8.95165 3.14506C9.92766 3.14506 12.0203 3.06637 12.9009 3.41459C13.2056 3.5368 13.4333 3.68412 13.6677 3.92017C13.9037 4.15623 14.051 4.38223 14.1732 4.68692C14.5215 5.56751 14.4428 7.66016 14.4428 8.63617C14.4428 9.61219 14.5215 11.7032 14.1716 12.5838Z" fill="black"/>
</svg>
