<svg width="14" height="14" viewBox="0 0 14 14" fill="none" xmlns="http://www.w3.org/2000/svg">
<path d="M1.12347 9.1894C1.98061 9.1894 2.82221 9.05534 3.61974 8.79178C4.01054 8.65849 4.49095 8.78077 4.72946 9.02573L6.30362 10.2141C8.1292 9.23956 9.25372 8.11541 10.2149 6.30354L9.06155 4.77039C8.7619 4.47114 8.65442 4.03401 8.78319 3.62385C9.04788 2.82213 9.18233 1.98093 9.18233 1.12343C9.1823 0.503964 9.68626 0 10.3057 0H12.8767C13.4962 0 14.0001 0.503964 14.0001 1.12339C14.0001 8.22365 8.22374 14 1.12347 14C0.504047 14 8.29697e-05 13.496 8.29697e-05 12.8766V10.3127C0.000119209 9.69336 0.504084 9.1894 1.12347 9.1894Z" fill="#44C373"/>
</svg>
