<svg width="20" height="20" viewBox="0 0 39 39" fill="none" xmlns="http://www.w3.org/2000/svg">
<rect width="39" height="39" rx="19.5" fill="white"/>
<g clip-path="url(#clip0)">
<path d="M7.74261 31.1774C8.76782 31.6842 9.83718 32.0961 10.9377 32.4078C12.0395 32.7201 13.171 32.9153 14.3137 32.9898C14.899 33.0245 15.4856 33.0259 16.0711 32.9939C16.6564 32.9619 17.2396 32.8969 17.8178 32.7992C19.8908 32.4331 21.8852 31.7123 23.7132 30.668C25.5424 29.6261 27.2416 28.3712 28.7757 26.9299C29.5296 26.2402 30.2294 25.4932 30.8682 24.6958C31.5081 23.8982 32.0534 23.0292 32.4936 22.1061C32.9582 21.1198 33.1079 20.0142 32.9228 18.9396C32.7446 17.9176 32.316 16.9555 31.6757 16.1393C31.4891 15.8996 31.2862 15.6732 31.068 15.4619C30.8542 15.2546 30.6253 15.063 30.3837 14.8892C30.9059 13.901 31.2807 12.8419 31.4966 11.7454C31.61 11.1015 31.6045 10.4423 31.4805 9.80056C31.3278 9.04457 31.0098 8.33188 30.5492 7.71332C30.0398 7.07656 29.3941 6.56217 28.6596 6.20823C28.5519 6.15426 28.4377 6.11431 28.3197 6.08962C28.2024 6.06473 28.0819 6.05783 27.9624 6.06871C27.6794 6.08565 27.4039 6.16744 27.1575 6.30759C26.9621 6.43018 26.8328 6.63455 26.8054 6.8634C26.7711 7.09057 26.8186 7.32235 26.9395 7.51752C27.06 7.7152 27.2365 7.87251 27.4468 7.96957C27.7235 8.09843 27.9877 8.25322 28.2356 8.43187C28.4716 8.60235 28.6872 8.79961 28.878 9.01968C29.0845 9.32446 29.2205 9.67129 29.2759 10.0351C29.3322 10.3988 29.3405 10.7683 29.301 11.1341C29.279 11.3701 29.2445 11.6044 29.1974 11.8366C29.151 12.0694 29.0941 12.3005 29.0314 12.5283C28.9964 12.6584 28.9594 12.7875 28.9205 12.9164C28.8816 13.0454 28.8408 13.1743 28.7989 13.3044C28.7874 13.3322 28.7374 13.5019 28.6845 13.6646C28.6594 13.7776 28.6147 13.8851 28.5527 13.983C28.0007 13.728 27.4139 13.5563 26.8117 13.4734C26.2092 13.3933 25.5967 13.437 25.0117 13.6019C24.9232 13.6274 24.8315 13.6529 24.738 13.6803C24.6443 13.7075 24.5491 13.7366 24.454 13.7692C24.3632 13.797 24.2726 13.8284 24.1862 13.8638C24.1021 13.8975 24.0207 13.9374 23.9427 13.983C21.9912 15.1848 20.3991 16.89 19.334 18.9194C18.137 21.0909 17.3208 23.4511 16.9208 25.8982C15.8983 26.2699 14.9174 26.7471 13.9937 27.3221C13.1925 27.8076 12.5273 28.4881 12.06 29.2999C11.2383 29.2177 10.4122 29.1889 9.58699 29.2133C8.91112 29.2219 8.24235 29.352 7.6125 29.5974C7.21755 29.8275 6.96904 30.0691 6.95963 30.33C6.95042 30.5906 7.18032 30.8707 7.74261 31.1774Z" fill="#C03A2B"/>
<path d="M24.4552 28.3433C24.5518 28.3433 24.6462 28.313 24.7248 28.2569C25.5779 27.6473 26.3962 26.9905 27.1761 26.2897C27.8626 25.6724 28.4163 25.1122 28.8309 24.6658C28.947 24.5447 28.9889 24.3707 28.9403 24.21C28.8918 24.0496 28.7606 23.9276 28.5969 23.891C28.4333 23.8542 28.2626 23.9088 28.1502 24.0332C27.7501 24.4638 27.2156 25.0045 26.5527 25.6003C25.7994 26.2772 25.0089 26.9116 24.1847 27.5003C24.0201 27.6176 23.9504 27.8281 24.0121 28.0205C24.0739 28.213 24.2531 28.3435 24.4552 28.3433Z" fill="#802F34"/>
<path d="M18.6485 31.094C18.6673 31.094 18.6861 31.093 18.7047 31.0907C18.7238 31.0884 18.7428 31.085 18.7612 31.0802C19.325 30.9392 19.8803 30.7669 20.4249 30.5642C20.9886 30.3544 21.5411 30.1157 22.0803 29.8488C22.2314 29.7766 22.332 29.6287 22.3435 29.4616C22.355 29.2946 22.2759 29.1342 22.1362 29.0417C21.9965 28.9495 21.8178 28.9394 21.6687 29.0156C21.1593 29.2677 20.6374 29.4934 20.1048 29.6915C19.5915 29.8829 19.0679 30.0454 18.5365 30.1784C18.3092 30.2355 18.1598 30.4529 18.1882 30.6857C18.2167 30.9183 18.414 31.0934 18.6485 31.094Z" fill="#802F34"/>
<path d="M24.5505 18.1148C25.4416 18.0594 26.293 17.7264 26.9852 17.1622C27.4745 16.7595 27.736 16.3834 28.0554 16.3669C28.7802 17.8285 29.6946 19.2854 30.4232 19.6199C31.1516 19.9546 31.6942 19.1668 31.6756 16.1393V16.1345C31.4879 15.896 31.2844 15.6705 31.0662 15.4596C30.8526 15.2532 30.6246 15.0626 30.3836 14.8892C30.9058 13.901 31.2806 12.8419 31.4965 11.7454C31.6099 11.1015 31.6044 10.4423 31.4804 9.80056C31.3277 9.04457 31.0097 8.33188 30.5491 7.71332C30.0397 7.07656 29.394 6.56217 28.6595 6.20823C28.5518 6.15426 28.4376 6.11431 28.3196 6.08962C28.2023 6.06473 28.0818 6.05783 27.9623 6.06871C27.6793 6.08565 27.4038 6.16744 27.1574 6.30759C26.962 6.43018 26.8327 6.63455 26.8053 6.8634C26.771 7.09057 26.8185 7.32235 26.9394 7.51752C27.0599 7.7152 27.2364 7.87251 27.4467 7.96957C27.7234 8.09843 27.9876 8.25322 28.2355 8.43187C28.4715 8.60235 28.6871 8.79961 28.8779 9.01968C29.0844 9.32446 29.2204 9.67129 29.2758 10.0351C29.3321 10.3988 29.3404 10.7683 29.3009 11.1341C29.2789 11.3701 29.2444 11.6044 29.1973 11.8366C29.1509 12.0694 29.094 12.3005 29.0313 12.5283C28.9963 12.6584 28.9593 12.7875 28.9204 12.9164C28.8815 13.0454 28.8407 13.1743 28.7988 13.3044C28.7873 13.3322 28.7373 13.5019 28.6844 13.6646C28.6593 13.7776 28.6146 13.8851 28.5526 13.983C28.0006 13.728 27.4138 13.5563 26.8116 13.4734C26.2091 13.3933 25.5966 13.437 25.0116 13.6019C24.9231 13.6274 24.8325 13.6529 24.7402 13.6803C24.6478 13.7075 24.5537 13.7366 24.4585 13.7692C24.8097 14.2763 24.9691 14.8917 24.9086 15.5055C24.8128 16.1912 24.5398 16.8403 24.1169 17.3883C24.0098 17.5356 24.0024 17.7331 24.0983 17.8881C24.1918 18.0456 24.3685 18.1341 24.5505 18.1148Z" fill="#24AE5F"/>
<path d="M7.54279 29.6392C8.5839 30.0812 9.70199 30.3132 10.8331 30.3218C13.141 30.3492 15.4383 30.0043 17.6364 29.2999C20.9917 28.3124 23.4256 25.7321 25.115 23.0903C26.4006 21.0376 27.4126 18.8259 28.1251 16.511C28.1134 16.4855 28.1019 16.461 28.0902 16.4372C28.0787 16.4133 28.067 16.3901 28.0555 16.3669C27.744 16.3832 27.4873 16.7422 27.0202 17.1331C26.3694 17.6778 25.5685 18.0119 24.7234 18.091C24.6955 18.0956 24.6677 18.1004 24.6393 18.1044C24.6108 18.1083 24.5817 18.1119 24.5514 18.1142C24.3692 18.1351 24.1916 18.0473 24.0979 17.8893C24.0023 17.7345 24.009 17.5375 24.1146 17.3894C24.5386 16.8413 24.8125 16.1922 24.9087 15.5061C24.9691 14.8919 24.8097 14.2765 24.4585 13.7692H24.4539C24.3631 13.797 24.2726 13.8284 24.1862 13.8638C24.1021 13.8975 24.0207 13.9374 23.9427 13.983C22.466 14.8643 21.2013 16.0598 20.2382 17.4846C19.1791 19.0212 18.3482 20.7031 17.7713 22.478C17.5853 23.038 17.4203 23.6059 17.278 24.1776C17.1356 24.7493 17.0161 25.3244 16.9208 25.8982C15.8983 26.2699 14.9174 26.7471 13.9936 27.3221C13.1925 27.8076 12.5272 28.4881 12.0599 29.2999C11.2382 29.2177 10.4122 29.1889 9.58694 29.2133C8.91107 29.2219 8.2423 29.352 7.61245 29.5974L7.57772 29.6183L7.54279 29.6392Z" fill="#E64C3C"/>
</g>
<defs>
<clipPath id="clip0">
<rect width="27" height="27" fill="white" transform="matrix(-1 0 0 1 33 6)"/>
</clipPath>
</defs>
</svg>
