<svg width="120" height="120" viewBox="0 0 120 120" fill="none" xmlns="http://www.w3.org/2000/svg">
<path d="M93.75 73.125L106.506 85.8811C107.812 87.1869 108.848 88.7372 109.555 90.4434C110.261 92.1495 110.625 93.9782 110.625 95.8249V107.344C110.625 109.209 109.884 110.997 108.566 112.316C107.247 113.634 105.459 114.375 103.594 114.375H97.5V101.25H93.75V73.125Z" fill="#44C373"/>
<path d="M28.125 108.75V71.25L48.75 58.125H71.25L91.875 71.25V108.75H28.125Z" fill="#44C373"/>
<path d="M71.25 58.125L60 69.375L48.75 58.125L50.625 50.625H69.375L71.25 58.125Z" fill="#FFD4CF"/>
<path d="M70.0865 53.4708L69.3751 50.625H50.6251L49.9019 53.5184L56.2136 56.6742C57.3916 57.2633 58.6913 57.5683 60.0084 57.565C61.3255 57.5617 62.6236 57.25 63.7987 56.655L70.0865 53.4708Z" fill="#FBB8B0"/>
<path d="M77.8125 28.125H75V20.625H45V28.125H42.1875C40.9443 28.125 39.752 28.6189 38.8729 29.4979C37.9939 30.377 37.5 31.5693 37.5 32.8125V34.6875C37.5 35.9307 37.9939 37.123 38.8729 38.0021C39.752 38.8811 40.9443 39.375 42.1875 39.375H45V42.5295C45 43.8352 45.3636 45.1152 46.05 46.226C46.7365 47.3368 47.7187 48.2345 48.8866 48.8184L57.8906 53.3203C58.5451 53.6476 59.2671 53.8171 59.9988 53.8152C60.7305 53.8134 61.4516 53.6403 62.1045 53.3098L71.1455 48.7315C72.305 48.1443 73.279 47.2472 73.9594 46.1398C74.6399 45.0324 75.0001 43.7582 75 42.4584V39.375H77.8125C79.0557 39.375 80.248 38.8811 81.1271 38.0021C82.0061 37.123 82.5 35.9307 82.5 34.6875V32.8125C82.5 31.5693 82.0061 30.377 81.1271 29.4979C80.248 28.6189 79.0557 28.125 77.8125 28.125Z" fill="#FFD4CF"/>
<path d="M50.625 31.875C50.625 30.8395 51.4645 30 52.5 30C53.5355 30 54.375 30.8395 54.375 31.875C54.375 32.9105 53.5355 33.75 52.5 33.75C51.4645 33.75 50.625 32.9105 50.625 31.875Z" fill="#202020"/>
<path d="M65.625 31.875C65.625 30.8395 66.4645 30 67.5 30C68.5355 30 69.375 30.8395 69.375 31.875C69.375 32.9105 68.5355 33.75 67.5 33.75C66.4645 33.75 65.625 32.9105 65.625 31.875Z" fill="#202020"/>
<path d="M60 46.875C56.8458 46.875 54.375 44.816 54.375 42.1875H58.125C58.125 42.518 58.8368 43.125 60 43.125C61.1632 43.125 61.875 42.518 61.875 42.1875H65.625C65.625 44.816 63.1542 46.875 60 46.875Z" fill="#202020"/>
<path d="M54.8438 5.625H65.1562C68.2643 5.625 71.245 6.85965 73.4427 9.05734C75.6404 11.255 76.875 14.2357 76.875 17.3438V20.625H43.125V17.3438C43.125 14.2357 44.3596 11.255 46.5573 9.05734C48.755 6.85965 51.7357 5.625 54.8438 5.625Z" fill="#44C373"/>
<path d="M69.5873 27.0165L65.2003 24.0917C63.6603 23.065 61.8509 22.5172 60 22.5172C58.1491 22.5172 56.3397 23.065 54.7997 24.0917L50.4127 27.0165C49.7067 27.4871 48.8863 27.7573 48.0388 27.7983C47.1914 27.8392 46.3487 27.6494 45.6007 27.2491C44.8526 26.8487 44.2273 26.2529 43.7913 25.525C43.3553 24.7972 43.125 23.9647 43.125 23.1162V20.6248L50.8943 16.3086C53.6797 14.7612 56.8134 13.9492 59.9998 13.9492C63.1861 13.9492 66.3199 14.7612 69.1052 16.3086L76.875 20.6248V23.1162C76.875 23.9647 76.6447 24.7972 76.2087 25.525C75.7727 26.2529 75.1474 26.8487 74.3993 27.2491C73.6513 27.6494 72.8086 27.8392 71.9612 27.7983C71.1137 27.7573 70.2933 27.4871 69.5873 27.0165Z" fill="#FAC850"/>
<path d="M26.25 65.625H93.75V114.375H26.25V65.625Z" fill="#FAC850"/>
<path d="M30 101.25H22.5V114.375H43.125C43.125 110.894 41.7422 107.556 39.2808 105.094C36.8194 102.633 33.481 101.25 30 101.25Z" fill="#FFD4CF"/>
<path d="M52.5 65.625H67.5V82.5H52.5V65.625Z" fill="#FA7D29"/>
<path d="M52.5 103.125H67.5V114.375H52.5V103.125Z" fill="#FA7D29"/>
<path d="M26.25 73.125L13.4939 85.8811C12.188 87.1869 11.1522 88.7372 10.4455 90.4434C9.73874 92.1495 9.37499 93.9782 9.375 95.8249V107.344C9.375 109.209 10.1158 110.997 11.4344 112.316C12.753 113.634 14.5414 114.375 16.4062 114.375H22.5V101.25H26.25V73.125Z" fill="#44C373"/>
<path d="M90 101.25H97.5V114.375H76.875C76.875 110.894 78.2578 107.556 80.7192 105.094C83.1806 102.633 86.519 101.25 90 101.25Z" fill="#FFD4CF"/>
<path d="M31.875 73.125C31.875 72.0895 32.7145 71.25 33.75 71.25C34.7855 71.25 35.625 72.0895 35.625 73.125C35.625 74.1605 34.7855 75 33.75 75C32.7145 75 31.875 74.1605 31.875 73.125Z" fill="#202020"/>
<path d="M39.375 73.125C39.375 72.0895 40.2145 71.25 41.25 71.25H45C46.0355 71.25 46.875 72.0895 46.875 73.125C46.875 74.1605 46.0355 75 45 75H41.25C40.2145 75 39.375 74.1605 39.375 73.125Z" fill="#202020"/>
<path d="M31.875 80.625C31.875 79.5895 32.7145 78.75 33.75 78.75H45C46.0355 78.75 46.875 79.5895 46.875 80.625C46.875 81.6605 46.0355 82.5 45 82.5H33.75C32.7145 82.5 31.875 81.6605 31.875 80.625Z" fill="#202020"/>
<path d="M79.6875 73.125H86.25V77.8125C86.25 79.0557 85.7561 80.248 84.8771 81.1271C83.998 82.0061 82.8057 82.5 81.5625 82.5H75V77.8125C75 76.5693 75.4939 75.377 76.3729 74.4979C77.252 73.6189 78.4443 73.125 79.6875 73.125Z" fill="#FFFFFE"/>
<path d="M81.5625 84.375H75C74.5027 84.375 74.0258 84.1775 73.6742 83.8258C73.3225 83.4742 73.125 82.9973 73.125 82.5V77.8125C73.127 76.0726 73.819 74.4046 75.0493 73.1743C76.2796 71.944 77.9476 71.252 79.6875 71.25H86.25C86.7473 71.25 87.2242 71.4475 87.5758 71.7992C87.9275 72.1508 88.125 72.6277 88.125 73.125V77.8125C88.123 79.5524 87.431 81.2204 86.2007 82.4507C84.9704 83.681 83.3024 84.373 81.5625 84.375ZM76.875 80.625H81.5625C82.3082 80.6242 83.0231 80.3276 83.5503 79.8003C84.0776 79.2731 84.3742 78.5582 84.375 77.8125V75H79.6875C78.9418 75.0008 78.2269 75.2974 77.6997 75.8247C77.1724 76.3519 76.8758 77.0668 76.875 77.8125V80.625Z" fill="#202020"/>
<path d="M107.832 84.5555L102.027 78.75C101.295 78.0177 100.107 78.0177 99.3751 78.75C98.6428 79.4822 98.6428 80.6695 99.3751 81.4017L105.181 87.207C106.316 88.3361 107.216 89.6791 107.828 91.1584C108.441 92.6377 108.754 94.2238 108.75 95.8249V107.344C108.749 108.711 108.205 110.021 107.238 110.988C106.271 111.955 104.961 112.498 103.594 112.5H99.3751V103.125H101.25C102.286 103.125 103.125 102.286 103.125 101.25C103.125 100.214 102.286 99.375 101.25 99.375H95.6251V65.625C95.6251 65.1277 95.4275 64.6508 95.0759 64.2992C94.7243 63.9475 94.2473 63.75 93.7501 63.75H83.5819L72.8876 56.9445L71.3356 50.7366L71.9919 50.404C73.4638 49.6642 74.7004 48.5289 75.563 47.1254C76.4255 45.7219 76.8799 44.1058 76.8751 42.4584V41.25H77.8126C79.5524 41.248 81.2205 40.556 82.4508 39.3257C83.681 38.0954 84.3731 36.4274 84.3751 34.6875V32.8125C84.3731 31.0972 83.7003 29.4507 82.5006 28.2247C81.3008 26.9988 79.6692 26.2907 77.9544 26.2516C78.4773 25.2894 78.7508 24.2115 78.7501 23.1164V17.3438C78.746 13.7397 77.3125 10.2845 74.764 7.73604C72.2156 5.1876 68.7603 3.75409 65.1563 3.75H54.8438C51.2398 3.75409 47.7845 5.1876 45.2361 7.73604C42.6877 10.2845 41.2542 13.7397 41.2501 17.3438V23.1164C41.2496 24.2116 41.5236 25.2895 42.0469 26.2516C40.3319 26.2904 38.7 26.9984 37.5 28.2243C36.3 29.4503 35.6271 31.097 35.6251 32.8125V34.6875C35.627 36.4274 36.3191 38.0954 37.5494 39.3257C38.7796 40.556 40.4477 41.248 42.1876 41.25H43.1251V42.5295C43.1194 44.1846 43.5777 45.8083 44.4479 47.2163C45.3181 48.6242 46.5654 49.7602 48.0483 50.4954L48.6497 50.7961L47.1125 56.9445L36.4182 63.75H26.2501C25.7528 63.75 25.2759 63.9475 24.9242 64.2992C24.5726 64.6508 24.3751 65.1277 24.3751 65.625V72.3483L18.7501 77.9733C18.0178 78.7055 18.0178 79.8927 18.7501 80.625C19.4823 81.3573 20.6695 81.3573 21.4018 80.625L24.3751 77.6517V99.375H18.7501C17.7145 99.375 16.8751 100.214 16.8751 101.25C16.8751 102.286 17.7145 103.125 18.7501 103.125H20.6251V112.5H16.4063C15.0393 112.498 13.7287 111.955 12.762 110.988C11.7954 110.021 11.2516 108.711 11.2501 107.344V95.8249C11.2457 94.2238 11.5589 92.6377 12.1716 91.1585C12.7843 89.6792 13.6842 88.3361 14.8194 87.207L14.9999 87.0265C15.7321 86.2944 15.7322 85.1073 15.0001 84.375C14.2679 83.6428 13.0808 83.6427 12.3486 84.3748L12.1679 84.5555C10.6833 86.032 9.50638 87.7882 8.70514 89.7226C7.90391 91.657 7.49432 93.7312 7.50006 95.8249V107.344C7.50273 109.705 8.44192 111.969 10.1116 113.638C11.7813 115.308 14.045 116.247 16.4063 116.25H103.594C105.955 116.247 108.219 115.308 109.889 113.638C111.558 111.969 112.497 109.705 112.5 107.344V95.8249C112.506 93.7312 112.096 91.657 111.295 89.7226C110.494 87.7882 109.317 86.032 107.832 84.5555ZM54.3751 67.5H65.6251V80.625H54.3751V67.5ZM68.2768 63.75L71.5123 60.5156L76.5968 63.75H68.2768ZM46.4855 25.5961C46.0338 25.3594 45.6561 25.0027 45.394 24.5652C45.1319 24.1277 44.9956 23.6264 45.0001 23.1164V21.7282L51.8047 17.9477C54.3087 16.5459 57.1304 15.8098 60.0001 15.8098C62.8697 15.8098 65.6915 16.5459 68.1954 17.9477L75.0001 21.7282V23.1164C75 23.6254 74.8618 24.1249 74.6002 24.5616C74.3386 24.9983 73.9634 25.3557 73.5146 25.5959C73.0658 25.8361 72.5602 25.95 72.0518 25.9254C71.5434 25.9009 71.0511 25.7388 70.6276 25.4564L66.2405 22.5319C64.394 21.296 62.222 20.6363 60.0001 20.6363C57.7781 20.6363 55.6062 21.296 53.7596 22.5319L49.3726 25.4564C48.9507 25.743 48.4581 25.9076 47.9487 25.9323C47.4393 25.9569 46.933 25.8406 46.4855 25.5961ZM80.6251 32.8125V34.6875C80.6243 35.4332 80.3277 36.1481 79.8004 36.6753C79.2731 37.2026 78.5582 37.4992 77.8126 37.5H76.8751V30H77.8126C78.5582 30.0008 79.2731 30.2974 79.8004 30.8247C80.3277 31.3519 80.6243 32.0668 80.6251 32.8125ZM54.8438 7.5H65.1563C67.7661 7.50292 70.2682 8.54096 72.1137 10.3864C73.9591 12.2318 74.9971 14.7339 75.0001 17.3438V17.4375L70.0163 14.6698C66.956 12.9564 63.5074 12.0567 60.0001 12.0567C56.4928 12.0567 53.0441 12.9564 49.9838 14.6698L45.0001 17.4375V17.3438C45.003 14.7339 46.041 12.2318 47.8865 10.3864C49.7319 8.54096 52.234 7.50292 54.8438 7.5ZM42.1876 37.5C41.4419 37.4992 40.727 37.2026 40.1997 36.6753C39.6724 36.1481 39.3759 35.4332 39.3751 34.6875V32.8125C39.3759 32.0668 39.6724 31.3519 40.1997 30.8247C40.727 30.2974 41.4419 30.0008 42.1876 30H43.1251V37.5H42.1876ZM46.8751 42.5295V29.6128C48.4765 29.845 50.1073 29.4759 51.4526 28.5766L55.8397 25.6519C57.0707 24.8281 58.5186 24.3884 59.9998 24.3884C61.481 24.3884 62.9289 24.8281 64.16 25.6519L68.547 28.5766C69.8927 29.4755 71.5235 29.8446 73.1251 29.6126V42.4584C73.1279 43.4122 72.8648 44.3478 72.3655 45.1604C71.8661 45.9729 71.1502 46.6302 70.298 47.0585L61.2575 51.6366C60.8655 51.834 60.4329 51.9374 59.994 51.9386C59.5551 51.9397 59.122 51.8386 58.729 51.6431L49.7255 47.1415C48.8669 46.7158 48.1448 46.0581 47.641 45.243C47.1372 44.4278 46.8718 43.4878 46.8751 42.5295ZM57.0519 54.9982C57.9688 55.4542 58.9794 55.6903 60.0035 55.6877C61.0276 55.6851 62.0369 55.4439 62.9515 54.9832L67.9046 52.4754L69.1737 57.5513L62.9733 63.75H57.0268L50.8264 57.5498L52.0855 52.5141L57.0519 54.9982ZM48.4878 60.5154L51.7233 63.75H43.403L48.4878 60.5154ZM28.1251 67.5H50.6251V82.5C50.6251 82.9973 50.8226 83.4742 51.1742 83.8258C51.5259 84.1775 52.0028 84.375 52.5001 84.375H67.5001C67.9973 84.375 68.4743 84.1775 68.8259 83.8258C69.1775 83.4742 69.3751 82.9973 69.3751 82.5V67.5H91.8751V99.375H90.0001C86.3479 99.3799 82.8225 100.715 80.0834 103.131C77.3442 105.546 75.5788 108.877 75.1172 112.5H69.3751V103.125C69.3751 102.628 69.1775 102.151 68.8259 101.799C68.4743 101.448 67.9973 101.25 67.5001 101.25H52.5001C52.0028 101.25 51.5259 101.448 51.1742 101.799C50.8226 102.151 50.6251 102.628 50.6251 103.125V112.5H44.8829C44.4214 108.877 42.6559 105.546 39.9168 103.131C37.1776 100.715 33.6522 99.3799 30.0001 99.375H28.1251V67.5ZM24.3751 112.5V103.125H30.0001C32.6578 103.128 35.2289 104.071 37.2589 105.787C39.2889 107.502 40.6472 109.88 41.0937 112.5H24.3751ZM54.3751 112.5V105H65.6251V112.5H54.3751ZM95.6251 112.5H78.9064C79.3529 109.88 80.7112 107.502 82.7412 105.787C84.7712 104.071 87.3423 103.128 90.0001 103.125H95.6251V112.5Z" fill="#202020"/>
</svg>
