<svg width="80" height="80" viewBox="0 0 80 80" fill="none" xmlns="http://www.w3.org/2000/svg">
<g clip-path="url(#clip0)">
<path opacity="0.4" d="M51.0349 28.9839C50.0001 28.9839 49.1614 29.8226 49.1614 30.8574V66.2673C49.1614 67.3014 50.0001 68.1408 51.0349 68.1408C52.0697 68.1408 52.9084 67.3014 52.9084 66.2673V30.8574C52.9084 29.8226 52.0697 28.9839 51.0349 28.9839Z" fill="#EB5757"/>
<path opacity="0.4" d="M28.9271 28.9839C27.8923 28.9839 27.0536 29.8226 27.0536 30.8574V66.2673C27.0536 67.3014 27.8923 68.1408 28.9271 68.1408C29.962 68.1408 30.8007 67.3014 30.8007 66.2673V30.8574C30.8007 29.8226 29.962 28.9839 28.9271 28.9839Z" fill="#EB5757"/>
<path d="M12.8148 23.8168V69.9766C12.8148 72.7049 13.8152 75.2671 15.5629 77.1055C17.3025 78.9491 19.7234 79.9956 22.2571 80H57.7049C60.2393 79.9956 62.6602 78.9491 64.3991 77.1055C66.1467 75.2671 67.1472 72.7049 67.1472 69.9766V23.8168C70.6213 22.8946 72.8724 19.5384 72.4077 15.9736C71.9422 12.4095 68.9058 9.74334 65.311 9.74261H55.7186V7.40069C55.7296 5.43129 54.9509 3.54019 53.5568 2.14895C52.1626 0.758441 50.2686 -0.0158545 48.2992 0.000246167H31.6628C29.6934 -0.0158545 27.7994 0.758441 26.4052 2.14895C25.011 3.54019 24.2323 5.43129 24.2433 7.40069V9.74261H14.651C11.0562 9.74334 8.01972 12.4095 7.55426 15.9736C7.08954 19.5384 9.3407 22.8946 12.8148 23.8168ZM57.7049 76.2529H22.2571C19.0538 76.2529 16.5618 73.5012 16.5618 69.9766V23.9814H63.4001V69.9766C63.4001 73.5012 60.9082 76.2529 57.7049 76.2529ZM27.9904 7.40069C27.9779 6.42514 28.3614 5.48618 29.0538 4.79751C29.7454 4.10884 30.6865 3.73047 31.6628 3.74731H48.2992C49.2754 3.73047 50.2166 4.10884 50.9082 4.79751C51.6005 5.48545 51.984 6.42514 51.9716 7.40069V9.74261H27.9904V7.40069ZM14.651 13.4897H65.311C67.1735 13.4897 68.6833 14.9995 68.6833 16.862C68.6833 18.7246 67.1735 20.2344 65.311 20.2344H14.651C12.7884 20.2344 11.2786 18.7246 11.2786 16.862C11.2786 14.9995 12.7884 13.4897 14.651 13.4897Z" fill="#EB5757"/>
<path opacity="0.4" d="M39.981 28.9839C38.9461 28.9839 38.1074 29.8226 38.1074 30.8574V66.2673C38.1074 67.3014 38.9461 68.1408 39.981 68.1408C41.0158 68.1408 41.8545 67.3014 41.8545 66.2673V30.8574C41.8545 29.8226 41.0158 28.9839 39.981 28.9839Z" fill="#EB5757"/>
</g>
<defs>
<clipPath id="clip0">
<rect width="80" height="80" fill="white"/>
</clipPath>
</defs>
</svg>
