<svg width="14" height="15" viewBox="0 0 14 15" fill="none" xmlns="http://www.w3.org/2000/svg">
<path d="M6.73155 7.49552C5.58911 4.80839 3.63989 2.54266 1.15351 1.01173C0.844283 0.810781 0.435753 0.858752 0.181491 1.12587C0.0405852 1.28738 -0.0229565 1.50228 0.00745455 1.71445C0.0378655 1.92661 0.159211 2.11501 0.339812 2.23044C4.09533 4.60157 6.23082 8.33499 6.23082 12.4771V13.7179C6.21987 14.0974 6.48989 14.4271 6.8641 14.4911C7.07828 14.5247 7.29639 14.4622 7.46029 14.3203C7.62419 14.1784 7.71724 13.9715 7.71461 13.7547V12.4845C7.71461 10.0471 8.64981 7.63543 10.4981 5.31217C10.6339 5.14288 10.688 4.92233 10.6462 4.70941C10.6043 4.49649 10.4706 4.31288 10.2809 4.2076C9.95228 4.03673 9.54841 4.12683 9.32359 4.42115C8.56655 5.36841 7.92162 6.40006 7.40165 7.49552C7.34184 7.6268 7.21087 7.71106 7.0666 7.71106C6.92234 7.71106 6.79136 7.6268 6.73155 7.49552Z" fill="#44C373"/>
<path d="M8.67557 5.30854C7.88028 4.44329 7.89133 2.98895 8.73448 1.95434C9.62181 0.868188 12.8361 0.5 12.8361 0.5C12.8361 0.5 13.8818 2.96318 12.6152 4.51693C12.6152 4.51693 11.6726 5.7835 9.32726 5.64359L8.67557 5.30854Z" fill="#44C373"/>
</svg>
