<svg width="15" height="16" viewBox="0 0 15 16" fill="none" xmlns="http://www.w3.org/2000/svg">
<g clip-path="url(#clip0)">
<path d="M12.4603 8.69133C12.2237 8.39255 12.2914 8.25962 12.4603 7.99255C12.4633 7.9895 14.4164 5.29072 14.6176 4.37547L14.6188 4.37486C14.7188 4.04133 14.6188 3.7962 14.1353 3.7962H12.5353C12.128 3.7962 11.9402 4.00657 11.8396 4.24194C11.8396 4.24194 11.0249 6.19194 9.87248 7.45596C9.50053 7.8212 9.32857 7.93828 9.12553 7.93828C9.02553 7.93828 8.87004 7.8212 8.87004 7.48767V4.37486C8.87004 3.97486 8.75601 3.7962 8.41882 3.7962H5.90296C5.64748 3.7962 5.49565 3.98279 5.49565 4.15657C5.49565 4.53584 6.07187 4.62303 6.13162 5.69011V8.00535C6.13162 8.51267 6.03955 8.60596 5.83528 8.60596C5.29138 8.60596 3.97126 6.64803 3.18894 4.40718C3.03101 3.97242 2.87674 3.79681 2.46638 3.79681H0.865767C0.409059 3.79681 0.316986 4.00718 0.316986 4.24255C0.316986 4.6584 0.860889 6.72608 2.84626 9.45779C4.16943 11.3224 6.03284 12.3328 7.72796 12.3328C8.74687 12.3328 8.87126 12.1084 8.87126 11.7224C8.87126 9.94072 8.77918 9.77242 9.28955 9.77242C9.52614 9.77242 9.93345 9.8895 10.8847 10.7889C11.9719 11.8554 12.1505 12.3328 12.7591 12.3328H14.3591C14.8152 12.3328 15.0463 12.1084 14.9133 11.6657C14.6091 10.7346 12.553 8.81937 12.4603 8.69133Z" fill="black"/>
</g>
<defs>
<clipPath id="clip0">
<rect width="14.6342" height="14.6341" fill="white" transform="translate(0.316986 0.74762)"/>
</clipPath>
</defs>
</svg>
