<svg width="40" height="40" viewBox="0 0 40 40" fill="none" xmlns="http://www.w3.org/2000/svg">
<path d="M35.4592 5.93523H4.54082C4.32465 5.93523 4.14941 5.75999 4.14941 5.54382V3.27382H35.8504V5.5439C35.8505 5.75999 35.6753 5.93523 35.4592 5.93523Z" fill="#F9E8D4"/>
<path d="M35.8505 3.24851H4.14941V0.978427C4.14941 0.762255 4.32465 0.587021 4.54082 0.587021H35.4591C35.6753 0.587021 35.8505 0.762255 35.8505 0.978427V3.24851Z" fill="#F9E8D4"/>
<path d="M35.85 1.91782H4.14917V3.24829H35.85V1.91782Z" fill="#E8D0BA"/>
<path d="M35.4592 5.93524H4.54082C4.32465 5.93524 4.14941 5.76 4.14941 5.54383V4.60454H35.8504V5.54383C35.8505 5.76 35.6753 5.93524 35.4592 5.93524Z" fill="#E8D0BA"/>
<path d="M31.4483 20.7915C31.6189 20.7915 31.7613 20.6829 31.781 20.5398C31.8981 19.6891 32.6018 19.6056 32.6018 18.6019C32.6018 17.507 31.7646 17.507 31.7646 16.4122C31.7646 15.3174 32.6018 15.3174 32.6018 14.2225C32.6018 13.1277 31.7646 13.1277 31.7646 12.0329C31.7646 10.9381 32.6018 10.9381 32.6018 9.84321C32.6018 8.74837 31.7646 8.74837 31.7646 7.65345C31.7646 6.55852 32.6018 6.55852 32.6018 5.4636C32.6018 4.45977 31.898 4.37626 31.781 3.52548C31.7613 3.38227 31.6189 3.27376 31.4483 3.27376H24.3517C24.1447 3.27376 23.9884 3.43079 24.0212 3.60352C24.1691 4.38243 24.8293 4.49134 24.8293 5.4636C24.8293 6.55852 23.9921 6.55852 23.9921 7.65345C23.9921 8.74829 24.8293 8.74829 24.8293 9.84321C24.8293 10.9381 23.9921 10.9381 23.9921 12.0329C23.9921 13.1277 24.8293 13.1277 24.8293 14.2225C24.8293 15.3174 23.9921 15.3174 23.9921 16.4122C23.9921 17.507 24.8293 17.507 24.8293 18.6019C24.8293 19.5741 24.1691 19.683 24.0212 20.4617C23.9884 20.6345 24.1447 20.7915 24.3517 20.7915H31.4483Z" fill="#FCC927"/>
<path d="M27.3853 9.5774C27.3853 10.8055 26.4458 10.8055 26.4458 12.034C26.4458 13.2621 27.3853 13.2621 27.3853 14.4905C27.3853 15.7186 26.4458 15.7186 26.4458 16.9471C26.4458 18.1755 27.3853 18.1755 27.3853 19.4036C27.3853 20.1236 27.0624 20.4216 26.7954 20.7924H25.4419C25.709 20.4216 26.0317 20.1236 26.0317 19.4036C26.0317 18.1755 25.0923 18.1755 25.0923 16.9471C25.0923 15.7186 26.0317 15.7186 26.0317 14.4905C26.0317 13.2621 25.0923 13.2621 25.0923 12.034C25.0923 10.8055 26.0317 10.8055 26.0317 9.5774C26.0317 8.34896 25.0923 8.34896 25.0923 7.12053C25.0923 5.89209 26.0317 5.89209 26.0317 4.66396C26.0317 3.94396 25.7089 3.64568 25.4419 3.2749H26.7954C27.0625 3.64568 27.3853 3.94396 27.3853 4.66396C27.3853 5.89209 26.4458 5.89209 26.4458 7.12053C26.4457 8.34888 27.3853 8.34888 27.3853 9.5774Z" fill="#EFAD0A"/>
<path d="M32.602 9.84319C32.602 10.9379 31.7647 10.9379 31.7647 12.033C31.7647 13.1276 32.602 13.1276 32.602 14.2224C32.602 15.3175 31.7647 15.3175 31.7647 16.4122C31.7647 17.5069 32.602 17.5069 32.602 18.6019C32.602 19.6057 31.8982 19.6892 31.7811 20.5398C31.7614 20.6828 31.619 20.7914 31.4482 20.7914H30.0947C30.2655 20.7914 30.4079 20.6828 30.4275 20.5398C30.5447 19.6893 31.2485 19.6058 31.2485 18.6019C31.2485 17.5069 30.4112 17.5069 30.4112 16.4122C30.4112 15.3175 31.2485 15.3175 31.2485 14.2224C31.2485 13.1277 30.4112 13.1277 30.4112 12.033C30.4112 10.9379 31.2485 10.9379 31.2485 9.84319C31.2485 8.7485 30.4112 8.7485 30.4112 7.65343C30.4112 6.55874 31.2485 6.55874 31.2485 5.46366C31.2485 4.45991 30.5447 4.3764 30.4275 3.52546C30.4079 3.38249 30.2655 3.2739 30.0947 3.2739H31.4482C31.619 3.2739 31.7614 3.38249 31.7811 3.52546C31.8982 4.3764 32.602 4.45991 32.602 5.46366C32.602 6.55874 31.7647 6.55874 31.7647 7.65343C31.7648 8.7485 32.602 8.7485 32.602 9.84319Z" fill="#EFAD0A"/>
<path d="M30.1202 9.57647C30.1202 10.8046 29.1808 10.8046 29.1808 12.033C29.1808 13.2611 30.1202 13.2611 30.1202 14.4896C30.1202 15.7177 29.1808 15.7177 29.1808 16.9461C29.1808 18.1746 30.1202 18.1746 30.1202 19.4027C30.1202 20.1227 29.7974 20.4207 29.5304 20.7915H28.1769C28.444 20.4207 28.7667 20.1227 28.7667 19.4027C28.7667 18.1746 27.8273 18.1746 27.8273 16.9461C27.8273 15.7177 28.7667 15.7177 28.7667 14.4896C28.7667 13.2611 27.8273 13.2611 27.8273 12.033C27.8273 10.8046 28.7667 10.8046 28.7667 9.57647C28.7667 8.34803 27.8273 8.34803 27.8273 7.11959C27.8273 5.89116 28.7667 5.89116 28.7667 4.66303C28.7667 3.94303 28.4439 3.64475 28.1769 3.27397H29.5304C29.7975 3.64475 30.1202 3.94303 30.1202 4.66303C30.1202 5.89116 29.1808 5.89116 29.1808 7.11959C29.1809 8.34795 30.1202 8.34795 30.1202 9.57647Z" fill="#EFAD0A"/>
<path d="M23.5837 20.4281H23.5415H12.5353L13.4869 38.0756C13.5274 38.8256 14.1472 39.4129 14.8982 39.4129H23.5415H23.5837H32.227C32.978 39.4129 33.5979 38.8256 33.6383 38.0756L34.59 20.4281H23.5837Z" fill="#44C373"/>
<path d="M34.5903 20.4282L33.6386 38.0757C33.5981 38.8256 32.9783 39.413 32.2272 39.413H31.218L32.2419 20.4282H34.5903Z" fill="#008F28"/>
<path d="M35.4592 20.428H11.6662C11.45 20.428 11.2748 20.2528 11.2748 20.0366V16.2429C11.2748 16.0267 11.45 15.8515 11.6662 15.8515H35.4592C35.6753 15.8515 35.8506 16.0267 35.8506 16.2429V20.0366C35.8505 20.2528 35.6753 20.428 35.4592 20.428Z" fill="#44C373"/>
<path d="M35.4592 20.428H33.2896V15.8516H35.4592C35.6753 15.8516 35.8506 16.0268 35.8506 16.243V20.0367C35.8505 20.2528 35.6752 20.428 35.4592 20.428Z" fill="#008F28"/>
<path d="M34.2873 26.0413L33.8934 33.3432H13.2318L12.8378 26.0413H34.2873Z" fill="#F9E8D4"/>
<path d="M34.2873 26.0415L33.8935 33.3433H31.5453L31.939 26.0415H34.2873Z" fill="#E8D0BA"/>
<path d="M36.4376 0.978438C36.4376 0.438906 35.9986 0 35.4592 0H31.3485C31.0243 0 30.7614 0.262812 30.7614 0.587109C30.7614 0.911406 31.0243 1.17422 31.3485 1.17422H35.2635V2.66148H4.73652V1.17414H27.8274C28.1516 1.17414 28.4145 0.911328 28.4145 0.587031C28.4145 0.262734 28.1517 0 27.8274 0H4.54082C4.00128 0 3.56238 0.438906 3.56238 0.978438V3.24852C3.56238 3.25281 3.56292 3.25695 3.563 3.26117C3.56292 3.26539 3.56238 3.26953 3.56238 3.27383V5.54391C3.56238 6.08344 4.00128 6.52234 4.54082 6.52234H23.7172C23.5517 6.78937 23.4051 7.1418 23.4051 7.65352C23.4051 8.39969 23.7168 8.80734 23.9445 9.105C24.1303 9.34797 24.2424 9.49453 24.2424 9.84328C24.2424 10.192 24.1303 10.3385 23.9445 10.5815C23.7168 10.8791 23.4051 11.2867 23.4051 12.0329C23.4051 12.7791 23.7169 13.1867 23.9445 13.4844C24.1303 13.7273 24.2424 13.8738 24.2424 14.2224C24.2424 14.5712 24.1303 14.7178 23.9445 14.9607C23.8763 15.0499 23.8006 15.1492 23.7279 15.2644H17.9909C17.6667 15.2644 17.4038 15.5272 17.4038 15.8515C17.4038 16.1758 17.6666 16.4386 17.9909 16.4386H35.2635V19.8409H34.5901H12.5353H11.8619V16.4386H14.364C14.6882 16.4386 14.9511 16.1758 14.9511 15.8515C14.9511 15.5272 14.6882 15.2644 14.364 15.2644H11.6662C11.1267 15.2644 10.6878 15.7033 10.6878 16.2428V20.0366C10.6878 20.5761 11.1267 21.015 11.6662 21.015H11.979L12.2517 26.0716C12.2517 26.072 12.2517 26.0724 12.2517 26.0728L12.4239 29.2645L12.9007 38.1072C12.9579 39.1686 13.8353 40 14.8982 40H32.2271C33.29 40 34.1674 39.1686 34.2246 38.1073L34.6957 29.3705L34.8736 26.073C34.8736 26.0726 34.8736 26.0721 34.8736 26.0717L35.1463 21.0152H35.4591C35.9986 21.0152 36.4375 20.5763 36.4375 20.0368V16.243C36.4375 15.7035 35.9986 15.2646 35.4591 15.2646H32.9292C33.0721 15.0091 33.1891 14.6795 33.1891 14.2226C33.1891 13.4764 32.8774 13.0688 32.6497 12.7712C32.4639 12.5283 32.3518 12.3817 32.3518 12.033C32.3518 11.6844 32.4639 11.5378 32.6497 11.2948C32.8774 10.9973 33.1891 10.5896 33.1891 9.84344C33.1891 9.09727 32.8774 8.68961 32.6497 8.39195C32.4639 8.14906 32.3518 8.00242 32.3518 7.65367C32.3518 7.30492 32.4639 7.15828 32.6497 6.91539C32.735 6.80391 32.8321 6.67695 32.9201 6.52258H35.4592C35.9987 6.52258 36.4376 6.08367 36.4376 5.54414V3.27383C36.4376 3.26953 36.4371 3.26539 36.437 3.26117C36.4371 3.25695 36.4376 3.25281 36.4376 3.24852V0.978438ZM33.5055 29.6368L33.3372 32.7561H13.7882L13.6142 29.5307L13.4577 26.6284H33.6678L33.5055 29.6368ZM32.227 38.8259H14.8982C14.4593 38.8259 14.0968 38.4825 14.0732 38.0441L13.8513 33.9302H33.2739L33.052 38.0441C33.0285 38.4824 32.666 38.8259 32.227 38.8259ZM33.731 25.4542H13.3943L13.1549 21.0152H33.9704L33.731 25.4542ZM27.4099 7.99141C27.1997 7.71656 27.0609 7.53508 27.0609 7.11961C27.0609 6.70414 27.1997 6.52258 27.4099 6.24781C27.6729 5.90391 28.0003 5.47586 28.0003 4.66305C28.0003 4.3418 27.9493 4.0807 27.8712 3.86109H29.2376C29.4175 4.09945 29.5332 4.28391 29.5332 4.66305C29.5332 5.07828 29.3943 5.25977 29.1843 5.53453C28.9212 5.87844 28.5938 6.30648 28.5938 7.11953C28.5938 7.9325 28.9212 8.36055 29.1843 8.70461C29.3944 8.97945 29.5332 9.16102 29.5332 9.57648C29.5332 9.99172 29.3944 10.1732 29.1843 10.448C28.9213 10.792 28.5938 11.2201 28.5938 12.0331C28.5938 12.8459 28.9211 13.2739 29.1842 13.6178C29.3943 13.8927 29.5332 14.0741 29.5332 14.4898C29.5332 14.8546 29.426 15.039 29.2575 15.2647H27.88C27.9528 15.0506 28.0004 14.7983 28.0004 14.4898C28.0004 13.6766 27.673 13.2485 27.4099 12.9045C27.1998 12.6298 27.061 12.4484 27.061 12.0331C27.061 11.6177 27.1998 11.4361 27.41 11.1614C27.673 10.8174 28.0004 10.3894 28.0004 9.57656C28.0003 8.76344 27.673 8.33539 27.4099 7.99141ZM4.73652 5.3482V3.86094H23.4792C23.5843 4.25273 23.7818 4.51273 23.9444 4.72539C24.1082 4.93961 24.2146 5.07914 24.2375 5.34828L4.73652 5.3482ZM24.8771 12.7712C24.6914 12.5282 24.5793 12.3816 24.5793 12.033C24.5793 11.6843 24.6914 11.5377 24.8771 11.2948C25.1048 10.9972 25.4165 10.5895 25.4165 9.84336C25.4165 9.09719 25.1048 8.68953 24.8771 8.39188C24.6914 8.14898 24.5793 8.00234 24.5793 7.65359C24.5793 7.30484 24.6914 7.1582 24.8771 6.91531C25.1048 6.61766 25.4165 6.21 25.4165 5.46375C25.4165 4.7175 25.1048 4.30992 24.8771 4.01227C24.8354 3.95758 24.7978 3.90836 24.7643 3.86102H26.5305C26.7104 4.0993 26.8262 4.28398 26.8262 4.66305C26.8262 5.07828 26.6874 5.25977 26.4773 5.53453C26.2143 5.87852 25.8868 6.30664 25.8868 7.11969C25.8868 7.93266 26.2142 8.3607 26.4772 8.70477C26.6874 8.97961 26.8262 9.16117 26.8262 9.57664C26.8262 9.99187 26.6874 10.1734 26.4773 10.4481C26.2143 10.7921 25.8868 11.2202 25.8868 12.0333C25.8868 12.846 26.2141 13.2741 26.4771 13.618C26.6873 13.8928 26.8262 14.0743 26.8262 14.4899C26.8262 14.8548 26.719 15.0391 26.5505 15.2648H25.1567C25.2996 15.0093 25.4165 14.6798 25.4165 14.2228C25.4165 13.4763 25.1048 13.0687 24.8771 12.7712ZM30.5868 15.2645C30.6597 15.0504 30.7073 14.798 30.7073 14.4895C30.7073 13.6764 30.3799 13.2483 30.1168 12.9043C29.9067 12.6295 29.7678 12.4481 29.7678 12.0329C29.7678 11.6174 29.9067 11.4359 30.1168 11.1612C30.3799 10.8172 30.7073 10.3891 30.7073 9.57633C30.7073 8.76336 30.3799 8.33531 30.1168 7.99125C29.9067 7.71641 29.7678 7.53492 29.7678 7.11945C29.7678 6.70398 29.9067 6.52242 30.1168 6.24766C30.3799 5.90375 30.7073 5.4757 30.7073 4.66289C30.7073 4.34133 30.6557 4.08063 30.5775 3.86086H31.2506C31.3553 4.25234 31.5528 4.51062 31.7169 4.72531C31.9027 4.96828 32.0148 5.11484 32.0148 5.46359C32.0148 5.81234 31.9027 5.95898 31.7168 6.20195C31.4893 6.49961 31.1775 6.90727 31.1775 7.65344C31.1775 8.39961 31.4892 8.80727 31.7168 9.10492C31.9026 9.34789 32.0147 9.49445 32.0147 9.8432C32.0147 10.1919 31.9026 10.3384 31.7168 10.5814C31.4892 10.879 31.1775 11.2866 31.1775 12.0328C31.1775 12.779 31.4893 13.1866 31.7169 13.4843C31.9027 13.7272 32.0148 13.8738 32.0148 14.2223C32.0148 14.5711 31.9027 14.7177 31.7169 14.9606C31.6488 15.0497 31.5733 15.1492 31.5008 15.2643H30.5868V15.2645ZM35.2635 5.3482H33.186C33.1558 4.67492 32.8653 4.29391 32.6497 4.01203C32.6082 3.95773 32.5708 3.90859 32.5373 3.86086H35.2635V5.3482Z" fill="black"/>
</svg>
