<svg width="40" height="40" viewBox="0 0 40 40" fill="none" xmlns="http://www.w3.org/2000/svg">
<path d="M12.8105 28.3485C12.8105 28.3485 11.4825 28.5329 10.6215 28.1024C9.76045 27.6719 8.89945 27.6102 8.71658 27.3031C8.53372 26.9961 7.36412 25.4584 7.36412 25.4584C7.36412 25.4584 6.50312 23.6412 6.50312 23.5658V21.7074L5.1499 20.4776L5.63831 17.6492L5.88975 14.3904L6.74466 12.2386L8.22055 10.0252L9.46786 7.87344L11.7255 7.07416L14.0624 5.02756L16.8763 4.61002L20.3363 4.1178C20.3363 4.1178 23.4732 5.03976 23.5365 5.28586L24.7327 5.71636L26.3747 6.26954C26.3747 6.26954 28.0647 6.88443 27.8605 7.13054C27.6563 7.37665 28.3307 8.95312 28.3307 8.95312V11.5483L29.6222 12.4207L31.7556 12.7187L33.4319 13.2817L34.7737 14.8818L35.768 16.7867L35.1531 18.5697L19.4121 34.1896L17.9392 34.9889C17.9392 34.9889 16.4024 34.6201 16.0343 34.3123C15.6663 34.0045 13.5748 31.8558 13.5748 31.8558C13.5748 31.8558 13.27 30.1924 13.27 29.8854C13.27 29.5783 12.8105 28.3485 12.8105 28.3485Z" fill="#F9D11F"/>
<path d="M20.4064 33.5916L18.6223 35.8112L17.269 36L14.1604 34.0168L13.3153 31.1831L12 27.8112L12.7419 23.6489V20.7482L15.1474 17.7734L15.7574 15.4593L18.3407 14.3265L21.1591 12.4034L22.7087 12H28.2975L31.1159 13.0509L33.6984 13.4761L35.113 15.4125L36 17.8202L33.7923 20.1084L32.1961 18.1034L28.0678 15.6957L22.521 16.3721L18.059 19.095L15.8986 24.9979L16.0864 28.5867L20.4064 33.5916Z" fill="#FFA402"/>
<path d="M12.1221 26.5402L11.5613 29H9.79675C9.79675 29 7.44666 27.6282 7.44666 27.4367C7.44666 27.2452 6.23067 23.9858 6.23067 23.9858L5 21.1L5.4952 18.8763L5.75401 14.0982L7.58727 12.2059L9.18181 9.19658L12.4033 7.85374L13.6193 5.9278H17.4998L20.3977 5L22.9703 5.9278C22.9703 5.9278 26.6175 7.04944 26.7557 7.10024C26.894 7.15105 28.4855 9.27631 28.4855 9.41856C28.4855 9.56082 29 11.6892 29 11.6892L27.6442 12.2567L26.0543 12.0222L23.9027 10.7372L19.0921 9.19658L15.2085 9.95554L11.2808 12.6178L9.12618 16.2743L8.93923 19.3492L9.45374 22.1873L11.277 25.4514L12.1221 26.5402Z" fill="#FFA402"/>
<path d="M36.4734 16.1332L36.1752 15.7105C35.9717 15.4279 35.7851 15.1336 35.6162 14.8291C35.2451 14.15 34.6895 13.5897 34.0136 13.2128C33.3376 12.836 32.5689 12.6581 31.7962 12.6995C31.4896 12.7176 31.1825 12.6747 30.8927 12.5734C30.6028 12.4721 30.3358 12.3144 30.1073 12.1093L30.1018 12.1047C29.9799 11.9963 29.8517 11.8951 29.718 11.8018C29.9012 11.3564 29.9687 10.8718 29.9142 10.3933C29.8598 9.91476 29.6851 9.45778 29.4065 9.06491L29.1083 8.64212C28.9048 8.35979 28.7182 8.06575 28.5492 7.7615C28.1783 7.0816 27.6225 6.52057 26.9461 6.14331C26.2697 5.76605 25.5003 5.58796 24.7269 5.62963C24.4204 5.6478 24.1133 5.60507 23.8235 5.5039C23.5336 5.40273 23.2666 5.24514 23.038 5.04021L23.0318 5.03476C22.3993 4.47199 21.6078 4.11929 20.7665 4.0253C19.9251 3.9313 19.0753 4.10064 18.3342 4.50997C18.0652 4.65959 17.7691 4.75432 17.4631 4.78867C17.1572 4.82302 16.8475 4.7963 16.5519 4.71008C15.7373 4.47553 14.87 4.49992 14.0698 4.77987C13.2697 5.05983 12.5763 5.58152 12.0857 6.27277C11.9084 6.52349 11.6834 6.73669 11.4235 6.90012C11.1636 7.06354 10.8739 7.17396 10.5712 7.22503H10.5626C9.7291 7.36874 8.96056 7.76712 8.36268 8.3654C7.7648 8.96369 7.36695 9.73249 7.22382 10.5661V10.5747C7.17267 10.8783 7.06182 11.1687 6.8977 11.4292C6.73357 11.6897 6.51943 11.915 6.26765 12.0922C5.57757 12.5834 5.05709 13.2768 4.77813 14.0766C4.49916 14.8763 4.47549 15.743 4.71037 16.5568C4.79637 16.8514 4.82317 17.16 4.78923 17.465C4.75528 17.77 4.66126 18.0652 4.5126 18.3336L4.50792 18.3422C4.09958 19.0834 3.93108 19.9331 4.02562 20.774C4.12017 21.615 4.47311 22.406 5.03584 23.0381C5.24121 23.2672 5.39911 23.5348 5.50041 23.8254C5.60172 24.1159 5.64442 24.4236 5.62605 24.7308C5.59538 25.306 5.68616 25.8812 5.89249 26.419C6.09882 26.9569 6.41607 27.4452 6.8236 27.8523C7.09955 28.1298 7.41428 28.3659 7.75797 28.5531C8.06217 28.7218 8.35622 28.9082 8.63861 29.1113L9.06219 29.4103C9.45504 29.689 9.91203 29.8637 10.3906 29.9181C10.8691 29.9726 11.3537 29.905 11.7991 29.7218C11.8926 29.8574 11.994 29.9874 12.1028 30.1111H12.1067C12.3104 30.3387 12.4673 30.6043 12.5683 30.8926C12.6693 31.1809 12.7125 31.4863 12.6953 31.7913V31.7976C12.6647 32.3729 12.7555 32.9482 12.9618 33.4862C13.1681 34.0241 13.4854 34.5126 13.8929 34.9199C14.1689 35.196 14.4837 35.4305 14.8272 35.6159C15.1316 35.7847 15.4257 35.9714 15.7079 36.175L16.1307 36.4732C16.6814 36.8638 17.3525 37.0468 18.0253 36.9898C18.698 36.9328 19.3288 36.6394 19.8059 36.1618L36.1573 19.8107C36.6367 19.3343 36.9316 18.7033 36.9895 18.0299C37.0474 17.3565 36.8645 16.6845 36.4734 16.1332ZM11.775 23.6244C11.8758 23.9703 11.8947 24.335 11.8303 24.6895C10.3262 22.8615 9.59184 20.5203 9.78243 18.1608C9.79122 18.0413 9.77526 17.9214 9.73556 17.8084C9.69586 17.6954 9.63328 17.5918 9.55172 17.5041C9.47015 17.4164 9.37137 17.3465 9.26155 17.2987C9.15173 17.2509 9.03324 17.2263 8.91347 17.2264C8.69458 17.2275 8.48409 17.3108 8.32372 17.4598C8.16335 17.6088 8.0648 17.8125 8.04762 18.0308C7.92234 19.5888 8.13508 21.1556 8.67128 22.6239C9.20748 24.0922 10.0545 25.4273 11.1544 26.538C11.0452 27.0548 11.037 27.5878 11.1303 28.1077C10.9566 28.1781 10.7681 28.2038 10.5819 28.1823C10.3958 28.1608 10.2181 28.0928 10.0651 27.9847L9.64228 27.6864C9.30457 27.4433 8.95251 27.2207 8.588 27.0199C8.19846 26.8068 7.87718 26.4878 7.66127 26.0999C7.44537 25.7119 7.34365 25.2707 7.36787 24.8273C7.39877 24.2922 7.32337 23.7563 7.14603 23.2505C6.96868 22.7446 6.69291 22.2789 6.33461 21.8803V21.8756C6.01266 21.5141 5.81054 21.0618 5.75602 20.5808C5.70151 20.0998 5.79727 19.6137 6.03017 19.1893V19.1808C6.29121 18.7116 6.45652 18.1952 6.51654 17.6617C6.57655 17.1281 6.53006 16.588 6.37978 16.0725C6.24536 15.6054 6.2594 15.1081 6.41995 14.6493C6.5805 14.1905 6.87964 13.793 7.27599 13.5116C7.71369 13.2027 8.08593 12.8103 8.37124 12.3568C8.65656 11.9034 8.84931 11.398 8.93839 10.8698V10.8604C9.02059 10.3829 9.24863 9.94255 9.59119 9.59986C9.93375 9.25717 10.374 9.02895 10.8515 8.94656H10.8601C11.3895 8.8581 11.8961 8.66548 12.3505 8.37986C12.8049 8.09425 13.1982 7.72131 13.5074 7.28265C13.7889 6.88663 14.1864 6.58774 14.6449 6.42722C15.1035 6.26669 15.6006 6.25245 16.0676 6.38645C16.5841 6.53741 17.1255 6.5841 17.6602 6.52381C18.1949 6.46352 18.7123 6.29746 19.1822 6.03529C19.6069 5.80126 20.0938 5.70464 20.5757 5.75875C21.0576 5.81285 21.5109 6.01501 21.8732 6.3374L21.8786 6.34207C22.2781 6.69997 22.7444 6.97525 23.2508 7.15205C23.7571 7.32885 24.2935 7.40367 24.8289 7.37219C25.271 7.34786 25.7109 7.44917 26.0978 7.66439C26.4847 7.87962 26.8028 8.19997 27.0153 8.5884C27.2166 8.95298 27.4395 9.30528 27.6826 9.64343L27.9808 10.0678C28.089 10.2206 28.157 10.3982 28.1785 10.5842C28.2 10.7702 28.1743 10.9587 28.1038 11.1322C27.5839 11.0397 27.051 11.0479 26.5341 11.1563C22.2905 6.95173 15.419 6.96575 11.1949 11.1937C10.3581 12.0269 9.66322 12.9914 9.13772 14.0489C9.07231 14.1818 9.04188 14.3293 9.04932 14.4772C9.05675 14.6252 9.10181 14.7689 9.18022 14.8946C9.25863 15.0203 9.36781 15.124 9.49744 15.1957C9.62707 15.2675 9.77286 15.3051 9.92103 15.3048C10.083 15.3044 10.2417 15.2589 10.3792 15.1734C10.5168 15.0878 10.6277 14.9656 10.6997 14.8205C11.3116 13.5896 12.1934 12.5128 13.2795 11.6702C14.3655 10.8275 15.6277 10.2409 16.972 9.95392C18.3163 9.66697 19.7081 9.68711 21.0435 10.0129C22.3789 10.3386 23.6236 10.9615 24.6848 11.8353C24.3306 11.8992 23.9663 11.8805 23.6204 11.7807C22.8064 11.5458 21.9394 11.5694 21.1394 11.8483C20.3393 12.1273 19.6456 12.6478 19.1541 13.338C18.977 13.5888 18.752 13.8021 18.4921 13.9657C18.2322 14.1293 17.9425 14.2398 17.6397 14.291H17.6303C16.7973 14.4345 16.0291 14.8324 15.4314 15.4301C14.8337 16.0278 14.4358 16.796 14.2923 17.629V17.6375C14.2412 17.9409 14.1304 18.2312 13.9664 18.4915C13.8024 18.7519 13.5885 18.9771 13.3369 19.1543C12.6453 19.6455 12.1235 20.3396 11.8436 21.1404C11.5638 21.9413 11.5398 22.8093 11.775 23.6244ZM34.9263 18.575L34.3976 19.0998C33.3667 17.8309 32.0631 16.8107 30.5836 16.115C29.1041 15.4193 27.4868 15.066 25.852 15.0813C25.6228 15.083 25.4035 15.1751 25.2419 15.3378C25.0803 15.5004 24.9895 15.7202 24.9893 15.9495V15.9565C24.9898 16.0717 25.0132 16.1857 25.0581 16.2919C25.103 16.398 25.1685 16.4942 25.2508 16.5748C25.3332 16.6554 25.4307 16.7189 25.5378 16.7615C25.6449 16.8041 25.7594 16.8251 25.8746 16.8231C27.0864 16.811 28.2884 17.0409 29.4102 17.4994C30.532 17.9578 31.551 18.6356 32.4074 19.493C32.6744 19.7617 32.9248 20.0464 33.1572 20.3456L20.34 33.1609C19.3197 32.3648 18.4801 31.361 17.8767 30.2161C17.2733 29.0712 16.9199 27.8112 16.8399 26.5195C16.7599 25.2278 16.9551 23.9338 17.4126 22.7232C17.87 21.5126 18.5794 20.4129 19.4936 19.4969C20.2842 18.7046 21.2145 18.0652 22.2376 17.6111C22.3916 17.5433 22.5226 17.4322 22.6147 17.2914C22.7068 17.1505 22.7559 16.9859 22.7561 16.8177V16.8068C22.7564 16.6631 22.721 16.5217 22.653 16.3952C22.585 16.2686 22.4865 16.161 22.3666 16.082C22.2466 16.003 22.1089 15.9551 21.9658 15.9425C21.8227 15.93 21.6788 15.9533 21.5469 16.0102C20.3211 16.5515 19.2067 17.3158 18.2603 18.2643C14.0206 22.5047 14.0206 29.4041 18.2603 33.6445C18.5274 33.9107 18.8078 34.1633 19.1004 34.4013L18.5717 34.93C18.3853 35.117 18.1387 35.232 17.8756 35.2545C17.6124 35.2771 17.3498 35.2057 17.1344 35.053L16.7116 34.7548C16.3737 34.5117 16.0216 34.2888 15.6573 34.0875C15.2679 33.8759 14.9462 33.5585 14.7295 33.1719C14.5128 32.7853 14.4098 32.3453 14.4325 31.9027V31.8957C14.4635 31.3607 14.3884 30.8249 14.2115 30.3191C14.0345 29.8133 13.7593 29.3476 13.4016 28.9486V28.9439C13.0793 28.5816 12.8772 28.1283 12.8231 27.6465C12.769 27.1646 12.8655 26.6778 13.0994 26.253L13.1033 26.246C13.3634 25.777 13.5281 25.2611 13.5877 24.7282C13.6473 24.1952 13.6007 23.6557 13.4506 23.1409C13.3159 22.6736 13.3298 22.1761 13.4904 21.7172C13.6509 21.2582 13.9502 20.8605 14.3468 20.5792C14.7845 20.2702 15.1567 19.8777 15.442 19.4243C15.7273 18.9709 15.9201 18.4655 16.0092 17.9373V17.928C16.0914 17.4505 16.3195 17.0101 16.662 16.6674C17.0046 16.3247 17.4448 16.0965 17.9223 16.0141H17.9309C18.4603 15.9256 18.9669 15.733 19.4213 15.4474C19.8757 15.1618 20.269 14.7888 20.5783 14.3502C20.86 13.9545 21.2575 13.6559 21.7161 13.4956C22.1746 13.3354 22.6716 13.3214 23.1385 13.4556C23.6549 13.6065 24.1963 13.6532 24.731 13.5929C25.2657 13.5326 25.7831 13.3666 26.253 13.1044C26.6779 12.8704 27.1648 12.7738 27.6469 12.8279C28.1289 12.882 28.5823 13.0842 28.9448 13.4065L28.9494 13.4112C29.3489 13.7691 29.8152 14.0444 30.3216 14.2212C30.828 14.398 31.3643 14.4728 31.8997 14.4413C32.3425 14.4175 32.783 14.5194 33.1703 14.7353C33.5576 14.9512 33.8759 15.2723 34.0885 15.6614C34.2898 16.026 34.5126 16.3783 34.7558 16.7164L35.054 17.1392C35.2053 17.3552 35.2755 17.6177 35.2522 17.8804C35.2288 18.1431 35.1134 18.3891 34.9263 18.575Z" fill="black"/>
<path d="M5.10113 12.1394C4.90552 12.1394 4.71791 12.0617 4.57959 11.9233C4.44127 11.785 4.36356 11.5974 4.36356 11.4018C4.36356 10.7671 4.08393 10.4806 3.66105 10.0471C3.16121 9.53503 2.5387 8.89728 2.5387 7.6614C2.5387 6.42552 3.16045 5.79081 3.65724 5.27497C4.08012 4.84142 4.35975 4.55493 4.35975 3.92023C4.35975 3.72451 4.4375 3.53681 4.57589 3.39842C4.71429 3.26003 4.90199 3.18228 5.0977 3.18228C5.29342 3.18228 5.48112 3.26003 5.61951 3.39842C5.7579 3.53681 5.83565 3.72451 5.83565 3.92023C5.83565 5.15535 5.2139 5.7931 4.7133 6.30589C4.29042 6.73944 4.01078 7.02593 4.01078 7.66063C4.01078 8.29534 4.29042 8.58183 4.7133 9.01538C5.21314 9.52741 5.83565 10.1652 5.83565 11.401C5.83585 11.5963 5.75865 11.7836 5.62097 11.922C5.48329 12.0604 5.29635 12.1386 5.10113 12.1394Z" fill="black"/>
<path d="M9.65014 9.27976C9.55328 9.27976 9.45737 9.26068 9.36788 9.22362C9.2784 9.18655 9.19709 9.13222 9.1286 9.06374C9.06011 8.99524 9.00578 8.91394 8.96872 8.82445C8.93165 8.73497 8.91257 8.63906 8.91257 8.5422C8.91257 7.90749 8.63294 7.621 8.21006 7.18745C7.71022 6.67466 7.08618 6.03691 7.08618 4.80027C7.08618 3.56363 7.70869 2.9274 8.20853 2.41461C8.63294 1.98106 8.91486 1.69609 8.91486 1.06139C8.91486 0.865672 8.99261 0.677972 9.131 0.53958C9.26939 0.401188 9.45709 0.323441 9.6528 0.323441C9.84852 0.323441 10.0362 0.401188 10.1746 0.53958C10.313 0.677972 10.3908 0.865672 10.3908 1.06139C10.3908 2.29651 9.769 2.93426 9.2684 3.44705C8.84552 3.8806 8.56589 4.16709 8.56589 4.80179C8.56589 5.4365 8.84552 5.72299 9.2684 6.15654C9.76824 6.66857 10.3908 7.30632 10.3908 8.5422C10.3908 8.63931 10.3716 8.73547 10.3343 8.82516C10.2971 8.91484 10.2425 8.99629 10.1736 9.06481C10.1048 9.13334 10.0232 9.18761 9.93333 9.2245C9.84349 9.26138 9.74725 9.28016 9.65014 9.27976Z" fill="black"/>
<path d="M36.9604 10.3447C36.8931 10.4946 36.7788 10.6184 36.6347 10.6973C36.4906 10.7761 36.3247 10.8058 36.1622 10.7817C35.9998 10.7576 35.8496 10.681 35.7346 10.5637C35.6197 10.4464 35.5462 10.2947 35.5253 10.1318C35.0503 6.38073 31.464 3.85888 31.428 3.8336C31.3464 3.77758 31.2767 3.70604 31.2227 3.62306C31.1688 3.54008 31.1317 3.44728 31.1137 3.34998C31.0771 3.15346 31.1202 2.95049 31.2333 2.78571C31.3465 2.62093 31.5204 2.50785 31.7169 2.47133C31.8143 2.45325 31.9142 2.45452 32.011 2.47505C32.1078 2.49559 32.1996 2.53499 32.2812 2.59101C32.4511 2.70802 36.4568 5.51069 37.0175 9.94045C37.0363 10.0779 37.0165 10.2178 36.9604 10.3447Z" fill="black"/>
<path d="M36.14 7.70201C36.1309 7.72296 36.1208 7.74276 36.1091 7.76299C36.0607 7.84927 35.9958 7.92518 35.9181 7.98637C35.8404 8.04756 35.7513 8.09283 35.6561 8.11959C35.5609 8.14635 35.4613 8.15408 35.3631 8.14233C35.2648 8.13059 35.1699 8.0996 35.0836 8.05113C34.0198 7.45441 32.5151 7.72808 32.4998 7.73129C32.3063 7.76255 32.1082 7.71719 31.9476 7.60484C31.787 7.49248 31.6765 7.32197 31.6396 7.12949C31.6026 6.93701 31.6421 6.73769 31.7496 6.57384C31.8572 6.40999 32.0244 6.29449 32.2157 6.25185C32.3007 6.23366 34.2701 5.86703 35.821 6.73754C35.9848 6.82957 36.1084 6.97951 36.1674 7.15794C36.2264 7.33637 36.2166 7.53042 36.14 7.70201Z" fill="black"/>
<path d="M35.2436 6.48048C35.1842 6.61105 35.0887 6.72194 34.9685 6.80012C34.8482 6.8783 34.7081 6.92053 34.5646 6.92184C34.4212 6.92315 34.2804 6.88349 34.1587 6.80752C34.037 6.73154 33.9395 6.62241 33.8777 6.49296C33.1387 4.93271 34.0798 2.79058 34.1942 2.55141C34.2821 2.3771 34.4341 2.24369 34.6184 2.17926C34.8027 2.11482 35.0047 2.1244 35.1821 2.20597C35.3594 2.28755 35.4982 2.43475 35.5691 2.61658C35.6401 2.79842 35.6378 3.0007 35.5626 3.18084C35.3618 3.62878 34.8663 5.06564 35.238 5.8524C35.2842 5.95049 35.3087 6.05741 35.3096 6.16583C35.3106 6.27425 35.2881 6.38159 35.2436 6.48048Z" fill="black"/>
<g clip-path="url(#clip0)">
<path d="M23.8986 32.3847C23.8986 32.3847 29.2869 34.5619 33.2202 31.613C33.2202 31.613 31.976 30.3049 30.4508 30.2293C30.4508 30.2293 35.4908 27.1643 35.8488 23.7715C35.8488 23.7715 32.6855 23.5816 30.2675 26.0612C30.2675 26.0612 30.2952 24.035 29.6656 23.3368C29.5708 23.2336 29.45 23.1557 29.3144 23.1103C29.1789 23.0648 29.0329 23.0533 28.8902 23.0768C28.7474 23.1003 28.6125 23.1581 28.4979 23.2447C28.3833 23.3313 28.2928 23.444 28.2348 23.5723C27.9052 24.2819 27.2912 24.786 26.6175 26.5354C26.6175 26.5354 24.9586 23.7412 24.0894 24.587C24.0884 24.5872 23.1375 25.7557 23.8986 32.3847Z" fill="#44C373"/>
<path d="M30.4598 33.4539C27.0911 34.2291 23.852 32.9505 23.6726 32.8802C23.5836 32.8442 23.5064 32.7863 23.4487 32.7122C23.391 32.638 23.3547 32.5503 23.3435 32.4576C22.5967 25.9449 23.4686 24.4917 23.6509 24.2673C23.6648 24.2501 23.6798 24.2337 23.6958 24.2182C23.8139 24.1011 23.9586 24.012 24.118 23.958C24.2773 23.904 24.447 23.8867 24.6132 23.9074C25.3149 23.9881 26.022 24.7382 26.5162 25.3988C26.7503 24.9237 27.0198 24.4651 27.3224 24.0264C27.4739 23.8149 27.6084 23.5927 27.7248 23.3618C27.8229 23.1486 27.9753 22.9618 28.1677 22.8191C28.36 22.6763 28.586 22.5823 28.8243 22.5458C29.0578 22.5089 29.2961 22.5296 29.5169 22.6059C29.7376 22.6822 29.9335 22.8116 30.0862 22.9819C30.4942 23.4351 30.6773 24.231 30.7582 24.908C33.149 23.0963 35.7658 23.2296 35.8854 23.2389C35.9594 23.2433 36.0315 23.2619 36.0974 23.2936C36.1633 23.3253 36.2217 23.3695 36.2691 23.4236C36.3165 23.4777 36.352 23.5406 36.3736 23.6085C36.3951 23.6765 36.4022 23.7482 36.3944 23.8194C36.1142 26.4748 33.3097 28.861 31.7538 29.9943C32.4572 30.2935 33.0923 30.7203 33.6248 31.2518C33.6764 31.3059 33.7155 31.37 33.7397 31.4399C33.7639 31.5098 33.7726 31.584 33.7654 31.6579C33.7581 31.7318 33.7351 31.8037 33.6976 31.8691C33.6602 31.9345 33.6092 31.992 33.5478 32.0379C32.6338 32.7188 31.5798 33.2021 30.4598 33.4539ZM24.4154 31.9957C25.4875 32.3529 29.2829 33.4009 32.3246 31.5709C31.8812 31.2345 31.1745 30.8072 30.4075 30.7684C30.2901 30.7624 30.1783 30.7206 30.0884 30.649C29.9985 30.5775 29.935 30.4799 29.9071 30.3703C29.8792 30.2606 29.8884 30.1447 29.9333 30.0391C29.9781 29.9336 30.0564 29.8438 30.1568 29.7828C30.2015 29.7555 34.3652 27.1891 35.1743 24.3333C34.1945 24.4222 32.248 24.8073 30.6652 26.4291C30.5881 26.5082 30.4884 26.5635 30.3791 26.5879C30.2699 26.6123 30.1562 26.6046 30.0528 26.5658C29.9494 26.527 29.8611 26.4589 29.7994 26.3704C29.7377 26.282 29.7055 26.1771 29.7069 26.0697C29.7165 25.3111 29.5773 24.0736 29.238 23.6972C29.207 23.6619 29.1669 23.6352 29.1216 23.6196C29.0762 23.604 29.0272 23.6001 28.9794 23.6083C28.9266 23.6163 28.8767 23.6371 28.8343 23.6689C28.7918 23.7006 28.7584 23.7422 28.7372 23.7896C28.5973 24.0709 28.4346 24.3416 28.2507 24.5991C27.789 25.2593 27.4134 25.9707 27.1324 26.7169C27.0953 26.8128 27.0306 26.8972 26.9461 26.9599C26.8615 27.0226 26.7606 27.0611 26.6551 27.071C26.5496 27.0808 26.4439 27.0615 26.3505 27.0154C26.2571 26.9693 26.1798 26.8982 26.1276 26.8105C25.5915 25.9085 24.8269 25.0531 24.4974 24.9724C24.3482 25.3316 23.8624 26.9352 24.4154 31.9957Z" fill="black"/>
<path d="M19.9678 34.5129C19.8252 34.5524 19.6732 34.5361 19.5451 34.4676C19.4171 34.399 19.3236 34.2838 19.2852 34.1473C19.2467 34.0108 19.2665 33.8641 19.3402 33.7396C19.4138 33.6151 19.5353 33.523 19.6778 33.4834C25.1197 31.6991 28.1448 28.446 28.1751 28.4151C28.2239 28.362 28.283 28.3184 28.3489 28.2868C28.4148 28.2553 28.4862 28.2365 28.5591 28.2314C28.6321 28.2263 28.7051 28.2351 28.774 28.2572C28.8429 28.2794 28.9063 28.3145 28.9606 28.3604C29.015 28.4064 29.0592 28.4624 29.0907 28.5253C29.1223 28.5881 29.1405 28.6566 29.1444 28.7267C29.1484 28.7968 29.1379 28.8672 29.1136 28.9339C29.0893 29.0007 29.0517 29.0624 29.0029 29.1156C28.8724 29.2582 25.7433 32.6199 20.0182 34.4973L19.9678 34.5129Z" fill="black"/>
<path d="M25.9659 31.0251C25.8264 31.0571 25.6804 31.0364 25.5582 30.9673C25.436 30.8982 25.347 30.786 25.3097 30.654C25.0748 29.8181 24.8869 28.9698 24.7468 28.1128C24.7361 28.0433 24.7398 27.9722 24.7577 27.9035C24.7756 27.8349 24.8072 27.7701 24.8509 27.7127C24.8946 27.6554 24.9494 27.6067 25.0123 27.5694C25.0751 27.5321 25.1448 27.5069 25.2172 27.4954C25.2896 27.4838 25.3635 27.4861 25.4345 27.502C25.5055 27.5179 25.5723 27.5472 25.6311 27.5882C25.6898 27.6291 25.7394 27.681 25.777 27.7408C25.8146 27.8006 25.8394 27.8672 25.8501 27.9367C25.9844 28.7516 26.1631 29.5583 26.3854 30.3536C26.4046 30.4211 26.4097 30.4918 26.4004 30.5617C26.3911 30.6317 26.3677 30.6994 26.3314 30.761C26.295 30.8227 26.2466 30.8771 26.1888 30.9211C26.1309 30.9651 26.0649 30.9979 25.9944 31.0176L25.9677 31.0237L25.9659 31.0251Z" fill="black"/>
</g>
<defs>
<clipPath id="clip0">
<rect width="19" height="11" fill="white" transform="translate(17.2551 25.2049) rotate(-12.9581)"/>
</clipPath>
</defs>
</svg>
