<svg width="40" height="40" viewBox="0 0 40 40" fill="none" xmlns="http://www.w3.org/2000/svg">
<g clip-path="url(#clip0)">
<path d="M31.9398 10.6855L31.4679 16.1402L29.9242 33.9667L29.6539 37.0917C29.5344 38.4074 28.432 39.4144 27.1125 39.4144H12.8875C11.5679 39.4144 10.4656 38.4074 10.3461 37.0917L10.1757 35.1277L8.99996 21.5425L8.76246 18.8011L8.06012 10.6855H31.9398V10.6855Z" fill="#44C373"/>
<path d="M31.9398 10.6855L31.468 16.1402L29.9242 33.9667L29.6539 37.0917C29.5344 38.4073 28.432 39.4144 27.1125 39.4144H12.8875C11.568 39.4144 10.4656 38.4073 10.3461 37.0917L10.1758 35.1277C10.4508 36.2527 11.4641 37.0706 12.6531 37.0706H24.7688C26.0883 37.0706 27.1906 36.0636 27.3102 34.748L29.393 10.6856H31.9398V10.6855Z" fill="#008F28"/>
<path d="M31.468 16.1402L29.9242 33.9666H15.9375C15.1117 33.9666 14.4227 33.3354 14.3508 32.5127L13.068 17.8722C12.9859 16.9409 13.7195 16.1402 14.6547 16.1402H31.468Z" fill="#F9D11F"/>
<path d="M22.2647 29.2921C24.6056 29.2921 26.5033 27.3944 26.5033 25.0534C26.5033 22.7125 24.6056 20.8148 22.2647 20.8148C19.9237 20.8148 18.026 22.7125 18.026 25.0534C18.026 27.3944 19.9237 29.2921 22.2647 29.2921Z" fill="#44C373"/>
<path d="M33.8125 9.51524C33.8125 10.1613 33.289 10.6855 32.6422 10.6855H7.3578C6.71093 10.6855 6.18671 10.1613 6.18671 9.51524C6.18671 8.86836 6.71093 8.34415 7.3578 8.34415H32.6422C33.289 8.34415 33.8125 8.86836 33.8125 9.51524Z" fill="#56788B"/>
<path d="M33.8125 9.51524C33.8125 10.1613 33.289 10.6855 32.6422 10.6855H30.2984C30.9453 10.6855 31.4687 10.1613 31.4687 9.51524C31.4687 8.86836 30.9453 8.34415 30.2984 8.34415H32.6422C33.289 8.34415 33.8125 8.86836 33.8125 9.51524Z" fill="#415E6F"/>
<path d="M31.9398 8.34492H8.06012L8.85856 6.37382C9.04996 5.90273 9.50778 5.59413 10.0164 5.59413L27.6398 5.59335H29.9898C30.4961 5.5957 30.9508 5.90351 31.1406 6.37304L31.9398 8.34492Z" fill="#B9CFDF"/>
<path d="M31.9399 8.34492H29.5961L28.7969 6.37304C28.607 5.90351 28.1516 5.5957 27.6453 5.59335H29.9899C30.4961 5.5957 30.9508 5.90351 31.1406 6.37304L31.9399 8.34492Z" fill="#90ABBD"/>
<path d="M31.468 16.1402L29.9242 33.9666H27.3781L28.9211 16.1402H31.468Z" fill="#FFA402"/>
<path d="M32.6423 7.7586H32.3349L31.6839 6.15274C31.4019 5.45688 30.7346 5.00727 29.9838 5.00727H29.9835L26.5032 5.00735C26.1795 5.00735 25.9173 5.26969 25.9173 5.59328C25.9173 5.91696 26.1796 6.17922 26.5032 6.17922L29.9835 6.17914C30.2548 6.17907 30.496 6.34149 30.5978 6.59297L31.0703 7.7586H13.9166C13.5929 7.7586 13.3306 8.02086 13.3306 8.34453C13.3306 8.66821 13.5929 8.93047 13.9166 8.93047H32.6423C32.9646 8.93047 33.2269 9.19274 33.2269 9.51508C33.2269 9.83743 32.9646 10.0997 32.6423 10.0997H7.35774C7.0354 10.0997 6.77313 9.83743 6.77313 9.51508C6.77313 9.19274 7.0354 8.93047 7.35774 8.93047H11.2107C11.5344 8.93047 11.7967 8.66821 11.7967 8.34453C11.7967 8.02086 11.5344 7.7586 11.2107 7.7586H8.9297L9.40181 6.59375C9.50376 6.34235 9.74493 6.17992 10.0161 6.17992L23.7931 6.1793C24.1168 6.1793 24.3791 5.91696 24.3791 5.59336C24.3791 5.26969 24.1167 5.00743 23.7931 5.00743L20.7649 5.00758L21.9166 0.738753C22.0009 0.426331 21.8159 0.104769 21.5035 0.020472C21.1909 -0.0640593 20.8694 0.121097 20.7852 0.433597L19.5512 5.00766L10.0162 5.00805C9.2654 5.00805 8.59798 5.45766 8.31579 6.15352L7.66516 7.7586H7.35774C6.38923 7.7586 5.60126 8.54657 5.60126 9.51508C5.60126 10.4836 6.38923 11.2716 7.35774 11.2716H7.52259L8.17876 18.8512C8.20517 19.1564 8.46102 19.3866 8.76181 19.3866C8.77876 19.3866 8.79587 19.3859 8.81298 19.3844C9.1354 19.3566 9.37415 19.0725 9.34618 18.7502L8.69876 11.2716H31.3013L30.9305 15.5543H14.6546C14.0452 15.5543 13.4596 15.812 13.048 16.2613C12.6363 16.7107 12.4308 17.3166 12.4839 17.9236L13.7671 32.5637C13.8666 33.6974 14.7999 34.5523 15.9379 34.5523H23.4763C23.7999 34.5523 24.0622 34.2901 24.0622 33.9664C24.0622 33.6427 23.7999 33.3805 23.4763 33.3805H15.9379C15.4119 33.3805 14.9805 32.9852 14.9345 32.4613L13.6513 17.8212C13.6264 17.5365 13.7189 17.2636 13.912 17.0529C14.1051 16.8422 14.3688 16.7261 14.6546 16.7261H30.829L29.3872 33.3804H26.2385C25.9149 33.3804 25.6526 33.6427 25.6526 33.9663C25.6526 34.29 25.9149 34.5523 26.2385 34.5523H29.2857L29.0705 37.0386C28.9779 38.0588 28.1361 38.8281 27.1124 38.8281H12.8877C11.8639 38.8281 11.0221 38.0588 10.9296 37.0413L9.58352 21.492C9.55571 21.1695 9.27134 20.9306 8.94931 20.9588C8.62688 20.9866 8.38813 21.2706 8.4161 21.593L9.76235 37.1448C9.91032 38.7725 11.2538 40 12.8877 40H27.1124C28.7462 40 30.0897 38.7725 30.2378 37.1423L32.4774 11.2716H32.6423C33.6108 11.2716 34.3988 10.4836 34.3988 9.51508C34.3988 8.54657 33.6109 7.7586 32.6423 7.7586Z" fill="black"/>
<path d="M22.2646 20.2288C19.6043 20.2288 17.44 22.3931 17.44 25.0534C17.44 27.7136 19.6043 29.878 22.2646 29.878C24.9249 29.878 27.0892 27.7137 27.0892 25.0534C27.0892 22.393 24.9249 20.2288 22.2646 20.2288ZM22.2646 28.7061C20.2505 28.7061 18.6119 27.0675 18.6119 25.0534C18.6119 23.0393 20.2505 21.4006 22.2646 21.4006C24.2787 21.4006 25.9173 23.0392 25.9173 25.0534C25.9173 27.0675 24.2788 28.7061 22.2646 28.7061Z" fill="black"/>
</g>
<defs>
<clipPath id="clip0">
<rect width="40" height="40" fill="white"/>
</clipPath>
</defs>
</svg>
