<svg width="15" height="15" viewBox="0 0 15 15" fill="none" xmlns="http://www.w3.org/2000/svg">
<g clip-path="url(#clip0)">
<path d="M12.9362 3.89906C12.4078 2.1914 11.0186 0.801819 9.31094 0.273333C7.50356 -0.28653 5.58057 0.0246317 4.11277 1.10616C2.65578 2.18021 1.78604 3.90076 1.78604 5.70849C1.78604 6.95557 2.18055 8.14037 2.92666 9.13458L7.50063 15L12.0746 9.13414C13.1912 7.64539 13.5054 5.73726 12.9362 3.89906ZM7.50063 8.78554C5.80411 8.78554 4.42355 7.40498 4.42355 5.70846C4.42355 4.01194 5.80411 2.63138 7.50063 2.63138C9.19715 2.63138 10.5777 4.01194 10.5777 5.70846C10.5777 7.40498 9.19715 8.78554 7.50063 8.78554Z" fill="#44C373"/>
<path d="M7.50061 3.5166C6.28875 3.5166 5.3027 4.49679 5.3027 5.70865C5.3027 6.92052 6.28875 7.90656 7.50061 7.90656C8.71247 7.90656 9.69852 6.92052 9.69852 5.70865C9.69855 4.49679 8.71247 3.5166 7.50061 3.5166Z" fill="#44C373"/>
</g>
<defs>
<clipPath id="clip0">
<rect width="15" height="15" fill="white"/>
</clipPath>
</defs>
</svg>
