<svg width="40" height="40" viewBox="0 0 40 40" fill="none" xmlns="http://www.w3.org/2000/svg">
<g clip-path="url(#clip0)">
<path d="M35.8691 28.1342L32.8419 29.1584L2.79093 39.3241C1.48226 39.7666 0.23374 38.518 0.676787 37.2099L0.756865 36.973L10.8448 7.16703L11.869 4.13976L15.7359 3.58734L28.2931 11.7229L36.4216 24.2673L36.2077 25.7627L35.8691 28.1342Z" fill="#F9D11F"/>
<path d="M35.8691 28.1342L32.8419 29.1585L2.79093 39.3241C1.48226 39.7666 0.23374 38.5181 0.676787 37.21L0.756865 36.973C1.47335 37.2829 2.2921 37.326 3.05718 37.0647L36.2078 25.7627L35.8691 28.1342Z" fill="#FFA402"/>
<path d="M35.869 28.1342L32.8418 29.1584C32.6887 28.5071 32.4987 27.8221 32.2628 27.1078C31.1204 23.6441 28.9068 19.5026 24.7051 15.3009C19.6366 10.2346 14.6543 8.05968 10.8447 7.16703L11.8689 4.13976L15.7359 3.58734L28.2931 11.7229L36.4215 24.2673L36.2077 25.7627L35.869 28.1342Z" fill="#FDEDA5"/>
<path d="M35.8691 28.1342L32.8418 29.1585C32.6888 28.5071 32.4988 27.8221 32.2629 27.1078L36.2078 25.7627L35.8691 28.1342Z" fill="#FBDF63"/>
<path d="M14.8606 18.6234C16.575 18.6234 17.9648 17.234 17.9648 15.52C17.9648 13.806 16.575 12.4166 14.8606 12.4166C13.1462 12.4166 11.7563 13.806 11.7563 15.52C11.7563 17.234 13.1462 18.6234 14.8606 18.6234Z" fill="#ED2061"/>
<path d="M12.874 30.223C14.5884 30.223 15.9782 28.8336 15.9782 27.1196C15.9782 25.4056 14.5884 24.0162 12.874 24.0162C11.1596 24.0162 9.76978 25.4056 9.76978 27.1196C9.76978 28.8336 11.1596 30.223 12.874 30.223Z" fill="#ED2061"/>
<path d="M27.6141 30.9267L22.3445 32.6961C21.8131 32.1647 21.5142 31.4891 21.4485 30.7947C21.3651 29.9059 21.6634 28.9877 22.344 28.3071C23.5565 27.0956 25.5221 27.0956 26.7341 28.3077C26.9004 28.4739 27.0446 28.6546 27.165 28.8457C27.5628 29.4744 27.7125 30.2141 27.6141 30.9267Z" fill="#ED2061"/>
<path d="M7.66478 34.0994C6.85814 34.9058 5.32791 34.6834 5.32791 34.6834C5.32791 34.6834 5.10549 33.1536 5.91213 32.3472C6.71876 31.5408 8.249 31.7631 8.249 31.7631C8.249 31.7631 8.47142 33.293 7.66478 34.0994Z" fill="#68C044"/>
<path d="M21.7422 22.7089C22.3436 23.678 21.7781 25.1168 21.7781 25.1168C21.7781 25.1168 20.2375 24.9844 19.636 24.0153C19.0346 23.0462 19.6002 21.6074 19.6002 21.6074C19.6002 21.6074 21.1408 21.7398 21.7422 22.7089Z" fill="#68C044"/>
<path d="M38.0905 29.4761C38.0678 29.4822 38.0446 29.4876 38.0209 29.4926C37.4193 29.6191 36.826 29.4203 36.4216 29.0159C36.1885 28.7839 36.0189 28.484 35.9471 28.1381C35.1903 24.5319 33.0281 18.9734 27.0264 12.9708C21.0233 6.97094 15.4625 4.80985 11.8552 4.05305C10.9083 3.85415 10.3017 2.9261 10.5007 1.97923C10.5057 1.95657 10.5111 1.93337 10.5161 1.91071C10.7442 1.00415 11.6508 0.430243 12.5745 0.624696C16.6475 1.4793 22.891 3.88454 29.5036 10.4938C36.1157 17.1057 38.5214 23.3475 39.376 27.4194C39.5693 28.3419 38.9976 29.2484 38.0905 29.4761Z" fill="#E7A561"/>
<path d="M38.0905 29.4761C38.1535 29.2264 38.1617 28.9585 38.1054 28.69C37.2508 24.6181 34.845 18.3763 28.233 11.7643C21.6204 5.15516 15.3769 2.74985 11.3038 1.89532C11.0337 1.83844 10.7663 1.84727 10.5161 1.91079C10.7442 1.00423 11.6508 0.430319 12.5745 0.624772C16.6475 1.47938 22.891 3.88462 29.5036 10.4938C36.1156 17.1058 38.5214 23.3476 39.376 27.4195C39.5693 28.342 38.9976 29.2485 38.0905 29.4761Z" fill="#D77D41"/>
<path d="M27.6141 30.9267L22.3445 32.6961C21.8131 32.1647 21.5142 31.4891 21.4485 30.7947L27.165 28.8458C27.5628 29.4744 27.7125 30.2141 27.6141 30.9267Z" fill="#C71E54"/>
<path d="M39.9494 27.2982C39.0787 23.1484 36.6315 16.7924 29.9178 10.0782C23.2026 3.36668 16.8451 0.920119 12.6944 0.04965C11.4328 -0.215428 10.1909 0.595822 9.92625 1.85731C9.79804 2.46848 9.91554 3.09285 10.257 3.61566C10.4843 3.96356 10.793 4.23816 11.1541 4.42106L4.24039 24.8493C4.13664 25.1558 4.30101 25.4884 4.60758 25.5921C4.66984 25.6132 4.7332 25.6232 4.79547 25.6232C5.03976 25.6232 5.26773 25.4691 5.35039 25.2249L11.226 7.86387C15.8861 9.06605 20.2791 11.7049 24.2909 15.7142C25.8076 17.2312 27.1484 18.8312 28.2756 20.4698C28.3893 20.635 28.5725 20.7237 28.7589 20.7237C28.8734 20.7237 28.9891 20.6902 29.0905 20.6204C29.3571 20.437 29.4245 20.0722 29.2411 19.8056C28.0752 18.1109 26.691 16.4581 25.1267 14.8928C25.1259 14.8921 25.1253 14.8912 25.1245 14.8904C25.1243 14.8902 25.1241 14.89 25.1237 14.8896L25.1139 14.8798C25.1123 14.8782 25.1109 14.8768 25.1098 14.8757C25.1093 14.8752 25.1087 14.8747 25.108 14.8742C20.9727 10.7446 16.4321 8.01496 11.6026 6.75129L12.2805 4.74824C13.1697 4.96004 14.0737 5.23527 14.9759 5.57098C15.2791 5.68363 15.6165 5.52949 15.7294 5.22613C15.8422 4.92285 15.6878 4.58551 15.3845 4.47262C14.2426 4.0477 13.0955 3.71309 11.9748 3.47801C11.67 3.41418 11.4083 3.23527 11.238 2.97465C11.0677 2.71395 11.0091 2.40262 11.0731 2.09793C11.2051 1.46887 11.8246 1.06449 12.4537 1.19652C16.4488 2.03442 22.578 4.39926 29.0893 10.9069C35.599 17.4171 37.9644 23.5447 38.8024 27.5389C38.8664 27.8435 38.8078 28.1548 38.6376 28.4155C38.4673 28.6761 38.2056 28.855 37.9007 28.9189C37.5138 29 37.1155 28.8813 36.8354 28.6012C36.6757 28.4415 36.5666 28.2396 36.5201 28.0173C35.7469 24.3328 33.5441 18.6596 27.4401 12.5553C24.4549 9.5716 21.2864 7.23746 18.0226 5.61762C17.7327 5.47348 17.3812 5.59215 17.2373 5.88199C17.0935 6.17184 17.2119 6.52348 17.5017 6.6673C20.6514 8.23051 23.7165 10.4904 26.6116 13.3839C32.2216 18.9943 34.4149 24.1926 35.2535 27.7235L33.2555 28.3993C32.7024 26.294 31.8548 24.2103 30.7293 22.1964C30.5714 21.9139 30.2144 21.8127 29.9319 21.9707C29.6494 22.1286 29.5484 22.4856 29.7063 22.7681C30.7976 24.7207 31.6155 26.7393 32.1428 28.7757L28.209 30.1064C28.122 29.2769 27.756 28.4998 27.1484 27.8923C25.7096 26.4538 23.3684 26.4538 21.9297 27.8923C21.2327 28.5892 20.8488 29.5157 20.8488 30.5013C20.8488 31.1871 21.0352 31.8442 21.3833 32.4154L2.60211 38.7688C2.20336 38.9036 1.78773 38.8065 1.49023 38.5089C1.19289 38.2115 1.09586 37.7963 1.23062 37.3979L4.48609 27.7787C4.58984 27.4721 4.42547 27.1396 4.1189 27.0358C3.81242 26.9321 3.47984 27.0964 3.37601 27.403L0.120623 37.0221C-0.156096 37.8398 0.0511698 38.727 0.661482 39.3375C1.09328 39.7693 1.66336 39.9995 2.24953 39.9995C2.49234 39.9994 2.73804 39.9599 2.97773 39.8789L35.5841 28.8489C35.6938 29.0621 35.8353 29.2584 36.007 29.43C36.4518 29.8746 37.0452 30.1161 37.6586 30.1161C37.8189 30.1161 37.9807 30.0996 38.1414 30.0659C38.7526 29.9377 39.2773 29.5792 39.6188 29.0565C39.9602 28.5338 40.0776 27.9093 39.9494 27.2982ZM22.5352 32.0259C22.2017 31.5897 22.0207 31.0596 22.0207 30.5014C22.0207 29.8289 22.2826 29.1968 22.7583 28.7212C23.7402 27.7396 25.3379 27.7396 26.3198 28.7212C26.7984 29.1996 27.0571 29.8322 27.0569 30.4963L22.5352 32.0259Z" fill="black"/>
<path d="M12.2509 12.9106C11.5538 13.6075 11.1699 14.5341 11.1699 15.5196C11.1699 16.5052 11.5538 17.4317 12.2509 18.1285C12.9702 18.8478 13.9152 19.2074 14.8602 19.2074C15.8052 19.2074 16.7502 18.8478 17.4696 18.1285C18.1666 17.4317 18.5505 16.5052 18.5505 15.5196C18.5505 14.5341 18.1666 13.6076 17.4696 12.9106C16.0308 11.4721 13.6896 11.4721 12.2509 12.9106ZM16.641 17.2997C15.6591 18.2813 14.0615 18.2813 13.0795 17.2997C12.6038 16.8242 12.3419 16.192 12.3419 15.5195C12.3419 14.847 12.6038 14.2149 13.0795 13.7393C13.5705 13.2485 14.2152 13.0031 14.8602 13.0031C15.5051 13.0031 16.1502 13.2486 16.641 13.7393C17.1166 14.2149 17.3786 14.847 17.3786 15.5195C17.3786 16.192 17.1166 16.8242 16.641 17.2997Z" fill="black"/>
<path d="M10.2639 29.7285C10.9833 30.4477 11.9283 30.8074 12.8733 30.8074C13.8183 30.8074 14.7633 30.4477 15.4826 29.7285C15.7115 29.4997 15.7115 29.1288 15.4827 28.8998C15.254 28.671 14.8829 28.6709 14.654 28.8998C13.6721 29.8815 12.0744 29.8813 11.0925 28.8998C10.6169 28.4242 10.3549 27.792 10.3549 27.1195C10.3549 26.4471 10.6169 25.8149 11.0925 25.3394C12.0744 24.3578 13.6722 24.3578 14.654 25.3394C15.055 25.7402 15.3034 26.2486 15.3726 26.8095C15.4122 27.1307 15.7044 27.3598 16.0258 27.3195C16.347 27.2798 16.5753 26.9874 16.5358 26.6663C16.4344 25.8434 16.0702 25.098 15.4827 24.5106C14.0439 23.0721 11.7028 23.0722 10.264 24.5106C9.56693 25.2075 9.18311 26.1341 9.18311 27.1195C9.18303 28.1051 9.56686 29.0316 10.2639 29.7285Z" fill="black"/>
<path d="M5.24295 35.2636C5.27538 35.2684 5.49178 35.2979 5.8035 35.2979C5.93655 35.2979 6.08694 35.2926 6.24772 35.2774C7.0178 35.2054 7.65077 34.9414 8.07835 34.5139C8.50592 34.0864 8.76999 33.4535 8.8421 32.6836C8.89241 32.1462 8.83483 31.7252 8.82811 31.6789C8.79077 31.4223 8.58921 31.2207 8.33249 31.1834C8.28631 31.1766 7.86514 31.119 7.32772 31.1694C6.55764 31.2415 5.92467 31.5055 5.49709 31.933C5.06952 32.3605 4.80538 32.9934 4.73334 33.7633C4.68303 34.3007 4.74053 34.7217 4.74725 34.768C4.78467 35.0247 4.98631 35.2263 5.24295 35.2636ZM6.32577 32.7618C6.66194 32.4257 7.24733 32.3312 7.69069 32.3209C7.6803 32.7645 7.58577 33.3494 7.24983 33.6852C6.91366 34.0213 6.32827 34.1158 5.88483 34.1262C5.89522 33.6825 5.98983 33.0977 6.32577 32.7618Z" fill="black"/>
<path d="M19.65 21.0234C19.3914 21.001 19.1494 21.1516 19.0546 21.3929C19.0375 21.4364 18.8854 21.8332 18.8118 22.3679C18.7064 23.134 18.8191 23.8104 19.1379 24.3242C19.4566 24.8378 20.0127 25.2393 20.7461 25.485C21.258 25.6565 21.6811 25.6966 21.7276 25.7006C21.7446 25.7021 21.7614 25.7027 21.7781 25.7027C22.0171 25.7027 22.2345 25.5567 22.3232 25.3311C22.3403 25.2876 22.4923 24.8908 22.5659 24.3561C22.6715 23.59 22.5586 22.9136 22.2399 22.3998C21.9211 21.8862 21.365 21.4848 20.6316 21.239C20.1197 21.0674 19.6966 21.0275 19.65 21.0234ZM21.244 23.0177C21.4946 23.4214 21.453 24.0128 21.3621 24.4466C20.9322 24.3353 20.384 24.1099 20.1336 23.7062C19.883 23.3025 19.9246 22.7112 20.0155 22.2773C20.4454 22.3886 20.9936 22.6141 21.244 23.0177Z" fill="black"/>
<path d="M9.94519 19.6238C9.67285 19.7985 9.59363 20.1609 9.76832 20.4334L10.6623 21.827C10.7743 22.0015 10.9632 22.0967 11.156 22.0967C11.2643 22.0967 11.3739 22.0667 11.4719 22.0038C11.7443 21.8291 11.8235 21.4667 11.6488 21.1943L10.7548 19.8006C10.58 19.5284 10.2176 19.4491 9.94519 19.6238Z" fill="black"/>
<path d="M22.1312 19.4563L23.3887 20.5337C23.4993 20.6284 23.6347 20.6747 23.7697 20.6747C23.9349 20.6747 24.0991 20.6052 24.215 20.47C24.4255 20.2242 24.397 19.8543 24.1513 19.6438L22.8938 18.5664C22.6479 18.3559 22.278 18.3843 22.0676 18.6301C21.8569 18.8759 21.8855 19.2458 22.1312 19.4563Z" fill="black"/>
<path d="M17.9443 29.2403L17.7867 30.7508C17.7531 31.0727 17.9868 31.3608 18.3086 31.3945C18.3293 31.3966 18.3498 31.3977 18.3702 31.3977C18.6664 31.3977 18.9208 31.1737 18.9522 30.8725L19.1099 29.3619C19.1435 29.0401 18.9097 28.7519 18.5879 28.7183C18.2663 28.6847 17.9779 28.9183 17.9443 29.2403Z" fill="black"/>
</g>
<defs>
<clipPath id="clip0">
<rect width="40" height="40" fill="white"/>
</clipPath>
</defs>
</svg>
