<svg width="40" height="40" viewBox="0 0 40 40" fill="none" xmlns="http://www.w3.org/2000/svg">
<g clip-path="url(#clip0)">
<path d="M15.0759 28.4961C15.0759 32.4976 11.8322 35.7414 7.83059 35.7414C7.45872 35.7414 7.09387 35.7133 6.73684 35.6594C3.25481 35.132 0.58606 32.1258 0.58606 28.4961C0.58606 24.8672 3.25481 21.8609 6.73684 21.3336C7.09387 21.2797 7.45872 21.2515 7.83059 21.2515C11.8322 21.2515 15.0759 24.4953 15.0759 28.4961Z" fill="#EEF0F5"/>
<path d="M15.0759 28.4961C15.0759 32.4976 11.8321 35.7414 7.83057 35.7414C7.45869 35.7414 7.09385 35.7133 6.73682 35.6594C10.2196 35.132 12.8884 32.1258 12.8884 28.4961C12.8884 24.8672 10.2196 21.8609 6.73682 21.3336C7.09385 21.2797 7.45869 21.2515 7.83057 21.2515C11.8321 21.2515 15.0759 24.4953 15.0759 28.4961Z" fill="#DAE1EA"/>
<path d="M11.4345 28.4961C11.4345 30.4867 9.82122 32.1 7.83059 32.1C7.54622 32.1 7.26965 32.0672 7.00481 32.0047C6.93918 31.9891 6.87512 31.9727 6.81106 31.9531C5.31731 31.5141 4.22668 30.132 4.22668 28.4961C4.22668 26.8734 5.30012 25.5 6.7759 25.0484C7.1095 24.9469 7.4634 24.8922 7.83059 24.8922C9.46184 24.8922 10.84 25.9766 11.2837 27.4633C11.3822 27.7906 11.4345 28.1375 11.4345 28.4961Z" fill="#A4CE39"/>
<path d="M11.4345 28.4961C11.4345 30.4867 9.82119 32.1 7.83057 32.1C7.54619 32.1 7.26963 32.0672 7.00479 32.0047C6.93916 31.9891 6.8751 31.9727 6.81103 31.9531C8.27432 31.4906 9.33525 30.1227 9.33525 28.5063C9.33525 26.8774 8.25713 25.5 6.77588 25.0484C7.10947 24.9469 7.46338 24.8922 7.83057 24.8922C9.46182 24.8922 10.8399 25.9766 11.2837 27.4633C11.3821 27.7906 11.4345 28.1375 11.4345 28.4961Z" fill="#68C044"/>
<path d="M11.4345 28.4961C11.4345 30.4867 9.82119 32.1 7.83057 32.1C7.54619 32.1 7.26963 32.0671 7.00479 32.0046C6.99385 31.9687 6.98369 31.9328 6.9751 31.8968C6.89541 31.6015 6.854 31.2914 6.854 30.9711C6.854 29.4172 7.8376 28.0929 9.21729 27.5875C9.604 27.4453 10.022 27.3679 10.4579 27.3679C10.7423 27.3679 11.0188 27.4007 11.2837 27.4632C11.3821 27.7906 11.4345 28.1375 11.4345 28.4961Z" fill="#F79E60"/>
<path d="M11.4345 28.4961C11.4345 30.4867 9.8212 32.1 7.83057 32.1C7.54619 32.1 7.26963 32.0671 7.00479 32.0046C6.99385 31.9687 6.98369 31.9328 6.9751 31.8968C8.35322 31.3875 9.33526 30.0617 9.33526 28.5062C9.33526 28.1882 9.29463 27.8804 9.21729 27.5875C9.60401 27.4453 10.022 27.3679 10.4579 27.3679C10.7423 27.3679 11.0189 27.4007 11.2837 27.4632C11.3821 27.7906 11.4345 28.1375 11.4345 28.4961Z" fill="#D77D41"/>
<path d="M32.3001 28.4961C32.3001 32.4976 29.0564 35.7414 25.0548 35.7414C24.683 35.7414 24.3181 35.7133 23.9611 35.6594C20.4791 35.132 17.8103 32.1258 17.8103 28.4961C17.8103 24.8672 20.4791 21.8609 23.9611 21.3336C24.3181 21.2797 24.683 21.2515 25.0548 21.2515C29.0564 21.2515 32.3001 24.4953 32.3001 28.4961Z" fill="#EEF0F5"/>
<path d="M32.3001 28.4961C32.3001 32.4976 29.0564 35.7414 25.0548 35.7414C24.6829 35.7414 24.3181 35.7133 23.9611 35.6594C27.4439 35.132 30.1126 32.1258 30.1126 28.4961C30.1126 24.8672 27.4439 21.8609 23.9611 21.3336C24.3181 21.2797 24.6829 21.2515 25.0548 21.2515C29.0564 21.2515 32.3001 24.4953 32.3001 28.4961Z" fill="#DAE1EA"/>
<path d="M28.6587 28.4961C28.6587 30.4867 27.0455 32.1 25.0548 32.1C24.7705 32.1 24.4939 32.0672 24.2291 32.0047C24.1634 31.9891 24.0994 31.9727 24.0353 31.9531C22.5416 31.5141 21.4509 30.132 21.4509 28.4961C21.4509 26.8734 22.5244 25.5 24.0001 25.0484C24.3337 24.9469 24.6876 24.8922 25.0548 24.8922C26.6861 24.8922 28.0642 25.9766 28.508 27.4633C28.6064 27.7906 28.6587 28.1375 28.6587 28.4961Z" fill="#ED2061"/>
<path d="M28.6587 28.4961C28.6587 30.4867 27.0454 32.1 25.0548 32.1C24.7704 32.1 24.4939 32.0672 24.229 32.0047C24.1634 31.9891 24.0993 31.9727 24.0353 31.9531C25.4986 31.4906 26.5595 30.1227 26.5595 28.5063C26.5595 26.8774 25.4814 25.5 24.0001 25.0484C24.3337 24.9469 24.6876 24.8922 25.0548 24.8922C26.6861 24.8922 28.0642 25.9766 28.5079 27.4633C28.6064 27.7906 28.6587 28.1375 28.6587 28.4961Z" fill="#C71E54"/>
<path d="M28.6587 28.4961C28.6587 30.4867 27.0454 32.1 25.0548 32.1C24.7704 32.1 24.4939 32.0671 24.229 32.0046C24.2181 31.9687 24.2079 31.9328 24.1993 31.8968C24.1197 31.6015 24.0782 31.2914 24.0782 30.9711C24.0782 29.4172 25.0618 28.0929 26.4415 27.5875C26.8282 27.4453 27.2462 27.3679 27.6822 27.3679C27.9665 27.3679 28.2431 27.4007 28.5079 27.4632C28.6064 27.7906 28.6587 28.1375 28.6587 28.4961Z" fill="#F79E60"/>
<path d="M28.6587 28.4961C28.6587 30.4867 27.0454 32.1 25.0548 32.1C24.7704 32.1 24.4939 32.0671 24.229 32.0046C24.2181 31.9687 24.2079 31.9328 24.1993 31.8968C25.5775 31.3875 26.5595 30.0617 26.5595 28.5062C26.5595 28.1882 26.5189 27.8804 26.4415 27.5875C26.8282 27.4453 27.2462 27.3679 27.6822 27.3679C27.9665 27.3679 28.2431 27.4007 28.5079 27.4632C28.6064 27.7906 28.6587 28.1375 28.6587 28.4961Z" fill="#D77D41"/>
<path d="M15.0759 11.6622C15.0759 15.6638 11.8322 18.9076 7.83059 18.9076C7.45872 18.9076 7.09387 18.8794 6.73684 18.8255C3.25481 18.2982 0.58606 15.2919 0.58606 11.6622C0.58606 8.03333 3.25481 5.02708 6.73684 4.49974C7.09387 4.44583 7.45872 4.41771 7.83059 4.41771C11.8322 4.41779 15.0759 7.66146 15.0759 11.6622Z" fill="#EEF0F5"/>
<path d="M15.0759 11.6622C15.0759 15.6638 11.8321 18.9076 7.83057 18.9076C7.45869 18.9076 7.09385 18.8794 6.73682 18.8255C10.2196 18.2982 12.8884 15.2919 12.8884 11.6622C12.8884 8.03333 10.2196 5.02708 6.73682 4.49974C7.09385 4.44583 7.45869 4.41771 7.83057 4.41771C11.8321 4.41779 15.0759 7.66146 15.0759 11.6622Z" fill="#DAE1EA"/>
<path d="M11.4345 11.6622C11.4345 13.6529 9.82122 15.2661 7.83059 15.2661C7.54622 15.2661 7.26965 15.2333 7.00481 15.1708C6.93918 15.1552 6.87512 15.1388 6.81106 15.1193C5.31731 14.6802 4.22668 13.2982 4.22668 11.6622C4.22668 10.0396 5.30012 8.66615 6.7759 8.21458C7.1095 8.11302 7.4634 8.05833 7.83059 8.05833C9.46184 8.05833 10.84 9.14271 11.2837 10.6294C11.3822 10.9568 11.4345 11.3036 11.4345 11.6622Z" fill="#ED2061"/>
<path d="M11.4345 11.6622C11.4345 13.6529 9.82119 15.2661 7.83057 15.2661C7.54619 15.2661 7.26963 15.2333 7.00479 15.1708C6.93916 15.1552 6.8751 15.1388 6.81103 15.1193C8.27432 14.6568 9.33525 13.2888 9.33525 11.6724C9.33525 10.0435 8.25713 8.66615 6.77588 8.21458C7.10947 8.11302 7.46338 8.05833 7.83057 8.05833C9.46182 8.05833 10.8399 9.14271 11.2837 10.6294C11.3821 10.9568 11.4345 11.3036 11.4345 11.6622Z" fill="#C71E54"/>
<path d="M11.4345 11.6622C11.4345 13.6529 9.82119 15.2662 7.83057 15.2662C7.54619 15.2662 7.26963 15.2333 7.00479 15.1708C6.99385 15.1349 6.98369 15.099 6.9751 15.063C6.89541 14.7677 6.854 14.4576 6.854 14.1372C6.854 12.5833 7.8376 11.2591 9.21729 10.7536C9.604 10.6115 10.022 10.5341 10.4579 10.5341C10.7423 10.5341 11.0188 10.5669 11.2837 10.6294C11.3821 10.9568 11.4345 11.3036 11.4345 11.6622Z" fill="#F79E60"/>
<path d="M11.4345 11.6622C11.4345 13.6529 9.8212 15.2662 7.83057 15.2662C7.54619 15.2662 7.26963 15.2333 7.00479 15.1708C6.99385 15.1349 6.98369 15.099 6.9751 15.063C8.35322 14.5537 9.33526 13.2279 9.33526 11.6724C9.33526 11.3544 9.29463 11.0466 9.21729 10.7536C9.60401 10.6115 10.022 10.5341 10.4579 10.5341C10.7423 10.5341 11.0189 10.5669 11.2837 10.6294C11.3821 10.9568 11.4345 11.3036 11.4345 11.6622Z" fill="#D77D41"/>
<path d="M32.3001 11.6622C32.3001 15.6638 29.0564 18.9076 25.0548 18.9076C24.683 18.9076 24.3181 18.8794 23.9611 18.8255C20.4791 18.2982 17.8103 15.2919 17.8103 11.6622C17.8103 8.03333 20.4791 5.02708 23.9611 4.49974C24.3181 4.44583 24.683 4.41771 25.0548 4.41771C29.0564 4.41779 32.3001 7.66154 32.3001 11.6622Z" fill="#EEF0F5"/>
<path d="M32.3001 11.6622C32.3001 15.6638 29.0564 18.9076 25.0548 18.9076C24.6829 18.9076 24.3181 18.8794 23.9611 18.8255C27.4439 18.2982 30.1126 15.2919 30.1126 11.6622C30.1126 8.03333 27.4439 5.02708 23.9611 4.49974C24.3181 4.44583 24.6829 4.41771 25.0548 4.41771C29.0564 4.41779 32.3001 7.66154 32.3001 11.6622Z" fill="#DAE1EA"/>
<path d="M28.6587 11.6622C28.6587 13.6529 27.0455 15.2661 25.0548 15.2661C24.7705 15.2661 24.4939 15.2333 24.2291 15.1708C24.1634 15.1552 24.0994 15.1388 24.0353 15.1193C22.5416 14.6802 21.4509 13.2982 21.4509 11.6622C21.4509 10.0396 22.5244 8.66615 24.0001 8.21458C24.3337 8.11302 24.6876 8.05833 25.0548 8.05833C26.6861 8.05833 28.0642 9.14271 28.508 10.6294C28.6064 10.9568 28.6587 11.3036 28.6587 11.6622Z" fill="#A4CE39"/>
<path d="M28.6587 11.6622C28.6587 13.6529 27.0454 15.2661 25.0548 15.2661C24.7704 15.2661 24.4939 15.2333 24.229 15.1708C24.1634 15.1552 24.0993 15.1388 24.0353 15.1193C25.4986 14.6568 26.5595 13.2888 26.5595 11.6724C26.5595 10.0435 25.4814 8.66615 24.0001 8.21458C24.3337 8.11302 24.6876 8.05833 25.0548 8.05833C26.6861 8.05833 28.0642 9.14271 28.5079 10.6294C28.6064 10.9568 28.6587 11.3036 28.6587 11.6622Z" fill="#68C044"/>
<path d="M28.6587 11.6622C28.6587 13.6529 27.0454 15.2662 25.0548 15.2662C24.7704 15.2662 24.4939 15.2333 24.229 15.1708C24.2181 15.1349 24.2079 15.099 24.1993 15.063C24.1197 14.7677 24.0782 14.4576 24.0782 14.1372C24.0782 12.5833 25.0618 11.2591 26.4415 10.7536C26.8282 10.6115 27.2462 10.5341 27.6822 10.5341C27.9665 10.5341 28.2431 10.5669 28.5079 10.6294C28.6064 10.9568 28.6587 11.3036 28.6587 11.6622Z" fill="#F79E60"/>
<path d="M28.6587 11.6622C28.6587 13.6529 27.0454 15.2662 25.0548 15.2662C24.7704 15.2662 24.4939 15.2333 24.229 15.1708C24.2181 15.1349 24.2079 15.099 24.1993 15.063C25.5775 14.5537 26.5595 13.2279 26.5595 11.6724C26.5595 11.3544 26.5189 11.0466 26.4415 10.7536C26.8282 10.6115 27.2462 10.5341 27.6822 10.5341C27.9665 10.5341 28.2431 10.5669 28.5079 10.6294C28.6064 10.9568 28.6587 11.3036 28.6587 11.6622Z" fill="#D77D41"/>
<path d="M39.4137 6.17303L39.2824 11.9285L39.2176 14.741L38.9035 28.4957L38.766 34.4973C38.7582 34.8426 38.6129 35.1535 38.3832 35.3785C38.1543 35.6027 37.8402 35.741 37.4941 35.741C37.1816 35.741 36.8949 35.6285 36.673 35.441C36.4027 35.2129 36.2293 34.8746 36.2215 34.4941L36.1004 28.4957L35.8238 14.741L35.7668 11.9285L35.6512 6.17303C35.6379 5.416 36.0746 4.75663 36.7121 4.44725C36.9598 4.32616 37.2379 4.25897 37.5324 4.25897C38.5848 4.25897 39.4324 5.12147 39.4137 6.17303Z" fill="#F9D11F"/>
<path d="M39.4137 6.17303L39.2825 11.9285L39.2176 14.741L38.9036 28.4957L38.7661 34.4973C38.7583 34.8426 38.6129 35.1535 38.3833 35.3785C38.1543 35.6027 37.8403 35.741 37.4942 35.741C37.1817 35.741 36.895 35.6285 36.6731 35.441C36.6973 35.4215 36.72 35.4004 36.7426 35.3785C36.9723 35.1535 37.1176 34.8426 37.1254 34.4973L37.7731 6.17303C37.7864 5.41522 37.3504 4.75585 36.7122 4.44725C36.9598 4.32616 37.2379 4.25897 37.5325 4.25897C38.5848 4.25897 39.4325 5.12147 39.4137 6.17303Z" fill="#FFA402"/>
<path d="M38.9036 28.4957L38.7661 34.4973C38.7583 34.8426 38.613 35.1535 38.3833 35.3785C38.1544 35.6027 37.8403 35.741 37.4942 35.741C37.1817 35.741 36.895 35.6285 36.6731 35.441C36.4028 35.2129 36.2294 34.8746 36.2216 34.4941L36.1005 28.4957H38.9036Z" fill="#56788B"/>
<path d="M39.2825 11.9285L39.2176 14.741H35.8239L35.7668 11.9285H39.2825Z" fill="#ED2061"/>
<path d="M37.2629 28.4957H38.9036L38.7661 34.4973C38.7583 34.8426 38.6129 35.1535 38.3833 35.3785C38.1543 35.6027 37.8403 35.741 37.4942 35.741C37.1817 35.741 36.895 35.6285 36.6731 35.441C36.6973 35.4215 36.72 35.4004 36.7426 35.3785C36.9723 35.1535 37.1176 34.8426 37.1254 34.4973L37.2629 28.4957Z" fill="#415E6F"/>
<path d="M39.2825 11.9285L39.2177 14.741H37.577L37.6419 11.9285H39.2825Z" fill="#C71E54"/>
<path d="M7.83086 20.6651C6.90273 20.6651 5.99398 20.8262 5.13008 21.1435C4.82633 21.2551 4.67055 21.5918 4.78211 21.8956C4.89375 22.1993 5.23031 22.3552 5.53414 22.2435C6.26828 21.9738 7.04101 21.837 7.83086 21.837C11.5027 21.837 14.4898 24.8243 14.4898 28.4961C14.4898 32.1679 11.5026 35.1551 7.83078 35.1551C4.15898 35.1551 1.17187 32.1679 1.17187 28.4961C1.17187 26.6166 1.97211 24.8155 3.36734 23.5544C3.60742 23.3375 3.62617 22.9669 3.40914 22.7268C3.19219 22.4868 2.82156 22.468 2.58156 22.685C0.940937 24.1679 0 26.2859 0 28.4961C0 32.8141 3.51297 36.327 7.83094 36.327C12.1489 36.327 15.6618 32.814 15.6618 28.4961C15.6618 24.1781 12.1488 20.6651 7.83086 20.6651Z" fill="black"/>
<path d="M12.0206 28.4961C12.0206 26.1859 10.1411 24.3064 7.83097 24.3064C5.52081 24.3064 3.64136 26.1859 3.64136 28.4961C3.64136 30.8063 5.52081 32.6858 7.83097 32.6858C10.1411 32.6858 12.0206 30.8063 12.0206 28.4961ZM7.83097 31.5139C7.71417 31.5139 7.59886 31.5073 7.48542 31.4942C7.45542 31.3223 7.44034 31.1474 7.44034 30.9712C7.44034 29.3071 8.79409 27.9534 10.4581 27.9534C10.5736 27.9534 10.6889 27.9599 10.8032 27.9729C10.8331 28.1429 10.8486 28.3177 10.8486 28.496C10.8487 30.1602 9.49495 31.5139 7.83097 31.5139ZM4.81315 28.4961C4.81315 26.832 6.16691 25.4783 7.83089 25.4783C8.85956 25.4783 9.76972 25.9957 10.3147 26.784C8.07066 26.8598 6.26839 28.709 6.26839 30.9713C6.26839 31.0069 6.26886 31.0424 6.2698 31.0779C5.3973 30.5484 4.81315 29.5891 4.81315 28.4961Z" fill="black"/>
<path d="M25.0552 24.3064C22.7451 24.3064 20.8656 26.1859 20.8656 28.4961C20.8656 30.8063 22.7451 32.6858 25.0552 32.6858C27.3654 32.6858 29.2448 30.8063 29.2448 28.4961C29.2448 26.1859 27.3654 24.3064 25.0552 24.3064ZM22.0374 28.4961C22.0374 26.832 23.3911 25.4783 25.0551 25.4783C26.0839 25.4783 26.994 25.9957 27.539 26.784C25.2949 26.8598 23.4926 28.709 23.4926 30.9713C23.4926 31.0069 23.4931 31.0424 23.494 31.0779C22.6215 30.5484 22.0374 29.5891 22.0374 28.4961ZM25.0552 31.5139C24.9384 31.5139 24.8231 31.5073 24.7097 31.4942C24.6797 31.3223 24.6646 31.1474 24.6646 30.9712C24.6646 29.3071 26.0183 27.9534 27.6823 27.9534C27.7979 27.9534 27.9132 27.9599 28.0276 27.9729C28.0574 28.1429 28.0729 28.3177 28.0729 28.496C28.0729 30.1602 26.7192 31.5139 25.0552 31.5139Z" fill="black"/>
<path d="M7.83097 7.47256C5.52081 7.47256 3.64136 9.35209 3.64136 11.6623C3.64136 13.9724 5.52081 15.8519 7.83097 15.8519C10.1411 15.8519 12.0206 13.9724 12.0206 11.6623C12.0206 9.35209 10.1411 7.47256 7.83097 7.47256ZM4.81315 11.6623C4.81315 9.99819 6.16691 8.64444 7.83089 8.64444C8.85964 8.64444 9.7698 9.16194 10.3148 9.95022C8.07066 10.026 6.26839 11.8751 6.26839 14.1374C6.26839 14.173 6.26886 14.2086 6.2698 14.244C5.3973 13.7145 4.81315 12.7554 4.81315 11.6623ZM7.83097 14.6801C7.71417 14.6801 7.59886 14.6734 7.48542 14.6604C7.45542 14.4885 7.44034 14.3136 7.44034 14.1373C7.44034 12.4733 8.79409 11.1196 10.4581 11.1196C10.5737 11.1196 10.689 11.1262 10.8032 11.1391C10.8331 11.309 10.8486 11.4838 10.8486 11.6622C10.8487 13.3263 9.49495 14.6801 7.83097 14.6801Z" fill="black"/>
<path d="M25.0552 3.83131C24.1271 3.83131 23.2183 3.99233 22.3544 4.30967C22.0507 4.42131 21.8949 4.75796 22.0064 5.06178C22.118 5.36546 22.4546 5.52124 22.7585 5.40967C23.4925 5.13999 24.2653 5.00319 25.0551 5.00319C28.7269 5.00319 31.7141 7.99046 31.7141 11.6623C31.7141 15.3341 28.7268 18.3213 25.055 18.3213C21.3832 18.3213 18.396 15.3341 18.396 11.6623C18.396 9.78288 19.1963 7.98178 20.5915 6.72053C20.8316 6.50358 20.8503 6.13303 20.6333 5.89296C20.4163 5.65296 20.0458 5.63421 19.8057 5.85124C18.1651 7.33413 17.2242 9.45218 17.2242 11.6623C17.2242 15.9803 20.7372 19.4932 25.0552 19.4932C29.3732 19.4932 32.886 15.9802 32.886 11.6623C32.886 7.34428 29.3732 3.83131 25.0552 3.83131Z" fill="black"/>
<path d="M29.2448 11.6623C29.2448 9.35209 27.3654 7.47256 25.0552 7.47256C22.7451 7.47256 20.8656 9.35209 20.8656 11.6623C20.8656 13.9724 22.7451 15.8519 25.0552 15.8519C27.3654 15.8519 29.2448 13.9725 29.2448 11.6623ZM25.0552 14.6801C24.9384 14.6801 24.8231 14.6734 24.7097 14.6604C24.6797 14.4885 24.6646 14.3136 24.6646 14.1373C24.6646 12.4733 26.0183 11.1196 27.6823 11.1196C27.7979 11.1196 27.9133 11.1262 28.0276 11.1391C28.0574 11.309 28.0729 11.4838 28.0729 11.6622C28.0729 13.3263 26.7192 14.6801 25.0552 14.6801ZM22.0374 11.6623C22.0374 9.99819 23.3911 8.64444 25.0551 8.64444C26.0839 8.64444 26.994 9.16194 27.539 9.95022C25.2949 10.0259 23.4926 11.8751 23.4926 14.1374C23.4926 14.173 23.4931 14.2086 23.494 14.244C22.6215 13.7145 22.0374 12.7554 22.0374 11.6623Z" fill="black"/>
<path d="M39.2925 4.41093C38.8248 3.93499 38.1998 3.67296 37.5327 3.67296C36.8655 3.67296 36.2405 3.93499 35.7728 4.41085C35.3052 4.88679 35.054 5.51624 35.0657 6.18499L35.3089 18.268C35.3154 18.5875 35.5763 18.8421 35.8945 18.8421C35.8985 18.8421 35.9026 18.8421 35.9066 18.8419C36.2301 18.8355 36.4871 18.5679 36.4806 18.2444L36.4219 15.327H38.6184L38.3307 27.9101H36.6737L36.5322 20.9594C36.5257 20.6399 36.2647 20.3854 35.9466 20.3854C35.9425 20.3854 35.9384 20.3854 35.9344 20.3855C35.6109 20.3921 35.3539 20.6598 35.3605 20.9832L35.6356 34.5059C35.6559 35.5101 36.4894 36.327 37.4937 36.327C38.4954 36.327 39.3289 35.5123 39.3518 34.511L39.9996 6.18335C40.0112 5.51624 39.7601 4.88686 39.2925 4.41093ZM36.6087 5.23226C36.8542 4.98249 37.1823 4.84483 37.5327 4.84483C37.883 4.84483 38.2111 4.98249 38.4566 5.23233C38.7022 5.48218 38.8341 5.81272 38.828 6.15976L38.7094 11.3426H36.3416L36.2374 6.16296C36.2312 5.81265 36.3631 5.48218 36.6087 5.23226ZM36.3982 14.1551L36.3652 12.5145H38.6826L38.6451 14.1551H36.3982ZM37.4938 35.1551C37.1227 35.1551 36.8148 34.8533 36.8073 34.4823L36.6974 29.082H38.3038L38.1803 34.4842C38.1719 34.8542 37.8639 35.1551 37.4938 35.1551Z" fill="black"/>
<path d="M25.0552 20.6651C20.7372 20.6651 17.2242 24.1781 17.2242 28.4961C17.2242 32.814 20.7372 36.327 25.0552 36.327C29.3732 36.327 32.886 32.814 32.886 28.4961C32.886 24.1781 29.3732 20.6651 25.0552 20.6651ZM25.0552 35.1551C21.3834 35.1551 18.3961 32.1679 18.3961 28.4961C18.3961 24.8243 21.3834 21.837 25.0552 21.837C28.727 21.837 31.7142 24.8243 31.7142 28.4961C31.7142 32.1679 28.727 35.1551 25.0552 35.1551Z" fill="black"/>
<path d="M7.83094 3.83131C3.51297 3.83131 0 7.34428 0 11.6623C0 15.9802 3.51297 19.4932 7.83094 19.4932C12.1489 19.4932 15.6618 15.9802 15.6618 11.6623C15.6618 7.34428 12.1489 3.83131 7.83094 3.83131ZM7.83094 18.3214C4.15914 18.3214 1.17187 15.3341 1.17187 11.6623C1.17187 7.99046 4.15914 5.00319 7.83094 5.00319C11.5027 5.00319 14.4899 7.99046 14.4899 11.6623C14.4899 15.3341 11.5027 18.3214 7.83094 18.3214Z" fill="black"/>
</g>
<defs>
<clipPath id="clip0">
<rect width="40" height="40" fill="white"/>
</clipPath>
</defs>
</svg>
