<svg width="15" height="15" viewBox="0 0 15 15" fill="none" xmlns="http://www.w3.org/2000/svg">
<g clip-path="url(#clip0)">
<path d="M1.14527 13.5549C1.67687 13.8178 2.23135 14.0313 2.80199 14.1929C3.37328 14.3549 3.95997 14.4561 4.55252 14.4947C4.85601 14.5127 5.16015 14.5135 5.46375 14.4969C5.76724 14.4803 6.06964 14.4465 6.36944 14.3959C7.44434 14.2061 8.47846 13.8323 9.42634 13.2908C10.3748 12.7506 11.2558 12.0999 12.0513 11.3525C12.4422 10.9949 12.8051 10.6076 13.1363 10.1941C13.4681 9.78054 13.7509 9.32997 13.9791 8.85131C14.22 8.33989 14.2977 7.76665 14.2017 7.20945C14.1093 6.67949 13.887 6.18065 13.555 5.75742C13.4583 5.63311 13.353 5.51575 13.2399 5.4062C13.1291 5.29871 13.0104 5.19936 12.8851 5.10922C13.1558 4.59683 13.3502 4.04766 13.4622 3.47908C13.5209 3.14522 13.5181 2.80345 13.4538 2.47067C13.3746 2.07868 13.2098 1.70913 12.9709 1.3884C12.7068 1.05823 12.372 0.791507 11.9911 0.607982C11.9353 0.579998 11.8761 0.559281 11.8149 0.546482C11.754 0.533574 11.6916 0.529995 11.6296 0.535635C11.4829 0.544421 11.34 0.586831 11.2122 0.659504C11.1109 0.723065 11.0439 0.829036 11.0297 0.947699C11.0119 1.06549 11.0365 1.18567 11.0992 1.28687C11.1617 1.38937 11.2532 1.47094 11.3623 1.52127C11.5058 1.58808 11.6427 1.66835 11.7713 1.76098C11.8936 1.84938 12.0055 1.95166 12.1044 2.06577C12.2114 2.2238 12.2819 2.40364 12.3107 2.59226C12.3399 2.78089 12.3442 2.97244 12.3237 3.16215C12.3123 3.2845 12.2944 3.40598 12.27 3.52637C12.2459 3.6471 12.2164 3.76695 12.1839 3.88507C12.1658 3.95254 12.1466 4.01946 12.1264 4.08628C12.1062 4.1532 12.0851 4.22002 12.0634 4.28748C12.0574 4.30191 12.0315 4.38987 12.004 4.47426C11.991 4.53283 11.9678 4.58858 11.9357 4.63935C11.6495 4.50713 11.3452 4.41808 11.0329 4.37512C10.7206 4.33358 10.403 4.35625 10.0996 4.44172C10.0537 4.45495 10.0062 4.46819 9.95772 4.4824C9.90913 4.4965 9.85978 4.51157 9.81042 4.52849C9.76335 4.54292 9.71638 4.55919 9.67159 4.57752C9.62798 4.59498 9.58579 4.6157 9.54533 4.63935C8.53345 5.26249 7.70791 6.1467 7.1556 7.19893C6.53496 8.32492 6.11172 9.54875 5.90434 10.8176C5.37416 11.0103 4.86556 11.2577 4.38657 11.5559C3.97114 11.8077 3.62622 12.1605 3.38391 12.5815C2.95785 12.5388 2.52952 12.5239 2.10162 12.5366C1.75117 12.541 1.4044 12.6085 1.07781 12.7357C0.873023 12.855 0.744165 12.9803 0.739284 13.1155C0.734511 13.2507 0.853716 13.3959 1.14527 13.5549Z" fill="#C03A2B"/>
<path d="M9.81104 12.0854C9.86115 12.0854 9.91007 12.0697 9.95086 12.0406C10.3932 11.7246 10.8175 11.384 11.2219 11.0206C11.5779 10.7005 11.865 10.4101 12.0799 10.1786C12.1401 10.1158 12.1618 10.0255 12.1367 9.94224C12.1115 9.85904 12.0435 9.79581 11.9586 9.77683C11.8737 9.75774 11.7852 9.78605 11.727 9.85058C11.5195 10.0738 11.2424 10.3542 10.8986 10.6631C10.508 11.0141 10.0982 11.3431 9.6708 11.6483C9.58543 11.7092 9.54931 11.8183 9.58131 11.9181C9.61331 12.0178 9.70626 12.0855 9.81104 12.0854Z" fill="#802F34"/>
<path d="M6.80015 13.5117C6.80991 13.5117 6.81968 13.5112 6.82933 13.51C6.8392 13.5088 6.84907 13.5071 6.85862 13.5046C7.15093 13.4315 7.43891 13.3421 7.72125 13.237C8.01357 13.1282 8.30003 13.0045 8.57965 12.866C8.65796 12.8286 8.71014 12.7519 8.7161 12.6653C8.72207 12.5787 8.68107 12.4955 8.60861 12.4476C8.53616 12.3998 8.44353 12.3945 8.36619 12.434C8.10207 12.5647 7.83145 12.6818 7.55529 12.7845C7.28912 12.8837 7.01763 12.968 6.74212 13.037C6.62422 13.0666 6.54677 13.1793 6.56153 13.3C6.57628 13.4206 6.67856 13.5114 6.80015 13.5117Z" fill="#802F34"/>
<path d="M9.86047 6.78177C10.3225 6.75303 10.764 6.58035 11.1229 6.28782C11.3766 6.07902 11.5122 5.884 11.6778 5.87543C12.0537 6.63328 12.5278 7.38875 12.9055 7.56219C13.2832 7.73573 13.5646 7.32725 13.5549 5.75742V5.75492C13.4576 5.63127 13.3521 5.51434 13.239 5.40501C13.1282 5.29795 13.01 5.19914 12.885 5.10922C13.1558 4.59683 13.3502 4.04766 13.4621 3.47908C13.5209 3.14522 13.5181 2.80345 13.4537 2.47067C13.3746 2.07868 13.2097 1.70913 12.9708 1.3884C12.7067 1.05823 12.3719 0.791507 11.9911 0.607982C11.9352 0.579998 11.876 0.559281 11.8148 0.546482C11.754 0.533574 11.6915 0.529995 11.6296 0.535635C11.4828 0.544421 11.3399 0.586831 11.2122 0.659504C11.1109 0.723065 11.0438 0.829036 11.0296 0.947699C11.0118 1.06549 11.0365 1.18567 11.0992 1.28687C11.1616 1.38937 11.2532 1.47094 11.3622 1.52127C11.5057 1.58808 11.6427 1.66835 11.7712 1.76098C11.8936 1.84938 12.0054 1.95166 12.1043 2.06577C12.2114 2.2238 12.2819 2.40364 12.3106 2.59226C12.3398 2.78089 12.3441 2.97244 12.3236 3.16215C12.3122 3.2845 12.2943 3.40598 12.2699 3.52637C12.2459 3.6471 12.2164 3.76695 12.1838 3.88507C12.1657 3.95254 12.1465 4.01946 12.1263 4.08628C12.1062 4.1532 12.085 4.22002 12.0633 4.28748C12.0573 4.30191 12.0314 4.38987 12.004 4.47426C11.991 4.53283 11.9677 4.58858 11.9356 4.63935C11.6494 4.50713 11.3452 4.41808 11.0329 4.37512C10.7205 4.33358 10.4029 4.35625 10.0995 4.44172C10.0536 4.45495 10.0067 4.46819 9.95884 4.4824C9.9109 4.4965 9.86209 4.51157 9.81274 4.52849C9.99486 4.79142 10.0775 5.11052 10.0462 5.42876C9.99648 5.78432 9.85493 6.12089 9.63562 6.40507C9.58008 6.48143 9.57628 6.58382 9.62596 6.66419C9.67445 6.74587 9.7661 6.79175 9.86047 6.78177Z" fill="#24AE5F"/>
<path d="M1.04167 12.7574C1.58151 12.9866 2.16126 13.1068 2.74774 13.1113C3.94444 13.1255 5.13562 12.9466 6.27538 12.5814C8.01518 12.0694 9.27719 10.7314 10.1532 9.36162C10.8198 8.29724 11.3446 7.15043 11.714 5.95014C11.7079 5.93691 11.7019 5.92422 11.6959 5.91185C11.6899 5.89949 11.6838 5.88745 11.6779 5.87541C11.5164 5.88387 11.3833 6.06999 11.1411 6.27272C10.8036 6.55516 10.3883 6.72838 9.95011 6.76939C9.93569 6.77177 9.92126 6.77427 9.90651 6.77633C9.89176 6.77839 9.87668 6.78023 9.86095 6.78142C9.76648 6.79227 9.67439 6.74672 9.6258 6.66482C9.57623 6.58456 9.5797 6.48238 9.63447 6.40559C9.85434 6.12141 9.99632 5.78484 10.0462 5.42907C10.0776 5.11061 9.99491 4.7915 9.81279 4.52847H9.81041C9.76333 4.5429 9.71637 4.55917 9.67157 4.5775C9.62797 4.59496 9.58577 4.61568 9.54532 4.63933C8.77965 5.09629 8.12387 5.71618 7.62449 6.45494C7.07532 7.25173 6.64449 8.1238 6.34534 9.04414C6.24892 9.3345 6.16334 9.62899 6.08958 9.92543C6.01572 10.2219 5.95378 10.52 5.90432 10.8176C5.37414 11.0103 4.86554 11.2577 4.38655 11.5559C3.97113 11.8076 3.6262 12.1605 3.38389 12.5814C2.95784 12.5388 2.5295 12.5238 2.1016 12.5365C1.75115 12.541 1.40438 12.6084 1.07779 12.7357L1.05978 12.7465L1.04167 12.7574Z" fill="#E64C3C"/>
</g>
<defs>
<clipPath id="clip0">
<rect width="14" height="14" fill="white" transform="matrix(-1 0 0 1 14.2417 0.5)"/>
</clipPath>
</defs>
</svg>
