<svg width="301" height="114" viewBox="0 0 301 114" fill="none" xmlns="http://www.w3.org/2000/svg">
<g filter="url(#filter0_ii)">
<path d="M0 92.4716H52.6811V110.582H77.8764V92.4716H90.9268V71.6974H77.8764V1.49148H44.6911L0 71.9105V92.4716ZM53.2138 71.6974H26.2074V70.8452L52.3615 29.4034H53.2138V71.6974Z" fill="#44C373"/>
<path d="M149.867 113.246C178.418 113.299 195.943 92.2053 195.996 56.1967C196.049 20.4013 178.418 0 149.867 0C121.316 0 103.844 20.348 103.791 56.1967C103.684 92.0987 121.316 113.246 149.867 113.246ZM149.867 91.6726C138.521 91.6726 130.797 80.2734 130.904 56.1967C130.957 32.5994 138.574 21.4134 149.867 21.4134C161.213 21.4134 168.83 32.5994 168.883 56.1967C168.936 80.2734 161.266 91.6726 149.867 91.6726Z" fill="#44C373"/>
<path d="M209.766 92.4716H262.447V110.582H287.642V92.4716H300.692V71.6974H287.642V1.49148H254.457L209.766 71.9105V92.4716ZM262.979 71.6974H235.973V70.8452L262.127 29.4034H262.979V71.6974Z" fill="#44C373"/>
</g>
<defs>
<filter id="filter0_ii" x="0" y="-3" width="300.692" height="118.246" filterUnits="userSpaceOnUse" color-interpolation-filters="sRGB">
<feFlood flood-opacity="0" result="BackgroundImageFix"/>
<feBlend mode="normal" in="SourceGraphic" in2="BackgroundImageFix" result="shape"/>
<feColorMatrix in="SourceAlpha" type="matrix" values="0 0 0 0 0 0 0 0 0 0 0 0 0 0 0 0 0 0 127 0" result="hardAlpha"/>
<feOffset dy="-4"/>
<feGaussianBlur stdDeviation="1.5"/>
<feComposite in2="hardAlpha" operator="arithmetic" k2="-1" k3="1"/>
<feColorMatrix type="matrix" values="0 0 0 0 0 0 0 0 0 0.3875 0 0 0 0 0.108392 0 0 0 0.3 0"/>
<feBlend mode="normal" in2="shape" result="effect1_innerShadow"/>
<feColorMatrix in="SourceAlpha" type="matrix" values="0 0 0 0 0 0 0 0 0 0 0 0 0 0 0 0 0 0 127 0" result="hardAlpha"/>
<feOffset dy="3"/>
<feGaussianBlur stdDeviation="1"/>
<feComposite in2="hardAlpha" operator="arithmetic" k2="-1" k3="1"/>
<feColorMatrix type="matrix" values="0 0 0 0 0.641667 0 0 0 0 1 0 0 0 0 0.774278 0 0 0 1 0"/>
<feBlend mode="normal" in2="effect1_innerShadow" result="effect2_innerShadow"/>
</filter>
</defs>
</svg>
