<svg width="20" height="20" viewBox="0 0 20 20" fill="none" xmlns="http://www.w3.org/2000/svg">
<path d="M9.99968 13.7064C9.44055 13.7064 8.97186 14.1751 8.97186 14.7342C8.97186 15.2933 9.44055 15.762 9.99968 15.762C10.5383 15.762 11.0275 15.2933 11.0028 14.7589C11.0275 14.1709 10.5629 13.7064 9.99968 13.7064Z" fill="#FFA402"/>
<path d="M19.5133 17.349C20.1588 16.2348 20.1629 14.9069 19.5215 13.7968L13.0832 2.64693C12.446 1.52455 11.2948 0.858513 10.0039 0.858513C8.71291 0.858513 7.56174 1.52866 6.92449 2.64282L0.477959 13.805C-0.163405 14.9274 -0.159294 16.2636 0.490293 17.3778C1.13166 18.4796 2.27871 19.1415 3.56144 19.1415H16.4216C17.7085 19.1415 18.8637 18.4714 19.5133 17.349ZM18.1155 16.5432C17.7578 17.1599 17.1247 17.5258 16.4175 17.5258H3.55733C2.85841 17.5258 2.22938 17.1681 1.87992 16.5637C1.52634 15.9511 1.52223 15.2193 1.8758 14.6026L8.32234 3.44453C8.6718 2.83194 9.29672 2.47015 10.0039 2.47015C10.7069 2.47015 11.3359 2.83605 11.6854 3.44864L18.1278 14.6067C18.4732 15.207 18.469 15.9306 18.1155 16.5432Z" fill="#FFA402"/>
<path d="M9.74478 6.491C9.25553 6.63078 8.95129 7.07481 8.95129 7.61339C8.97596 7.93818 8.99652 8.26709 9.02119 8.59188C9.09108 9.82938 9.16097 11.0422 9.23086 12.2797C9.25553 12.6991 9.58032 13.0033 9.99968 13.0033C10.419 13.0033 10.7479 12.6785 10.7685 12.2551C10.7685 12.0002 10.7685 11.7658 10.7932 11.5068C10.8384 10.7133 10.8877 9.91983 10.9329 9.12635C10.9576 8.61244 11.0028 8.09852 11.0275 7.58461C11.0275 7.3996 11.0028 7.23515 10.9329 7.07069C10.7233 6.61023 10.234 6.37588 9.74478 6.491Z" fill="#FFA402"/>
</svg>
