<svg width="25" height="25" viewBox="0 0 25 25" fill="none" xmlns="http://www.w3.org/2000/svg">
<path d="M24.0232 19.1712H5.82824V17.8464H21.1679C21.7073 17.8464 22.1445 17.409 22.1445 16.8698V8.7117C22.1445 8.2589 21.8334 7.8656 21.3928 7.76127L5.82824 4.07894V2.89829C5.82824 2.52732 5.61786 2.18838 5.2856 2.02358L1.41044 0.10155C0.927119 -0.138395 0.341182 0.0592065 0.101619 0.542338C-0.137944 1.02547 0.0594662 1.6116 0.542598 1.85116L3.87512 3.50407V20.1478C3.87512 20.6872 4.31228 21.1243 4.85168 21.1243H6.93851C6.83303 21.4255 6.77486 21.7488 6.77486 22.0855C6.77486 23.6922 8.08216 24.9995 9.6889 24.9995C11.2958 24.9995 12.6031 23.6922 12.6031 22.0855C12.6031 21.7488 12.545 21.4255 12.4395 21.1243H17.4551C17.3496 21.4255 17.2914 21.7488 17.2914 22.0855C17.2914 23.6922 18.5987 24.9995 20.2056 24.9995C21.8124 24.9995 23.1197 23.6922 23.1197 22.0855C23.1197 21.7488 23.0615 21.4255 22.956 21.1243H24.0232C24.5626 21.1243 24.9998 20.6872 24.9998 20.1478C24.9998 19.6086 24.5626 19.1712 24.0232 19.1712ZM5.82824 6.08605L20.1913 9.48418V15.8933H5.82824V6.08605ZM9.6889 23.0464C9.15904 23.0464 8.72798 22.6153 8.72798 22.0855C8.72798 21.5556 9.15904 21.1243 9.6889 21.1243C10.219 21.1243 10.65 21.5556 10.65 22.0855C10.65 22.6153 10.219 23.0464 9.6889 23.0464ZM20.2056 23.0464C19.6756 23.0464 19.2445 22.6153 19.2445 22.0855C19.2445 21.5556 19.6756 21.1243 20.2056 21.1243C20.7355 21.1243 21.1666 21.5556 21.1666 22.0855C21.1666 22.6153 20.7355 23.0464 20.2056 23.0464Z" fill="white"/>
</svg>
