<svg width="22" height="22" viewBox="0 0 22 22" fill="none" xmlns="http://www.w3.org/2000/svg">
<path d="M11 2.75C6.45081 2.75 2.75 6.45081 2.75 11C2.75 15.5492 6.45081 19.25 11 19.25C15.5492 19.25 19.25 15.5492 19.25 11C19.25 6.45081 15.5492 2.75 11 2.75ZM11 17.75C7.2782 17.75 4.25 14.7218 4.25 11C4.25 7.2782 7.2782 4.25 11 4.25C14.7218 4.25 17.75 7.2782 17.75 11C17.75 14.7218 14.7218 17.75 11 17.75Z" fill="#44C373" stroke="#44C373" stroke-width="0.5"/>
<path d="M10.2499 11.207V11.3105L10.3232 11.3837L13.1161 14.1767C13.409 14.4696 13.8838 14.4696 14.1767 14.1767C14.4696 13.8838 14.4696 13.409 14.1767 13.1161L11.7499 10.6893V6.49994C11.7499 6.08573 11.4142 5.74994 10.9999 5.74994C10.5857 5.74994 10.2499 6.08573 10.2499 6.49994V11.207Z" fill="#44C373" stroke="#44C373" stroke-width="0.5"/>
</svg>
