<svg width="17" height="18" viewBox="0 0 17 18" fill="none" xmlns="http://www.w3.org/2000/svg">
<path d="M16.4091 8.40336L13.2271 5.2214C13.1488 5.14305 13.0558 5.08089 12.9534 5.03849C12.851 4.99608 12.7413 4.97426 12.6305 4.97426C12.5197 4.97426 12.41 4.99608 12.3076 5.03849C12.2052 5.08089 12.1122 5.14305 12.0339 5.2214C11.8756 5.37964 11.7867 5.59425 11.7867 5.81802C11.7867 6.0418 11.8756 6.25641 12.0339 6.41464L13.7755 8.15625H4.5625C4.33872 8.15625 4.12411 8.24514 3.96588 8.40337C3.80764 8.56161 3.71875 8.77622 3.71875 9C3.71875 9.22377 3.80764 9.43838 3.96588 9.59662C4.12411 9.75485 4.33872 9.84375 4.5625 9.84375H13.7755L12.0339 11.5854C11.8756 11.7436 11.7867 11.9582 11.7867 12.182C11.7868 12.4058 11.8757 12.6204 12.0339 12.7786C12.1921 12.9368 12.4067 13.0257 12.6305 13.0257C12.8543 13.0257 13.0689 12.9368 13.2271 12.7786L16.4091 9.5966C16.5674 9.43836 16.6563 9.22375 16.6563 8.99998C16.6563 8.7762 16.5674 8.56159 16.4091 8.40336Z" fill="#44C373"/>
<path d="M10.1875 13.7812C9.96372 13.7812 9.74911 13.8701 9.59088 14.0284C9.43264 14.1866 9.34375 14.4012 9.34375 14.625V15.4688H2.03125V2.53125H9.34375V3.375C9.34375 3.59878 9.43264 3.81339 9.59088 3.97162C9.74911 4.12986 9.96372 4.21875 10.1875 4.21875C10.4113 4.21875 10.6259 4.12986 10.7841 3.97162C10.9424 3.81339 11.0312 3.59878 11.0312 3.375V2.25C11.0312 2.06533 10.9949 1.88247 10.9242 1.71185C10.8535 1.54124 10.75 1.38621 10.6194 1.25563C10.4888 1.12505 10.3338 1.02147 10.1631 0.950794C9.99253 0.880124 9.80967 0.84375 9.625 0.84375H1.75C1.37704 0.84375 1.01935 0.991908 0.755631 1.25563C0.491908 1.51935 0.34375 1.87704 0.34375 2.25V15.75C0.34375 16.123 0.491908 16.4806 0.755631 16.7444C1.01935 17.0081 1.37704 17.1562 1.75 17.1562H9.625C9.80967 17.1562 9.99253 17.1199 10.1631 17.0492C10.3338 16.9785 10.4888 16.875 10.6194 16.7444C10.75 16.6138 10.8535 16.4588 10.9242 16.2881C10.9949 16.1175 11.0312 15.9347 11.0312 15.75V14.625C11.0312 14.4012 10.9424 14.1866 10.7841 14.0284C10.6259 13.8701 10.4113 13.7812 10.1875 13.7812Z" fill="#44C373"/>
</svg>
