<svg width="20" height="21" viewBox="0 0 20 21" fill="none" xmlns="http://www.w3.org/2000/svg">
<rect width="20" height="20" rx="10" fill="#44C373"/>
<g filter="url(#filter0_d)">
<path d="M10.117 9.99551C8.90917 7.30836 6.84833 5.04263 4.21956 3.5117C3.89263 3.31075 3.46071 3.35872 3.19188 3.62584C3.04291 3.78735 2.97573 4.00225 3.00788 4.21442C3.04003 4.42659 3.16833 4.61498 3.35927 4.73041C7.32984 7.10154 9.58761 10.835 9.58761 14.9771V16.2179C9.57604 16.5974 9.86153 16.9271 10.2572 16.9911C10.4836 17.0247 10.7142 16.9622 10.8875 16.8203C11.0608 16.6784 11.1591 16.4715 11.1564 16.2547V14.9845C11.1564 12.5471 12.1451 10.1354 14.0993 7.81215C14.2428 7.64285 14.3001 7.42231 14.2558 7.20939C14.2115 6.99647 14.0702 6.81286 13.8696 6.70758C13.5222 6.53671 13.0952 6.6268 12.8575 6.92113C12.0571 7.86839 11.3752 8.90004 10.8255 9.99551C10.7623 10.1268 10.6238 10.211 10.4713 10.211C10.3187 10.211 10.1803 10.1268 10.117 9.99551Z" fill="#F2F2F2"/>
<path d="M12.1724 7.80855C11.3316 6.9433 11.3433 5.48896 12.2347 4.45435C13.1729 3.36819 16.5712 3 16.5712 3C16.5712 3 17.6767 5.46318 16.3376 7.01694C16.3376 7.01694 15.3411 8.28351 12.8614 8.1436L12.1724 7.80855Z" fill="#F2F2F2"/>
</g>
<defs>
<filter id="filter0_d" x="1" y="3" width="18" height="18" filterUnits="userSpaceOnUse" color-interpolation-filters="sRGB">
<feFlood flood-opacity="0" result="BackgroundImageFix"/>
<feColorMatrix in="SourceAlpha" type="matrix" values="0 0 0 0 0 0 0 0 0 0 0 0 0 0 0 0 0 0 127 0"/>
<feOffset dy="2"/>
<feGaussianBlur stdDeviation="1"/>
<feColorMatrix type="matrix" values="0 0 0 0 0.225208 0 0 0 0 0.5875 0 0 0 0 0.326549 0 0 0 1 0"/>
<feBlend mode="normal" in2="BackgroundImageFix" result="effect1_dropShadow"/>
<feBlend mode="normal" in="SourceGraphic" in2="effect1_dropShadow" result="shape"/>
</filter>
</defs>
</svg>
