<svg width="40" height="40" viewBox="0 0 40 40" fill="none" xmlns="http://www.w3.org/2000/svg">
<g clip-path="url(#clip0)">
<path d="M1.49361 38.8414C1.49361 38.8414 0.507677 38.1641 1.49361 35.7031C2.68736 32.7141 3.17174 30.2266 3.37877 25.1281C3.5858 20.0297 4.45299 14.0625 9.65924 8.80703C13.7999 4.63203 19.0655 3.37735 26.4249 3.09922C31.8671 2.89297 35.6436 1.47813 36.5811 0.999221C37.5186 0.520315 39.328 0.678909 39.121 2.53281C38.9139 4.38672 36.8663 7.16797 36.4514 15.1508C36.0366 23.1336 34.4046 28.393 29.3569 32.2922C21.4061 38.4375 15.078 36.0156 9.70846 37.0133C8.03424 37.3258 5.25065 38.4133 4.29205 38.8414C2.22643 39.7656 1.49361 38.8414 1.49361 38.8414Z" fill="#E7A561"/>
<path d="M39.5515 2.57814C39.4827 3.18752 39.239 3.86564 38.9343 4.72424C38.2312 6.68986 37.1702 9.66017 36.8835 15.1711C36.4991 22.5813 35.1171 28.3859 29.6226 32.6305C23.828 37.1094 18.9062 37.1297 14.5616 37.1461C12.8757 37.1523 11.2804 37.1578 9.7874 37.4359C8.09209 37.7484 5.29443 38.8641 4.46787 39.2328C3.72803 39.5648 3.1249 39.6789 2.65615 39.6789C2.45551 39.6798 2.25546 39.6573 2.06006 39.6117C2.09053 39.4969 2.25615 39.207 2.57959 38.8234C3.47568 37.7586 5.58271 35.9789 9.37646 35.268C13.7257 34.4531 16.3444 35.4586 17.9827 35.268C20.064 35.0258 25.4444 33.932 30.789 28.2922C35.164 23.6828 34.7147 15.7813 34.8452 12.9125C34.9554 10.4906 35.3312 4.24924 37.2382 1.23205C37.4317 0.916793 37.6611 0.625006 37.9218 0.362518C38.246 0.399728 38.5567 0.513829 38.828 0.695331C39.3858 1.08361 39.6437 1.75314 39.5515 2.57814Z" fill="#DB8648"/>
<path d="M38.828 0.695324C38.5567 0.513823 38.246 0.399721 37.9217 0.362512C37.3973 0.297065 36.8652 0.384986 36.3897 0.615637C35.3999 1.11954 31.6788 2.46954 26.4061 2.66954C22.3499 2.82579 19.2663 3.27189 16.703 4.08204C13.7967 5.00001 11.3905 6.44689 9.35143 8.50392C4.08737 13.8164 3.16003 19.8781 2.94518 25.111C2.74675 29.9914 2.29597 32.5258 1.08972 35.5406C0.0920596 38.0352 0.956122 38.9617 1.19831 39.1602C1.43769 39.387 1.73556 39.5425 2.05847 39.6094C2.25387 39.6549 2.45392 39.6775 2.65456 39.6766C3.12878 39.6766 3.728 39.5625 4.46784 39.232C5.2944 38.8617 8.09206 37.7477 9.78737 37.4352C11.2827 37.157 12.8757 37.1516 14.5616 37.1453C18.9061 37.1297 23.828 37.1094 29.6225 32.632C35.1171 28.3875 36.4975 22.5828 36.8835 15.1727C37.1702 9.66173 38.2319 6.69142 38.9342 4.72579C39.2405 3.86642 39.4811 3.18907 39.5514 2.5797C39.6436 1.75314 39.3858 1.08361 38.828 0.695324ZM38.7007 2.48439C38.6436 2.99454 38.4155 3.63048 38.128 4.43751C37.4085 6.45001 36.3217 9.49142 36.0288 15.1289C35.5788 23.7281 33.6366 28.4453 29.0975 31.9531C23.5311 36.25 18.7639 36.2719 14.5585 36.2875C12.8327 36.2938 11.1991 36.2992 9.63034 36.5914C7.85847 36.9211 4.96862 38.0695 4.11706 38.45C3.43737 38.75 2.93425 38.836 2.578 38.8235C2.09284 38.807 1.87487 38.6156 1.82956 38.5727L1.82097 38.536L1.74284 38.4922C1.67565 38.4266 1.11784 37.7992 1.8905 35.8594C3.1405 32.7406 3.60378 30.1375 3.8069 25.1453C4.01315 20.0781 4.90534 14.2078 9.96237 9.10939C14.203 4.83439 19.6171 3.78673 26.4413 3.52814C31.8663 3.32267 35.7428 1.90861 36.7796 1.38126C36.924 1.30997 37.0779 1.25973 37.2366 1.23204C37.6147 1.16173 38.0421 1.19845 38.335 1.40236C38.628 1.60626 38.7546 1.97189 38.6975 2.48439H38.7007Z" fill="black"/>
<path d="M32.7586 7.79767C32.7586 7.79767 32.1829 11.1125 32.1876 13.9063C32.2047 20.6352 31.2876 23.382 28.918 26.4617C26.5485 29.5414 23.1774 31.8422 17.5001 31.8664C13.4907 31.8836 10.7813 32.2094 9.00943 32.557C8.6813 32.6211 8.38443 32.6867 8.1188 32.7508C6.41333 33.1609 7.00943 32.0703 7.1813 30.8531C7.35318 29.6359 7.37349 27.7438 7.40083 25.3133C7.43365 22.4094 6.83755 19.0266 10.2493 13.4836C13.661 7.94064 20.3415 7.27658 23.8946 7.46798C27.4477 7.65939 29.4415 7.44064 31.286 6.77189C31.7844 6.59142 32.1211 6.58361 32.3461 6.66798C32.961 6.89377 32.7586 7.79767 32.7586 7.79767Z" fill="#F9D11F"/>
<path d="M7.51412 33.2696C7.23756 33.2696 6.9735 33.2055 6.77584 33.0141C6.38521 32.6352 6.511 32.0438 6.64303 31.4172C6.686 31.2141 6.73053 31.0031 6.76021 30.7922C6.92662 29.6203 6.94771 27.7696 6.97428 25.4242V25.3078C6.97896 24.9274 6.97428 24.5406 6.9649 24.1313C6.91959 21.475 6.86256 18.1695 9.88678 13.257C11.443 10.7281 13.7985 8.93048 16.8876 7.91564C19.7454 6.97814 22.5212 6.96173 23.9188 7.03595C27.3305 7.2172 29.2876 7.03595 31.1407 6.36486C31.6985 6.16252 32.1422 6.13048 32.4977 6.26252C33.2501 6.5422 33.279 7.4047 33.1774 7.87892C33.1446 8.07267 32.6102 11.2524 32.6165 13.9078C32.6329 20.3649 31.8485 23.361 29.2571 26.7266C27.9063 28.4836 26.3977 29.7805 24.6477 30.6922C22.5977 31.7594 20.2602 32.2836 17.5024 32.2953C14.1594 32.3094 11.3305 32.5391 9.09225 32.9781C8.7985 33.0352 8.50475 33.0992 8.21959 33.168C7.98913 33.2289 7.7524 33.263 7.51412 33.2696ZM7.37975 32.3953C7.42506 32.4086 7.5899 32.4367 8.02115 32.3336C8.31803 32.2617 8.62428 32.1953 8.92975 32.136C11.2196 31.6867 14.104 31.4524 17.5008 31.4375C22.329 31.4172 25.8501 29.7539 28.5797 26.2031C30.7485 23.3844 31.7782 20.8258 31.7602 13.911C31.7532 11.1078 32.3118 7.86095 32.3352 7.72423V7.70548C32.3352 7.69064 32.4337 7.15861 32.1962 7.06877C32.1251 7.0422 31.9118 7.00002 31.4321 7.17423C29.4594 7.8883 27.4102 8.08361 23.8719 7.89533C21.054 7.74455 14.1219 8.01017 10.6157 13.7086C7.72506 18.4071 7.77584 21.443 7.82115 24.1172C7.82818 24.5328 7.83521 24.925 7.83053 25.318V25.4344C7.80631 27.8125 7.78521 29.6875 7.611 30.9141C7.57662 31.1524 7.5274 31.3875 7.48365 31.5946C7.42662 31.8641 7.34381 32.2656 7.37975 32.3953Z" fill="black"/>
<path d="M14.4531 13.9586C13.3984 14.8961 12.8125 16.8578 13.3594 19.4274C13.9063 21.9969 12.9023 23.1938 12.4727 23.7141C12.043 24.2344 11.7188 26.2891 13.2813 26.9531C15.5914 27.9352 19.5859 28.7383 23.1773 25.3125C25.1563 23.4242 25.4594 22.0594 25.7555 21.0867C26.3508 19.1203 26.3102 17.2852 27.4281 16.1399C28.2828 15.2641 28.4125 13.2102 26.2773 13.6453C24.1203 14.0852 22.2656 13.6719 20.8594 13.125C19.4531 12.5781 17.1797 11.5352 14.4531 13.9586Z" fill="white"/>
<path d="M7.51412 33.2696C7.23756 33.2696 6.9735 33.2055 6.77584 33.0141C6.38521 32.6352 6.511 32.0438 6.64303 31.4172C6.686 31.2141 6.73053 31.0031 6.76021 30.7922C6.92662 29.6203 6.94771 27.7696 6.97428 25.4242V25.3078C6.97896 24.9274 6.97428 24.5406 6.9649 24.1313C6.91959 21.475 6.86256 18.1695 9.88678 13.257C11.443 10.7281 13.7985 8.93048 16.8876 7.91564C19.7454 6.97814 22.5212 6.96173 23.9188 7.03595C27.3305 7.2172 29.2876 7.03595 31.1407 6.36486C31.6985 6.16252 32.1422 6.13048 32.4977 6.26252C33.2501 6.5422 33.279 7.4047 33.1774 7.87892C33.1446 8.07267 32.6102 11.2524 32.6165 13.9078C32.6329 20.3649 31.8485 23.361 29.2571 26.7266C27.9063 28.4836 26.3977 29.7805 24.6477 30.6922C22.5977 31.7594 20.2602 32.2836 17.5024 32.2953C14.1594 32.3094 11.3305 32.5391 9.09225 32.9781C8.7985 33.0352 8.50475 33.0992 8.21959 33.168C7.98913 33.2289 7.7524 33.263 7.51412 33.2696ZM7.37975 32.3953C7.42506 32.4086 7.5899 32.4367 8.02115 32.3336C8.31803 32.2617 8.62428 32.1953 8.92975 32.136C11.2196 31.6867 14.104 31.4524 17.5008 31.4375C22.329 31.4172 25.8501 29.7539 28.5797 26.2031C30.7485 23.3844 31.7782 20.8258 31.7602 13.911C31.7532 11.1078 32.3118 7.86095 32.3352 7.72423V7.70548C32.3352 7.69064 32.4337 7.15861 32.1962 7.06877C32.1251 7.0422 31.9118 7.00002 31.4321 7.17423C29.4594 7.8883 27.4102 8.08361 23.8719 7.89533C21.054 7.74455 14.1219 8.01017 10.6157 13.7086C7.72506 18.4071 7.77584 21.443 7.82115 24.1172C7.82818 24.5328 7.83521 24.925 7.83053 25.318V25.4344C7.80631 27.8125 7.78521 29.6875 7.611 30.9141C7.57662 31.1524 7.5274 31.3875 7.48365 31.5946C7.42662 31.8641 7.34381 32.2656 7.37975 32.3953Z" fill="black"/>
<path d="M19.5311 23.0734C21.5448 23.0734 23.1772 21.441 23.1772 19.4273C23.1772 17.4137 21.5448 15.7812 19.5311 15.7812C17.5174 15.7812 15.885 17.4137 15.885 19.4273C15.885 21.441 17.5174 23.0734 19.5311 23.0734Z" fill="#F9D11F"/>
<path d="M19.5311 23.5023C18.725 23.5023 17.937 23.2633 17.2667 22.8155C16.5965 22.3676 16.0741 21.7311 15.7656 20.9863C15.4571 20.2415 15.3764 19.422 15.5336 18.6314C15.6909 17.8408 16.0791 17.1146 16.6491 16.5446C17.2191 15.9745 17.9453 15.5864 18.736 15.4291C19.5266 15.2718 20.3461 15.3526 21.0909 15.661C21.8356 15.9695 22.4722 16.4919 22.92 17.1622C23.3679 17.8324 23.6069 18.6205 23.6069 19.4266C23.6057 20.5072 23.1759 21.5431 22.4118 22.3072C21.6477 23.0713 20.6117 23.5011 19.5311 23.5023ZM19.5311 16.2109C18.895 16.2109 18.2731 16.3996 17.7442 16.753C17.2152 17.1064 16.803 17.6088 16.5595 18.1965C16.3161 18.7842 16.2524 19.4309 16.3765 20.0548C16.5006 20.6788 16.8069 21.2519 17.2568 21.7017C17.7066 22.1515 18.2797 22.4578 18.9036 22.582C19.5275 22.7061 20.1743 22.6424 20.762 22.3989C21.3497 22.1555 21.852 21.7432 22.2055 21.2143C22.5589 20.6854 22.7475 20.0635 22.7475 19.4273C22.7467 18.5746 22.4076 17.7569 21.8045 17.1539C21.2015 16.5509 20.3839 16.2118 19.5311 16.2109Z" fill="black"/>
<path d="M26.4307 25.7517C26.3369 25.7519 26.2455 25.7214 26.1707 25.6649C26.0958 25.6083 26.0415 25.5287 26.0161 25.4384C25.9906 25.3481 25.9955 25.2519 26.0299 25.1646C26.0643 25.0772 26.1263 25.0036 26.2065 24.9548C28.0479 23.8322 28.5237 21.3767 28.5284 21.3517C28.5491 21.2396 28.6135 21.1403 28.7074 21.0757C28.8013 21.0111 28.9171 20.9864 29.0292 21.0072C29.1413 21.0279 29.2405 21.0923 29.3051 21.1862C29.3698 21.2801 29.3944 21.3958 29.3737 21.5079C29.3526 21.6236 28.8268 24.3626 26.6542 25.6892C26.5869 25.7302 26.5096 25.7519 26.4307 25.7517Z" fill="black"/>
<path d="M27.6152 24.704H27.5761C27.5196 24.6991 27.4646 24.6831 27.4143 24.6568C27.364 24.6306 27.3195 24.5946 27.2831 24.551C27.2468 24.5074 27.2195 24.4571 27.2027 24.4029C27.186 24.3487 27.1801 24.2917 27.1855 24.2353C27.248 23.5423 26.7542 22.8228 26.7488 22.8157C26.6862 22.7224 26.6627 22.6083 26.6833 22.4979C26.7039 22.3874 26.7668 22.2894 26.8588 22.2249C26.9507 22.1603 27.0643 22.1343 27.1751 22.1525C27.286 22.1706 27.3853 22.2315 27.4519 22.322C27.48 22.3618 28.1316 23.3017 28.0409 24.3118C28.0316 24.4185 27.9828 24.5178 27.904 24.5904C27.8252 24.6629 27.7222 24.7035 27.6152 24.704Z" fill="black"/>
<path d="M28.0414 23.9556C27.9594 23.9555 27.879 23.932 27.8099 23.8877C27.7408 23.8434 27.6859 23.7803 27.6515 23.7057C27.6172 23.6312 27.6049 23.5484 27.6161 23.4671C27.6273 23.3858 27.6616 23.3094 27.7149 23.247C28.3539 22.4978 29.6891 22.4892 29.8399 22.4915C29.9538 22.4927 30.0627 22.539 30.1424 22.6204C30.2222 22.7018 30.2664 22.8115 30.2653 22.9255C30.2641 23.0395 30.2178 23.1483 30.1364 23.2281C30.055 23.3079 29.9452 23.352 29.8313 23.3509C29.5539 23.3509 28.6899 23.429 28.368 23.8048C28.3277 23.8521 28.2777 23.89 28.2213 23.9161C28.1649 23.9421 28.1035 23.9556 28.0414 23.9556Z" fill="black"/>
<path d="M20.2587 21.825C20.1678 21.8251 20.0796 21.7944 20.0083 21.7379C19.9371 21.6815 19.8871 21.6026 19.8665 21.5141C19.8458 21.4256 19.8557 21.3327 19.8946 21.2506C19.9335 21.1684 19.999 21.1019 20.0805 21.0617C20.9047 20.6547 21.3305 19.8289 21.218 18.8508C21.2081 18.746 21.2397 18.6415 21.3059 18.5596C21.3722 18.4778 21.4679 18.4253 21.5725 18.4132C21.6771 18.4011 21.7822 18.4306 21.8654 18.4951C21.9485 18.5597 22.003 18.6543 22.0173 18.7586C22.168 20.0688 21.5618 21.2274 20.436 21.7828C20.3809 21.8103 20.3202 21.8248 20.2587 21.825Z" fill="black"/>
<path d="M16.725 35.5344C15.9141 35.5344 15.0461 35.4945 14.054 35.45C13.7266 35.4352 13.3852 35.4195 13.0274 35.4047C12.9809 35.4052 12.9349 35.3962 12.892 35.3783C12.8491 35.3604 12.8104 35.334 12.778 35.3006C12.7457 35.2672 12.7205 35.2276 12.704 35.1842C12.6875 35.1408 12.68 35.0945 12.6819 35.0481C12.6839 35.0016 12.6953 34.9561 12.7154 34.9142C12.7356 34.8724 12.764 34.835 12.799 34.8045C12.8341 34.774 12.8749 34.7509 12.9192 34.7367C12.9634 34.7225 13.0101 34.7175 13.0563 34.7219C13.4149 34.7367 13.7594 34.7524 14.0852 34.7672C17.8985 34.9406 19.8125 35.0281 23.9118 33.0063C23.9925 32.9706 24.0839 32.9676 24.1668 32.9977C24.2497 33.0278 24.3178 33.0889 24.3568 33.168C24.3958 33.2472 24.4028 33.3383 24.3762 33.4224C24.3496 33.5066 24.2915 33.5772 24.2141 33.6195C21.0321 35.1883 19.1258 35.5344 16.725 35.5344Z" fill="black"/>
<path d="M5.17342 37.1547C5.11109 37.1545 5.04999 37.1373 4.99673 37.1049C4.94346 37.0725 4.90006 37.0262 4.87119 36.971C4.84232 36.9157 4.82909 36.8537 4.83292 36.7914C4.83676 36.7292 4.85752 36.6692 4.89295 36.618C5.07342 36.3578 6.76795 35.2562 9.84529 34.8531C9.89061 34.8455 9.937 34.8471 9.98168 34.8579C10.0264 34.8686 10.0684 34.8882 10.1054 34.9156C10.1423 34.9429 10.1734 34.9774 10.1967 35.017C10.22 35.0566 10.2351 35.1005 10.2411 35.146C10.2471 35.1916 10.2438 35.2379 10.2315 35.2822C10.2192 35.3265 10.1981 35.3678 10.1695 35.4038C10.1409 35.4397 10.1053 35.4695 10.0649 35.4914C10.0245 35.5133 9.98009 35.5269 9.93435 35.5312C7.1656 35.8945 5.62498 36.8531 5.43748 37.0313C5.40531 37.07 5.36494 37.1012 5.31929 37.1226C5.27363 37.1439 5.22382 37.1549 5.17342 37.1547ZM5.45467 37.0078L5.44217 37.025C5.44764 37.0188 5.45154 37.0133 5.45467 37.0086V37.0078Z" fill="black"/>
<path d="M17.2422 28.2313C15.5875 28.2313 14.1305 27.7805 13.1125 27.3485C12.4196 27.0539 11.9563 26.5008 11.7719 25.7477C11.5524 24.8492 11.7868 23.8688 12.1399 23.4399L12.1477 23.4305C12.5665 22.9227 13.4375 21.868 12.9375 19.5164C12.5821 17.8461 12.6602 16.3195 13.1625 15.1008C13.2068 14.9967 13.2903 14.9142 13.395 14.8713C13.4997 14.8284 13.6171 14.8285 13.7217 14.8716C13.8263 14.9147 13.9097 14.9973 13.9537 15.1015C13.9978 15.2057 13.999 15.3231 13.9571 15.4281C13.5274 16.4703 13.4633 17.8586 13.7782 19.3344C14.3649 22.0906 13.2758 23.411 12.8102 23.9742L12.8024 23.9836C12.6461 24.1719 12.443 24.8719 12.6063 25.5406C12.6528 25.7658 12.7539 25.9761 12.9005 26.1532C13.0472 26.3303 13.2351 26.4687 13.4477 26.5563C14.3782 26.9516 15.7133 27.3641 17.2219 27.3641C18.9844 27.3641 20.9883 26.8031 22.879 25C24.6446 23.3156 25.0126 22.0703 25.2813 21.1609C25.3016 21.093 25.3211 21.0258 25.3407 20.9609C25.5251 20.3524 25.6469 19.7539 25.7649 19.1758C26.0235 17.907 26.268 16.7094 27.1172 15.8391C27.5196 15.4266 27.6954 14.7008 27.486 14.3156C27.2915 13.9594 26.7665 13.9828 26.3602 14.0656C24.5063 14.4438 22.6032 14.2617 20.7024 13.5242L20.5204 13.4531C19.5696 13.0797 18.2665 12.5688 16.7571 13.0625C16.6493 13.0957 16.5327 13.0852 16.4326 13.0333C16.3324 12.9813 16.2568 12.892 16.2219 12.7847C16.187 12.6774 16.1957 12.5607 16.2462 12.4598C16.2966 12.3589 16.3847 12.2818 16.4915 12.2453C18.2938 11.6594 19.8227 12.2594 20.8344 12.657L21.0133 12.7266C22.7821 13.4125 24.4751 13.5766 26.1891 13.2266C27.5047 12.9586 28.0391 13.5391 28.2407 13.907C28.6758 14.7055 28.3188 15.8445 27.7329 16.4422C27.0602 17.1313 26.8501 18.161 26.6079 19.3508C26.486 19.9485 26.3602 20.5672 26.1641 21.2133C26.1448 21.2763 26.1256 21.3412 26.1063 21.4078C25.8102 22.4102 25.4032 23.7828 23.4727 25.6266C21.3876 27.6133 19.1805 28.2313 17.2422 28.2313Z" fill="black"/>
<path d="M14.2968 14.5313C14.2123 14.5318 14.1296 14.5074 14.0589 14.4611C13.9882 14.4149 13.9327 14.3488 13.8994 14.2712C13.8661 14.1936 13.8563 14.1079 13.8714 14.0248C13.8865 13.9417 13.9258 13.8648 13.9843 13.8039C14.0585 13.7258 14.1734 13.6235 14.207 13.5938C14.2491 13.5563 14.2983 13.5274 14.3516 13.5089C14.4049 13.4904 14.4613 13.4826 14.5176 13.4859C14.574 13.4892 14.6291 13.5036 14.6799 13.5282C14.7307 13.5528 14.7761 13.5872 14.8136 13.6293C14.8511 13.6715 14.8799 13.7206 14.8984 13.7739C14.9169 13.8272 14.9248 13.8837 14.9215 13.94C14.9182 13.9963 14.9038 14.0515 14.8792 14.1022C14.8546 14.153 14.8202 14.1985 14.7781 14.236C14.7195 14.2883 14.6429 14.3586 14.6038 14.4C14.5641 14.4413 14.5164 14.4743 14.4636 14.4968C14.4109 14.5194 14.3542 14.5311 14.2968 14.5313Z" fill="black"/>
<path d="M18.864 19.6922C19.5112 19.6922 20.0359 19.1675 20.0359 18.5203C20.0359 17.8731 19.5112 17.3484 18.864 17.3484C18.2168 17.3484 17.6921 17.8731 17.6921 18.5203C17.6921 19.1675 18.2168 19.6922 18.864 19.6922Z" fill="white"/>
<g clip-path="url(#clip1)">
<path d="M32.4797 7.08851C32.4797 7.08851 29.9458 1.85841 25.0508 1.40518C25.0508 1.40518 25.0954 3.20994 26.1754 4.28947C26.1754 4.28947 20.382 3.17966 17.8398 5.45481C17.8398 5.45481 20.0576 7.71841 23.5143 7.50267C23.5143 7.50267 22.134 8.98638 22.1323 9.92652C22.1333 10.0666 22.1706 10.2054 22.2406 10.3301C22.3106 10.4548 22.4111 10.5612 22.5327 10.6396C22.6543 10.718 22.7931 10.7657 22.9362 10.7784C23.0792 10.791 23.222 10.7682 23.3511 10.712C24.0716 10.4071 24.8651 10.4455 26.5386 9.60057C26.5386 9.60057 25.8934 12.7854 27.1053 12.7416C27.1062 12.7421 28.5953 12.5139 32.4797 7.08851Z" fill="#44C373"/>
<path d="M28.3327 1.89277C31.3504 3.57869 32.8938 6.7003 32.9797 6.87285C33.0215 6.9592 33.0398 7.05394 33.0329 7.14765C33.026 7.24136 32.994 7.33076 32.9401 7.40697C29.1232 12.7366 27.5016 13.2289 27.2159 13.2729C27.194 13.2763 27.1719 13.2784 27.1497 13.2792C26.9835 13.2867 26.8165 13.2557 26.6621 13.1888C26.5077 13.1219 26.3703 13.0209 26.261 12.894C25.7948 12.3632 25.774 11.3326 25.8509 10.5113C25.3585 10.7063 24.851 10.8655 24.3322 10.9877C24.0779 11.0428 23.8291 11.1173 23.5879 11.2104C23.372 11.3026 23.1337 11.3388 22.8953 11.3155C22.657 11.2923 22.4263 11.2104 22.2251 11.0775C22.0273 10.9481 21.8645 10.7729 21.752 10.5682C21.6396 10.3635 21.5811 10.1361 21.5822 9.90735C21.5839 9.29759 21.9822 8.58459 22.3765 8.02842C19.3883 7.76722 17.5376 5.91233 17.4552 5.82511C17.4032 5.77223 17.3623 5.71009 17.3347 5.64236C17.3071 5.57463 17.2935 5.50268 17.2947 5.43075C17.2958 5.35881 17.3117 5.28836 17.3413 5.22352C17.371 5.15868 17.4138 5.10078 17.4674 5.05323C19.457 3.27255 23.1376 3.38545 25.0516 3.58934C24.7309 2.89548 24.5465 2.15286 24.5084 1.40141C24.5065 1.32671 24.5205 1.253 24.5495 1.18494C24.5784 1.11688 24.6218 1.05596 24.6767 1.00604C24.7317 0.956125 24.797 0.918286 24.8687 0.894928C24.9403 0.871569 25.0167 0.863196 25.093 0.870342C26.2276 0.978876 27.3333 1.32782 28.3327 1.89277ZM31.8355 7.03009C31.2803 6.04579 29.1696 2.72187 25.6865 2.03738C25.7895 2.58439 26.0267 3.37542 26.5693 3.91886C26.6523 4.00216 26.7071 4.10815 26.7258 4.22155C26.7444 4.33495 26.726 4.44991 26.6731 4.54988C26.6202 4.64985 26.5356 4.72966 26.4315 4.77782C26.3274 4.82598 26.2091 4.84 26.0937 4.81786C26.0423 4.80806 21.2331 3.91663 18.7168 5.49096C19.503 6.08258 21.2044 7.10326 23.4663 6.96305C23.5765 6.95621 23.6876 6.98209 23.7849 7.03732C23.8823 7.09255 23.9614 7.17458 24.012 7.27272C24.0627 7.37086 24.0824 7.48057 24.0688 7.58757C24.0551 7.69457 24.0087 7.7939 23.9355 7.87264C23.4194 8.42863 22.6921 9.43952 22.6911 9.94621C22.6904 9.99316 22.7022 10.0399 22.7253 10.0819C22.7485 10.1239 22.7822 10.1597 22.8231 10.1857C22.8676 10.2152 22.9187 10.2333 22.9714 10.2382C23.0241 10.2431 23.0768 10.2347 23.1243 10.2138C23.4169 10.0991 23.7192 10.0076 24.0283 9.94017C24.8136 9.76052 25.5695 9.48518 26.2785 9.12048C26.3705 9.07425 26.475 9.05514 26.5798 9.06537C26.6846 9.07561 26.7853 9.11478 26.8701 9.17828C26.9549 9.24177 27.0203 9.32697 27.0586 9.42386C27.0969 9.52076 27.1065 9.62533 27.0864 9.72531C26.8785 10.7539 26.8713 11.9012 27.0615 12.1821C27.4132 12.0159 28.8494 11.1531 31.8355 7.03009Z" fill="black"/>
<path d="M36.8221 8.14853C36.9543 8.2149 37.0561 8.329 37.105 8.46573C37.1539 8.60247 37.1459 8.75064 37.0828 8.87765C37.0197 9.00466 36.9066 9.1001 36.7685 9.14299C36.6303 9.18587 36.4784 9.17267 36.3462 9.10631C31.1143 6.77733 26.6884 7.15909 26.6451 7.16165C26.5733 7.16831 26.5003 7.16102 26.4303 7.14017C26.3602 7.11933 26.2946 7.08534 26.2371 7.04016C26.1797 6.99498 26.1314 6.93948 26.0952 6.87683C26.059 6.81419 26.0355 6.74562 26.0261 6.67505C26.0166 6.60449 26.0215 6.53329 26.0402 6.46555C26.059 6.3978 26.0914 6.33481 26.1356 6.2802C26.1797 6.22558 26.2348 6.1804 26.2976 6.14724C26.3603 6.11407 26.4296 6.09357 26.5015 6.0869C26.6939 6.0687 31.2698 5.67616 36.7742 8.12622L36.8221 8.14853Z" fill="black"/>
<path d="M30.0346 6.70918C30.1596 6.77911 30.254 6.89243 30.2982 7.02567C30.3424 7.1589 30.3331 7.30181 30.2721 7.42478C29.8853 8.20211 29.4553 8.95709 28.9842 9.68648C28.9454 9.74518 28.8949 9.79542 28.8356 9.83433C28.7763 9.87324 28.7093 9.90006 28.6385 9.91325C28.5676 9.92645 28.4943 9.92576 28.4226 9.91123C28.351 9.8967 28.2825 9.86862 28.221 9.82857C28.1596 9.78853 28.1063 9.73733 28.0644 9.67787C28.0224 9.61841 27.9925 9.55187 27.9765 9.48205C27.9604 9.41223 27.9584 9.34049 27.9707 9.27093C27.983 9.20137 28.0092 9.13536 28.048 9.07666C28.4952 8.38238 28.9041 7.66435 29.273 6.92552C29.3041 6.86261 29.3478 6.80676 29.4016 6.76116C29.4553 6.71556 29.5182 6.6811 29.5865 6.65976C29.6548 6.63842 29.7272 6.63061 29.7996 6.63677C29.872 6.64294 29.943 6.66296 30.0085 6.69569L30.0324 6.70904L30.0346 6.70918Z" fill="black"/>
</g>
<g clip-path="url(#clip2)">
<path d="M7.30502 34.3635C7.30502 34.3635 11.1966 38.6797 16.0239 37.7501C16.0239 37.7501 15.4779 36.0294 14.1397 35.2938C14.1397 35.2938 20.0128 34.7442 21.8199 31.8505C21.8199 31.8505 19.0589 30.295 15.7994 31.466C15.7994 31.466 16.7113 29.6563 16.4508 28.753C16.4107 28.6187 16.3362 28.4958 16.2343 28.3956C16.1323 28.2954 16.0061 28.2212 15.8674 28.1798C15.7288 28.1384 15.5822 28.1313 15.4413 28.159C15.3003 28.1868 15.1696 28.2485 15.0613 28.3385C14.4543 28.8322 13.6816 29.0166 12.3101 30.2946C12.3101 30.2946 12.0417 27.0562 10.89 27.4361C10.889 27.4359 9.52258 28.0702 7.30502 34.3635Z" fill="#44C373"/>
<path d="M12.736 38.197C9.368 37.4193 7.01541 34.8518 6.88485 34.71C6.82061 34.6388 6.77656 34.5529 6.75709 34.461C6.73763 34.3691 6.74342 34.2743 6.77391 34.1861C8.9534 28.0036 10.3734 27.0786 10.6356 26.9568C10.6556 26.9474 10.6763 26.9392 10.6974 26.9322C10.8549 26.8787 11.0239 26.8619 11.1909 26.8831C11.3578 26.9043 11.5179 26.963 11.6583 27.0544C12.2539 27.4341 12.5613 28.418 12.7164 29.2283C13.1349 28.9037 13.5779 28.6092 14.042 28.3473C14.2709 28.2235 14.4891 28.0826 14.6947 27.9259C14.8763 27.7772 15.0951 27.6759 15.3305 27.6318C15.5659 27.5877 15.8103 27.602 16.0406 27.6735C16.2666 27.7426 16.4718 27.8655 16.6369 28.0307C16.802 28.1959 16.9215 28.398 16.9842 28.618C17.1526 29.2041 16.9689 29.9999 16.7453 30.6439C19.6879 30.0616 21.9823 31.3269 22.0858 31.3877C22.1504 31.424 22.2071 31.4722 22.2525 31.5296C22.2978 31.5869 22.331 31.6522 22.3499 31.7216C22.3689 31.791 22.3733 31.8631 22.3629 31.9337C22.3525 32.0042 22.3275 32.0718 22.2893 32.1323C20.8751 34.3972 17.309 35.315 15.414 35.6528C15.9154 36.2298 16.2996 36.8915 16.5457 37.6025C16.5684 37.6737 16.5755 37.7484 16.5666 37.8219C16.5578 37.8953 16.5332 37.9659 16.4943 38.0292C16.4555 38.0924 16.4032 38.147 16.3409 38.1894C16.2786 38.2318 16.2076 38.2611 16.1324 38.2755C15.0125 38.4877 13.8533 38.4609 12.736 38.197ZM7.93983 34.24C8.74744 35.0305 11.7012 37.6341 15.237 37.3203C14.9856 36.8237 14.5373 36.1301 13.8646 35.7595C13.7617 35.7027 13.6795 35.6162 13.63 35.5125C13.5804 35.4088 13.5661 35.2932 13.589 35.1825C13.6119 35.0717 13.6709 34.9715 13.7575 34.8962C13.844 34.8209 13.9537 34.7745 14.0707 34.7636C14.1228 34.7587 18.9898 34.2738 20.9674 32.0603C20.0475 31.7114 18.1289 31.2056 15.9958 31.9709C15.8918 32.0082 15.778 32.0143 15.6691 31.9884C15.5602 31.9625 15.4613 31.9058 15.3854 31.8257C15.3094 31.7455 15.2598 31.6457 15.2431 31.5391C15.2263 31.4326 15.2432 31.3242 15.2916 31.2282C15.6322 30.5504 16.0488 29.3768 15.9085 28.8899C15.8961 28.8446 15.8717 28.803 15.8378 28.7691C15.8038 28.7352 15.7615 28.7103 15.7149 28.6967C15.664 28.6808 15.6099 28.6777 15.5579 28.6876C15.5058 28.6976 15.4576 28.7204 15.4178 28.7537C15.1688 28.9454 14.904 29.1175 14.626 29.2685C13.9219 29.66 13.2728 30.1352 12.6935 30.6831C12.6181 30.7532 12.5231 30.8007 12.4196 30.8201C12.3161 30.8394 12.2085 30.8299 12.1093 30.7926C12.0102 30.7552 11.9236 30.6917 11.8598 30.6093C11.796 30.5269 11.7576 30.4292 11.7491 30.3275C11.6619 29.2818 11.3489 28.178 11.088 27.9612C10.7966 28.2189 9.65785 29.448 7.93983 34.24Z" fill="black"/>
<path d="M2.83915 34.5563C2.69364 34.5294 2.56409 34.4482 2.47901 34.3305C2.39394 34.2129 2.3603 34.0683 2.38549 33.9288C2.41068 33.7892 2.49265 33.666 2.61335 33.5863C2.73405 33.5066 2.88361 33.4769 3.02912 33.5038C8.70292 34.2817 12.8469 32.681 12.8876 32.6665C12.9548 32.6401 13.027 32.6267 13.1 32.6272C13.173 32.6277 13.2455 32.642 13.3133 32.6694C13.3811 32.6968 13.4429 32.7366 13.4952 32.7867C13.5474 32.8367 13.5891 32.896 13.6178 32.9612C13.6466 33.0263 13.6618 33.096 13.6626 33.1663C13.6635 33.2366 13.6499 33.3061 13.6228 33.3709C13.5956 33.4357 13.5553 33.4944 13.5043 33.5438C13.4532 33.5931 13.3924 33.6321 13.3253 33.6586C13.1455 33.7297 8.86059 35.3825 2.89137 34.5644L2.83915 34.5563Z" fill="black"/>
<path d="M9.75888 34.0461C9.61938 34.0137 9.49715 33.9312 9.41754 33.8156C9.33793 33.7 9.30704 33.5601 9.33128 33.4251C9.48605 32.5707 9.68843 31.7258 9.93756 30.8939C9.9584 30.8268 9.99286 30.7645 10.039 30.7105C10.0851 30.6566 10.142 30.6122 10.2063 30.5798C10.2707 30.5473 10.3413 30.5276 10.4141 30.5215C10.487 30.5155 10.5606 30.5234 10.6308 30.5447C10.701 30.566 10.7664 30.6004 10.8233 30.6458C10.8802 30.6912 10.9274 30.7467 10.9623 30.8093C10.9972 30.8719 11.0191 30.9402 11.0267 31.0104C11.0343 31.0807 11.0275 31.1514 11.0067 31.2185C10.7707 32.01 10.5783 32.8136 10.43 33.6259C10.4177 33.695 10.3913 33.7608 10.3524 33.8196C10.3134 33.8784 10.2627 33.929 10.203 33.9686C10.1434 34.0081 10.076 34.0358 10.0048 34.0501C9.93349 34.0643 9.85975 34.0649 9.78774 34.0517L9.76108 34.0456L9.75888 34.0461Z" fill="black"/>
</g>
</g>
<defs>
<clipPath id="clip0">
<rect width="40" height="40" fill="white"/>
</clipPath>
<clipPath id="clip1">
<rect width="19" height="11" fill="white" transform="translate(32.5869 16.8698) rotate(-150.808)"/>
</clipPath>
<clipPath id="clip2">
<rect width="19" height="11" fill="white" transform="translate(4.47473 25) rotate(13.0017)"/>
</clipPath>
</defs>
</svg>
