<svg width="40" height="40" viewBox="0 0 40 40" fill="none" xmlns="http://www.w3.org/2000/svg">
<path d="M0.666016 18H39.3326V35.3334C39.3326 37.5427 37.5419 39.3334 35.3326 39.3334H0.666016V18Z" fill="#F0DBC2"/>
<path d="M0.666016 22H33.3327C34.4373 22 35.3327 22.8953 35.3327 24V33.3333C35.3327 34.438 34.4373 35.3333 33.3327 35.3333H0.666016V22Z" fill="#E7A561"/>
<path d="M0.666016 22H33.3327C34.4373 22 35.3327 22.8953 35.3327 24V33.3333C35.3327 34.438 34.4373 35.3333 33.3327 35.3333H0.666016V22Z" fill="#44C373"/>
<path d="M0.666016 18L23.9993 3.99998C31.9366 4.00131 38.5727 10.0353 39.3266 17.9366L39.3326 18H0.666016Z" fill="#E7A561"/>
<path d="M31.3326 11.3334C33.5418 11.3334 35.3326 9.5425 35.3326 7.33336C35.3326 5.12422 33.5418 3.33336 31.3326 3.33336C29.1235 3.33336 27.3326 5.12422 27.3326 7.33336C27.3326 9.5425 29.1235 11.3334 31.3326 11.3334Z" fill="#F0614A"/>
<path d="M33.3233 3.86664C33.2273 6.84 30.8393 9.22796 27.866 9.32398C28.962 11.2419 31.4053 11.9087 33.3233 10.8133C35.2413 9.71726 35.908 7.27398 34.8126 5.35593C34.4579 4.73531 33.9439 4.22133 33.3233 3.86664Z" fill="#EA5242"/>
<path d="M25.122 22H33.3327C34.4374 22 35.3327 22.8953 35.3327 24V33.3334C35.3327 34.438 34.4374 35.3334 33.3327 35.3334H9.68333L5.052 39.3334H35.3327C37.542 39.3334 39.3327 37.5427 39.3327 35.3334V18H29.7539L25.122 22Z" fill="#EBD3B7"/>
<path d="M33.3327 35.3333C34.4373 35.3333 35.3327 34.438 35.3327 33.3333V24C35.3327 22.8953 34.4373 22 33.3327 22H25.122L9.68335 35.3333H33.3327Z" fill="#008F28"/>
<path d="M35.3327 28H0.666016V29.3333H35.3327V28Z" fill="#E7A561"/>
<path d="M39.9902 17.874C39.6681 14.3913 38.2081 11.1113 35.8362 8.54063C36.4575 6.26664 35.2741 3.88797 33.0862 3.01133C33.8277 2.11998 34.8695 1.54395 36.0019 1.38091C36.3663 1.32845 36.6662 1.03498 36.6662 0.6669C36.6662 0.298653 36.3665 -0.00364201 36.0006 0.0374224C34.248 0.234084 32.6572 1.19578 31.6702 2.68398C31.5581 2.67602 31.4468 2.66664 31.3328 2.66664C30.1668 2.66734 29.0435 3.10664 28.1862 3.89734C26.8215 3.52602 25.4135 3.33602 23.9995 3.33336C23.8788 3.33336 23.7602 3.36602 23.6562 3.42867L0.322808 17.4287C0.295464 17.4487 0.269448 17.4707 0.245464 17.4953C0.222105 17.512 0.199448 17.53 0.178823 17.55C0.135464 17.598 0.0988232 17.652 0.0708545 17.71C0.0642139 17.7234 0.0542139 17.7334 0.0488232 17.7466C0.0181201 17.822 0.00218262 17.9027 0.000854492 17.984C0.000854492 17.99 0.000854492 17.9947 0.000854492 18.0006V39.3333C0.000854492 39.7013 0.299526 39.9999 0.667495 39.9999H35.3328C37.9088 39.9973 39.9968 37.9092 39.9994 35.3333V18C39.9961 17.9753 39.9908 17.9513 39.9848 17.9273C39.9875 17.91 39.9894 17.892 39.9902 17.874ZM31.0041 4.03336C30.8555 4.45525 30.7553 4.89166 30.7047 5.33449C30.6629 5.70025 30.965 6 31.3331 6C31.7011 6 31.9943 5.70002 32.0467 5.33585C32.1037 4.93969 32.2118 4.55153 32.3688 4.18133C34.1188 4.75266 35.0748 6.63398 34.5035 8.38398C33.9322 10.134 32.0509 11.09 30.3009 10.5187C28.5509 9.94734 27.5948 8.06602 28.1662 6.31602C28.5762 5.06 29.6894 4.16469 31.0041 4.03336ZM24.1822 4.66664C25.2235 4.6793 26.2609 4.80195 27.2769 5.03328C26.0002 7.2693 26.7782 10.1166 29.0142 11.3933C31.1602 12.618 33.8889 11.9566 35.2349 9.88461C37.0369 11.9986 38.1976 14.5826 38.5823 17.3333H3.07281L24.1822 4.66664ZM1.33281 29.3334H34.6662V33.3334C34.6662 34.07 34.0695 34.6667 33.3328 34.6667H1.33281V29.3334ZM34.6662 28H1.33281V22.6666H33.3328C34.0694 22.6666 34.6662 23.2633 34.6662 24V28ZM38.6662 35.3334C38.6641 37.1734 37.1728 38.6647 35.3328 38.6667H1.33281V36H33.3328C34.8055 36 35.9994 34.806 35.9994 33.3334V24C35.9994 22.5273 34.8055 21.3334 33.3328 21.3334H1.33281V18.6667H38.6662V35.3334Z" fill="black"/>
<path d="M23.3324 7.61169L24.3897 8.66903C24.6501 8.92938 25.0722 8.92938 25.3325 8.66903C25.5929 8.40867 25.5929 7.98656 25.3325 7.72621L24.2752 6.66887C24.0149 6.40852 23.5928 6.40852 23.3324 6.66887C23.072 6.92922 23.072 7.35134 23.3324 7.61169Z" fill="black"/>
<path d="M16.9422 12.6691L17.9995 11.6118C18.2599 11.3514 18.2599 10.9293 17.9995 10.669C17.7392 10.4086 17.3171 10.4086 17.0567 10.669L15.9994 11.7263C15.739 11.9866 15.739 12.4088 15.9994 12.6691C16.2597 12.9295 16.6818 12.9295 16.9422 12.6691Z" fill="black"/>
<path d="M18.666 14.2789L19.7233 15.3362C19.9837 15.5965 20.4058 15.5965 20.6662 15.3362C20.9265 15.0758 20.9265 14.6537 20.6662 14.3934L19.6088 13.336C19.3485 13.0757 18.9264 13.0757 18.666 13.336C18.4057 13.5964 18.4057 14.0185 18.666 14.2789Z" fill="black"/>
<path d="M22.9422 12.6664L23.9995 11.6091C24.2599 11.3488 24.2599 10.9266 23.9995 10.6663C23.7392 10.4059 23.3171 10.4059 23.0567 10.6663L21.9994 11.7236C21.739 11.984 21.739 12.4061 21.9994 12.6664C22.2597 12.9268 22.6818 12.9268 22.9422 12.6664Z" fill="black"/>
<path d="M34.2768 15.3321L35.3341 14.2748C35.5945 14.0144 35.5945 13.5923 35.3341 13.332C35.0738 13.0716 34.6517 13.0716 34.3913 13.332L33.334 14.3893C33.0736 14.6497 33.0736 15.0718 33.334 15.3321C33.5943 15.5925 34.0165 15.5925 34.2768 15.3321Z" fill="black"/>
<path d="M26.9432 15.332L28.0005 14.2746C28.2609 14.0143 28.2609 13.5922 28.0005 13.3318C27.7402 13.0715 27.3181 13.0715 27.0577 13.3318L26.0004 14.3892C25.74 14.6495 25.74 15.0716 26.0004 15.332C26.2607 15.5923 26.6828 15.5923 26.9432 15.332Z" fill="black"/>
<path d="M12.2761 15.3332L13.3334 14.2759C13.5938 14.0155 13.5938 13.5934 13.3334 13.333C13.073 13.0727 12.6509 13.0727 12.3906 13.333L11.3332 14.3904C11.0729 14.6507 11.0729 15.0728 11.3332 15.3332C11.5936 15.5935 12.0157 15.5935 12.2761 15.3332Z" fill="black"/>
</svg>
