<svg width="18" height="18" viewBox="0 0 18 18" fill="none" xmlns="http://www.w3.org/2000/svg">
<g opacity="0.4" clip-path="url(#clip0)">
<path d="M16.2052 11.9879V8.99999C16.2052 8.61165 15.8904 8.29686 15.5021 8.29686H9.70312V6.01209C10.7391 5.70761 11.4979 4.74882 11.4979 3.6156C11.4979 2.23825 10.3774 1.11768 9 1.11768C7.62265 1.11768 6.50208 2.23825 6.50208 3.6156C6.50208 4.74879 7.26086 5.70757 8.29688 6.01209V8.29686H2.49792C2.10959 8.29686 1.7948 8.61165 1.7948 8.99999V11.9879C0.758777 12.2924 0 13.2512 0 14.3843C0 15.7617 1.12057 16.8823 2.49792 16.8823C3.87527 16.8823 4.99584 15.7617 4.99584 14.3843C4.99584 13.2512 4.23707 12.2924 3.20105 11.9878V9.70311H8.29688V11.9879C7.26089 12.2924 6.50208 13.2512 6.50208 14.3844C6.50208 15.7617 7.62265 16.8823 9 16.8823C10.3774 16.8823 11.4979 15.7617 11.4979 14.3844C11.4979 13.2512 10.7391 12.2924 9.70312 11.9879V9.70311H14.799V11.9879C13.763 12.2924 13.0042 13.2512 13.0042 14.3844C13.0042 15.7617 14.1247 16.8823 15.5021 16.8823C16.8794 16.8823 18 15.7617 18 14.3843C18 13.2512 17.2412 12.2924 16.2052 11.9879ZM7.90833 3.61563C7.90833 3.01369 8.39806 2.52396 9 2.52396C9.60194 2.52396 10.0917 3.01369 10.0917 3.61563C10.0917 4.21758 9.60194 4.7073 9 4.7073C8.39806 4.7073 7.90833 4.21758 7.90833 3.61563ZM3.58959 14.3843C3.58959 14.9863 3.09987 15.476 2.49792 15.476C1.89598 15.476 1.40625 14.9863 1.40625 14.3843C1.40625 13.7824 1.89598 13.2927 2.49792 13.2927C3.09987 13.2927 3.58959 13.7824 3.58959 14.3843ZM10.0917 14.3843C10.0917 14.9863 9.60194 15.476 9 15.476C8.39806 15.476 7.90833 14.9863 7.90833 14.3843C7.90833 13.8042 8.36332 13.3284 8.93521 13.2948C8.95655 13.2967 8.9781 13.2981 8.99996 13.2981C9.02183 13.2981 9.04338 13.2967 9.06472 13.2948C9.63664 13.3284 10.0917 13.8042 10.0917 14.3843ZM15.5021 15.476C14.9001 15.476 14.4104 14.9863 14.4104 14.3843C14.4104 13.7824 14.9001 13.2927 15.5021 13.2927C16.104 13.2927 16.5938 13.7824 16.5938 14.3843C16.5938 14.9863 16.104 15.476 15.5021 15.476Z" fill="black"/>
</g>
<defs>
<clipPath id="clip0">
<rect width="18" height="18" fill="white"/>
</clipPath>
</defs>
</svg>
