<svg width="18" height="18" viewBox="0 0 18 18" fill="none" xmlns="http://www.w3.org/2000/svg">
<g opacity="0.4" clip-path="url(#clip0)">
<path d="M9.00092 0C4.03836 0 0.00100708 4.03735 0.00100708 8.99991C0.00100708 13.9627 4.03836 18.0001 9.00092 18.0001C9.37228 18.0001 9.67318 17.6991 9.67318 17.3278C9.67318 16.9566 9.37228 16.6556 9.00092 16.6556C4.77973 16.6556 1.34554 13.2213 1.34554 8.99991C1.34553 4.77872 4.77973 1.34453 9.00092 1.34453C13.2221 1.34453 16.6563 4.77872 16.6563 8.99991V11.0821C16.6563 11.8595 16.0238 12.4918 15.2464 12.4918C14.4691 12.4918 13.8367 11.8595 13.8367 11.0821V8.99991C13.8367 6.33326 11.6674 4.16382 9.00083 4.16382C6.33418 4.16382 4.16474 6.33326 4.16474 8.99991C4.16474 11.6667 6.33418 13.8364 9.00083 13.8364C10.4808 13.8364 11.8069 13.1674 12.6946 12.1167C13.1044 13.124 14.0935 13.8364 15.2464 13.8364C16.7651 13.8364 18.0008 12.6008 18.0008 11.0821V8.99991C18.0008 4.03735 13.9635 0 9.00092 0ZM9.00092 12.4918C7.07564 12.4918 5.50936 10.9254 5.50936 8.99991C5.50936 7.07464 7.07573 5.50835 9.00092 5.50835C10.9261 5.50835 12.4923 7.07464 12.4923 8.99991C12.4923 10.9254 10.9261 12.4918 9.00092 12.4918Z" fill="#202020"/>
</g>
<defs>
<clipPath id="clip0">
<rect width="18" height="18" fill="white"/>
</clipPath>
</defs>
</svg>
