<svg width="18" height="19" viewBox="0 0 18 19" fill="none" xmlns="http://www.w3.org/2000/svg">
<g opacity="0.4" clip-path="url(#clip0)">
<path d="M11.523 11.4764L14.3472 9.84596C14.5995 9.70034 14.6859 9.37785 14.5403 9.12561C14.3947 8.8734 14.0722 8.78688 13.8199 8.9326L10.9957 10.563C10.7435 10.7087 10.6571 11.0311 10.8027 11.2834C10.9252 11.4957 11.233 11.6439 11.523 11.4764Z" fill="black"/>
<path d="M16.6013 4.80699L9.26366 0.570664C9.10046 0.476445 8.89947 0.476445 8.73631 0.570664L1.39871 4.80699C1.23555 4.90121 1.13504 5.07527 1.13504 5.26367V13.7363C1.13504 13.9247 1.23555 14.0988 1.39871 14.193L8.73631 18.4293C8.81788 18.4764 8.90893 18.5 8.99998 18.5C9.09104 18.5 9.18209 18.4764 9.26366 18.4293L16.6013 14.193C16.7644 14.0988 16.8649 13.9247 16.8649 13.7363V5.26367C16.8649 5.07527 16.7644 4.90118 16.6013 4.80699ZM12.8397 3.85299L6.55673 7.48041L5.16563 6.6772L11.4485 3.04978L12.8397 3.85299ZM6.02939 8.39377V9.99556L4.63632 9.19119L4.63762 7.59021L6.02939 8.39377ZM8.99998 1.63625L10.3938 2.44094L4.11084 6.06836L2.71707 5.26367L8.99998 1.63625ZM8.47264 17.0593L2.18973 13.4319V6.17703L3.58343 6.98165L3.58142 9.49504C3.58128 9.68355 3.68179 9.85785 3.84509 9.95214L6.29309 11.3657C6.5677 11.5242 6.81534 11.3686 6.82044 11.3657C6.98363 11.2715 7.08411 11.0974 7.08411 10.909V9.00278L8.47264 9.80445V17.0593ZM8.99998 8.89109L7.61135 8.08939L13.8943 4.46197L15.2829 5.26367L8.99998 8.89109ZM15.8102 13.4319L9.52733 17.0593V9.80445L15.8102 6.17703V13.4319Z" fill="black"/>
<path d="M13.8199 11.7568L10.9957 13.3872C10.7435 13.5328 10.6571 13.8553 10.8027 14.1075C10.9266 14.3221 11.2349 14.467 11.523 14.3006L14.3472 12.6702C14.5995 12.5246 14.6859 12.2021 14.5403 11.9499C14.3947 11.6977 14.0722 11.6112 13.8199 11.7568Z" fill="black"/>
</g>
<defs>
<clipPath id="clip0">
<rect width="18" height="18" fill="white" transform="translate(0 0.5)"/>
</clipPath>
</defs>
</svg>
