<svg width="18" height="18" viewBox="0 0 18 18" fill="none" xmlns="http://www.w3.org/2000/svg">
<path d="M5.15842 3.79114C4.04393 3.79114 3.24283 5.10025 3.24283 6.35466C3.24283 7.39381 3.81197 8.22002 4.63108 8.46959V13.6814C4.63108 13.9727 4.86719 14.2088 5.15842 14.2088C5.44966 14.2088 5.68577 13.9727 5.68577 13.6814V8.46963C6.50487 8.22002 7.07402 7.39384 7.07402 6.3547C7.07402 5.09108 6.26563 3.79114 5.15842 3.79114ZM5.15842 7.49313C4.65154 7.49313 4.29752 7.02499 4.29752 6.3547C4.29752 5.55626 4.77895 4.84586 5.15842 4.84586C5.5379 4.84586 6.01933 5.5563 6.01933 6.3547C6.01933 7.02499 5.66531 7.49313 5.15842 7.49313Z" fill="black" opacity="0.4"/>
<path d="M1.31686 18H16.6831C16.9743 18 17.2104 17.7639 17.2104 17.4727V0.527344C17.2104 0.236109 16.9743 0 16.6831 0H11.4718C10.4471 0 9.54121 0.516832 8.99998 1.30321C8.45875 0.516832 7.55281 0 6.52814 0H1.31686C1.02563 0 0.78952 0.236109 0.78952 0.527344V17.4727C0.78952 17.7639 1.02563 18 1.31686 18ZM11.4718 1.05469H16.1558V16.9453H9.52732V2.99918C9.52732 1.92698 10.3996 1.05469 11.4718 1.05469ZM1.84421 1.05469H6.52814C7.60034 1.05469 8.47264 1.92698 8.47264 2.99918V16.9453H1.84421V1.05469Z" fill="black" opacity="0.4"/>
<path d="M11.1093 8.09547H14.5737C14.8649 8.09547 15.1011 7.85936 15.1011 7.56813V4.10376C15.1011 3.81253 14.8649 3.57642 14.5737 3.57642H11.1093C10.8181 3.57642 10.582 3.81253 10.582 4.10376V7.56813C10.582 7.85936 10.8181 8.09547 11.1093 8.09547ZM11.6367 4.6311H14.0464V7.04078H11.6367V4.6311Z" fill="black" opacity="0.4"/>
<path d="M11.1093 10.2048H14.5737C14.8649 10.2048 15.1011 9.96872 15.1011 9.67749C15.1011 9.38626 14.8649 9.15015 14.5737 9.15015H11.1093C10.8181 9.15015 10.582 9.38626 10.582 9.67749C10.582 9.96872 10.8181 10.2048 11.1093 10.2048Z" fill="black" opacity="0.4"/>
<path d="M11.1093 12.3142H14.5737C14.8649 12.3142 15.1011 12.0781 15.1011 11.7869C15.1011 11.4956 14.8649 11.2595 14.5737 11.2595H11.1093C10.8181 11.2595 10.582 11.4956 10.582 11.7869C10.582 12.0781 10.8181 12.3142 11.1093 12.3142Z" fill="black" opacity="0.4"/>
<path d="M11.1093 14.4236H14.5737C14.8649 14.4236 15.1011 14.1875 15.1011 13.8962C15.1011 13.605 14.8649 13.3689 14.5737 13.3689H11.1093C10.8181 13.3689 10.582 13.605 10.582 13.8962C10.582 14.1875 10.8181 14.4236 11.1093 14.4236Z" fill="black" opacity="0.4"/>
</svg>
