<svg width="18" height="18" viewBox="0 0 18 18" fill="none" xmlns="http://www.w3.org/2000/svg">
<g opacity="0.4">
<path d="M9 6.1875C7.44915 6.1875 6.1875 7.44919 6.1875 9C6.1875 10.5508 7.44919 11.8125 9 11.8125C10.5508 11.8125 11.8125 10.5508 11.8125 9C11.8125 7.44919 10.5508 6.1875 9 6.1875ZM9 10.4062C8.22459 10.4062 7.59375 9.77541 7.59375 9C7.59375 8.22459 8.22459 7.59375 9 7.59375C9.77541 7.59375 10.4062 8.22459 10.4062 9C10.4062 9.77541 9.77541 10.4062 9 10.4062Z" fill="black"/>
<path d="M17.6542 11.0966L15.8335 9.70151C15.8847 9.21899 15.8816 8.75159 15.8335 8.29853L17.6542 6.90342C17.9365 6.68714 18.0128 6.29416 17.832 5.98792L16.0689 3.00041C15.8932 2.70278 15.5273 2.57692 15.2057 2.70359L13.0455 3.55437C12.651 3.27203 12.2287 3.03279 11.7833 2.83925L11.459 0.602262C11.4089 0.2565 11.1125 0 10.7631 0H7.23683C6.88748 0 6.59111 0.2565 6.54102 0.602297L6.21673 2.83929C5.77127 3.03286 5.34901 3.27206 4.95448 3.5544L2.79431 2.70362C2.47263 2.57692 2.10676 2.70281 1.93112 3.00045L0.167926 5.98792C-0.0128125 6.29416 0.0635469 6.68714 0.345781 6.90342L2.16649 8.29849C2.1153 8.78101 2.11843 9.24841 2.16649 9.70147L0.345816 11.0966C0.0635468 11.3129 -0.0128126 11.7058 0.167961 12.0121L1.93108 14.9996C2.10672 15.2972 2.47263 15.4231 2.79427 15.2964L4.95448 14.4457C5.34894 14.7279 5.77123 14.9672 6.2167 15.1607L6.54098 17.3977C6.59111 17.7435 6.88748 18 7.23683 18H10.7631C11.1125 18 11.4089 17.7435 11.459 17.3978L11.7833 15.1608C12.2287 14.9672 12.651 14.728 13.0455 14.4457L15.2057 15.2964C15.5273 15.4231 15.8932 15.2972 16.0689 14.9996L17.832 12.0121C18.0128 11.7059 17.9364 11.3129 17.6542 11.0966ZM15.1628 13.7681L13.1924 12.9921C12.9563 12.8992 12.6886 12.9405 12.4917 13.1003C12.0163 13.486 11.4826 13.7878 10.9057 13.9973C10.6621 14.0857 10.487 14.3009 10.4498 14.5573L10.1546 16.5938H7.84535L7.55021 14.5573C7.51302 14.3009 7.33787 14.0857 7.09431 13.9973C6.51732 13.7878 5.98368 13.486 5.50827 13.1003C5.31132 12.9405 5.04357 12.8992 4.8076 12.9921L2.8372 13.7681L1.69564 11.8338L3.34658 10.5688C3.55407 10.4098 3.65627 10.1488 3.61183 9.89118C3.50833 9.29088 3.51174 8.68929 3.61183 8.10879C3.65627 7.85116 3.55407 7.59016 3.34658 7.43119L1.69564 6.16612L2.8372 4.23186L4.8076 5.00787C5.04368 5.10086 5.31132 5.05944 5.50827 4.89969C5.98372 4.51396 6.51736 4.21218 7.09431 4.00271C7.33787 3.9143 7.51302 3.69911 7.55021 3.44268L7.84538 1.40625H10.1546L10.4498 3.44268C10.487 3.69911 10.6621 3.9143 10.9057 4.00271C11.4826 4.21218 12.0163 4.51396 12.4917 4.89969C12.6886 5.05948 12.9564 5.10082 13.1924 5.00787L15.1628 4.23186L16.3043 6.16612L14.6534 7.43119C14.4459 7.5902 14.3437 7.85116 14.3881 8.10879C14.4916 8.70908 14.4882 9.31068 14.3881 9.89118C14.3437 10.1488 14.4459 10.4098 14.6534 10.5688L16.3043 11.8338L15.1628 13.7681Z" fill="black"/>
</g>
</svg>
