<svg width="18" height="18" viewBox="0 0 18 18" fill="none" xmlns="http://www.w3.org/2000/svg">
<g opacity="0.4" clip-path="url(#clip0)">
<path d="M13.5945 10.7017C12.3434 10.7017 11.3256 11.7195 11.3256 12.9706C11.3256 14.2217 12.3434 15.2395 13.5945 15.2395C14.8459 15.2395 15.8635 14.2217 15.8635 12.9706C15.8635 11.7195 14.8456 10.7017 13.5945 10.7017ZM13.5945 14.105C12.9689 14.105 12.4601 13.5962 12.4601 12.9706C12.4601 12.3449 12.9689 11.8361 13.5945 11.8361C14.2202 11.8361 14.729 12.3449 14.729 12.9706C14.729 13.5962 14.2202 14.105 13.5945 14.105Z" fill="black"/>
<path d="M5.84246 10.7017C4.59136 10.7017 3.57355 11.7195 3.57355 12.9706C3.57355 14.2217 4.59136 15.2395 5.84246 15.2395C7.09357 15.2395 8.11138 14.2217 8.11138 12.9706C8.11138 11.7195 7.09357 10.7017 5.84246 10.7017ZM5.84246 14.105C5.21682 14.105 4.708 13.5962 4.708 12.9706C4.708 12.3449 5.21682 11.8361 5.84246 11.8361C6.46793 11.8361 6.97692 12.3449 6.97692 12.9706C6.97692 13.5962 6.4681 14.105 5.84246 14.105Z" fill="black"/>
<path d="M15.1225 4.20735C15.026 4.01582 14.83 3.89499 14.6155 3.89499H11.6281V5.02945H14.2657L15.8103 8.10155L16.8241 7.59178L15.1225 4.20735Z" fill="black"/>
<path d="M11.8929 12.4223H7.60086V13.5567H11.8929V12.4223Z" fill="black"/>
<path d="M4.14072 12.4223H2.17436C1.86105 12.4223 1.60715 12.6762 1.60715 12.9895C1.60715 13.3028 1.86108 13.5567 2.17436 13.5567H4.14075C4.45407 13.5567 4.70796 13.3028 4.70796 12.9895C4.70796 12.6762 4.45403 12.4223 4.14072 12.4223Z" fill="black"/>
<path d="M17.8809 8.95461L16.7652 7.51763C16.658 7.37922 16.4925 7.29829 16.3173 7.29829H12.1954V3.32771C12.1954 3.0144 11.9415 2.7605 11.6282 2.7605H2.17436C1.86105 2.7605 1.60715 3.01443 1.60715 3.32771C1.60715 3.64099 1.86108 3.89492 2.17436 3.89492H11.0609V7.8655C11.0609 8.17881 11.3149 8.43271 11.6281 8.43271H16.0395L16.8655 9.49682V12.4222H15.2962C14.9829 12.4222 14.729 12.6761 14.729 12.9894C14.729 13.3027 14.9829 13.5566 15.2962 13.5566H17.4328C17.7461 13.5566 18 13.3027 18 12.9894V9.30251C18 9.17658 17.958 9.05406 17.8809 8.95461Z" fill="black"/>
<path d="M4.10293 9.54834H1.49366C1.18035 9.54834 0.926453 9.80227 0.926453 10.1156C0.926453 10.4289 1.18039 10.6828 1.49366 10.6828H4.10289C4.4162 10.6828 4.6701 10.4288 4.6701 10.1156C4.67014 9.80227 4.4162 9.54834 4.10293 9.54834Z" fill="black"/>
<path d="M5.40756 7.3172H0.567211C0.253934 7.3172 0 7.57113 0 7.88445C0 8.19776 0.253934 8.45166 0.567211 8.45166H5.40756C5.72087 8.45166 5.97477 8.19772 5.97477 7.88445C5.97477 7.57117 5.72087 7.3172 5.40756 7.3172Z" fill="black"/>
<path d="M6.33401 5.08612H1.49366C1.18035 5.08612 0.926453 5.34005 0.926453 5.65333C0.926453 5.96664 1.18039 6.22054 1.49366 6.22054H6.33401C6.64732 6.22054 6.90122 5.96661 6.90122 5.65333C6.90126 5.34005 6.64732 5.08612 6.33401 5.08612Z" fill="black"/>
</g>
<defs>
<clipPath id="clip0">
<rect width="18" height="18" fill="white"/>
</clipPath>
</defs>
</svg>
