<svg width="16" height="17" viewBox="0 0 16 17" fill="none" xmlns="http://www.w3.org/2000/svg">
<g opacity="0.4">
<path d="M3.99997 1.50006C2.34578 1.50006 1 2.84585 1 4.50003C1 6.15421 2.34578 7.49999 3.99997 7.49999C5.65415 7.49999 6.99993 6.15421 6.99993 4.50003C6.99993 2.84585 5.65415 1.50006 3.99997 1.50006ZM3.99997 5.50002C3.44857 5.50002 2.99998 5.05142 2.99998 4.50003C2.99998 3.94863 3.44857 3.50004 3.99997 3.50004C4.55136 3.50004 4.99995 3.94863 4.99995 4.50003C4.99995 5.05142 4.55136 5.50002 3.99997 5.50002Z" fill="#202020"/>
<path d="M12 9.5C10.3458 9.5 9 10.8458 9 12.5C9 14.1541 10.3458 15.4999 12 15.4999C13.6541 15.4999 14.9999 14.1541 14.9999 12.5C14.9999 10.8458 13.6541 9.5 12 9.5ZM12 13.5C11.4486 13.5 11 13.0514 11 12.5C11 11.9486 11.4486 11.5 12 11.5C12.5514 11.5 13 11.9486 13 12.5C13 13.0514 12.5514 13.5 12 13.5Z" fill="#202020"/>
<path d="M12.5546 1.668C12.0952 1.36174 11.4742 1.48587 11.1679 1.9454L3.16797 13.9453C2.86164 14.4047 2.98584 15.0256 3.44537 15.332C3.90483 15.6382 4.52569 15.5142 4.83208 15.0546L12.832 3.05472C13.1383 2.59519 13.0141 1.97433 12.5546 1.668Z" fill="#202020"/>
</g>
</svg>
